<svg width="24" height="23" viewBox="0 0 24 23" fill="none" xmlns="http://www.w3.org/2000/svg">
<g id="Iconly/Bold/Folder">
<g id="Folder">
<path id="Folder_2" fill-rule="evenodd" clip-rule="evenodd" d="M13.4499 4.51024H16.5199C20.2099 4.51024 22.0099 6.33091 21.9999 10.0647V14.5655C21.9999 18.1329 19.6199 20.3325 15.7499 20.3325H8.23988C4.38988 20.3325 1.99988 18.1329 1.99988 14.5563V7.61555C1.99988 3.78936 3.83988 1.84855 7.46988 1.84855H9.04988C9.98088 1.8393 10.8499 2.23671 11.4199 2.91137L12.2999 3.99269C12.5799 4.31616 12.9999 4.51024 13.4499 4.51024ZM7.36992 14.1311H16.6299C17.0399 14.1311 17.3699 13.8169 17.3699 13.438C17.3699 13.0498 17.0399 12.7448 16.6299 12.7448H7.36992C6.94992 12.7448 6.61992 13.0498 6.61992 13.438C6.61992 13.8169 6.94992 14.1311 7.36992 14.1311Z" fill="#8E7EFC"/>
</g>
</g>
</svg>
