<svg width="28" height="28" viewBox="0 0 28 28" fill="none" xmlns="http://www.w3.org/2000/svg">
<g id="Iconly/Bold/Graph">
<g id="Graph">
<path id="Graph_2" d="M10.4484 5.78577C11.0202 5.67874 11.5934 5.96505 11.8429 6.48108C11.9049 6.5746 11.9553 6.67507 11.9913 6.78088C12.1498 9.22704 12.3192 11.632 12.4777 14.0367C12.4741 14.2867 12.5133 14.5359 12.5939 14.7731C12.7835 15.2397 13.2554 15.5362 13.7667 15.5094L21.5314 15.0114L21.5841 15.0319C21.9176 15.0373 22.2361 15.1726 22.4679 15.4078C22.6997 15.6431 22.8261 15.9596 22.8204 16.2867C22.5144 20.7456 19.2457 24.4713 14.797 25.4313C10.3482 26.3911 5.7872 24.3548 3.60266 20.4332C2.96038 19.3038 2.55401 18.0595 2.40833 16.774C2.35186 16.3933 2.32687 16.0084 2.33411 15.6237C2.34883 10.8822 5.72492 6.78869 10.4484 5.78577ZM15.0656 2.33459C20.3981 2.49423 24.8554 6.36489 25.6632 11.5387C25.6683 11.5696 25.6683 11.6016 25.6632 11.6324C25.6806 11.8772 25.5973 12.1186 25.4327 12.3033C25.2682 12.4881 25.0357 12.6008 24.7863 12.6168L15.8263 13.2076C15.5301 13.2339 15.2359 13.1364 15.0167 12.9391C14.7978 12.7418 14.6738 12.4632 14.6749 12.1715L14.0724 3.37073V3.2262C14.0834 2.97869 14.1947 2.74499 14.381 2.57776C14.5672 2.4107 14.8135 2.32342 15.0656 2.33459Z" fill="#75578E"/>
</g>
</g>
</svg>
