<svg width="28" height="28" viewBox="0 0 28 28" fill="none" xmlns="http://www.w3.org/2000/svg">
<g id="Iconly/Bold/Search">
<g id="Search">
<path id="Search_2" d="M20.558 20.597C21.0089 20.1492 21.7311 20.1492 22.182 20.597L25.1625 23.0023H25.2142C25.8172 23.6118 25.8172 24.5999 25.2142 25.2094C24.6113 25.8188 23.6336 25.8188 23.0306 25.2094L20.558 22.3754C20.3242 22.1398 20.1927 21.8194 20.1927 21.4857C20.1928 21.1521 20.3242 20.8326 20.558 20.597ZM12.3402 2.33337C14.9943 2.33337 17.5397 3.39939 19.4164 5.29626C21.2931 7.19318 22.348 9.76597 22.348 12.4486C22.3479 18.0348 17.867 22.5629 12.3402 22.5629C6.81366 22.5626 2.33355 18.0346 2.33337 12.4486C2.33337 6.86243 6.81355 2.3336 12.3402 2.33337Z" fill="#00A198"/>
</g>
</g>
</svg>
