<svg viewBox="0 0 24 24" fill="none" xmlns="http://www.w3.org/2000/svg" x="0" y="0"><g id="Folder_alt">
<path id="Rectangle 1" d="M3,7c0,-1.886 0,-2.828 0.5858,-3.414c0.5858,-0.586 1.5286,-0.586 3.4142,-0.586h10c1.8856,0 2.8284,0 3.4142,0.586c0.5858,0.586 0.5858,1.528 0.5858,3.414v10c0,1.886 0,2.828 -0.5858,3.414c-0.5858,0.586 -1.5286,0.586 -3.4142,0.586h-10c-1.8856,0 -2.8284,0 -3.4142,-0.586c-0.5858,-0.586 -0.5858,-1.528 -0.5858,-3.414z" stroke="#CCD2E3" stroke-width="2"/>
<path id="Rectangle 2" d="M3,7h3c0.9814,0 1.4721,0 1.8944,0.211c0.4223,0.211 0.7167,0.604 1.3056,1.389l0.6,0.8c0.5889,0.785 0.8833,1.178 1.3056,1.389c0.4223,0.211 0.913,0.211 1.8944,0.211h5c0.9319,0 1.3978,0 1.7654,-0.152c0.49,-0.203 0.8794,-0.593 1.0824,-1.083c0.1522,-0.367 0.1522,-0.833 0.1522,-1.765" stroke="#CCD2E3" stroke-width="2"/>
<path id="Vector 55" d="M7,16h8" stroke="#48B4E9" stroke-width="2" stroke-linecap="round"/>
</g></svg>