<svg viewBox="0 0 23.3333 23.3279" fill="none" xmlns="http://www.w3.org/2000/svg" xmlns:xlink="http://www.w3.org/1999/xlink" x="0" y="0"><path id="Discount_4" fill-rule="evenodd" clip-rule="evenodd" d="M21.4657,8.336l0.84,0.84c0.666,0.65 1.027,1.54 1.027,2.47c0.012,0.94 -0.35,1.82 -1.003,2.49c-0.008,0.01 -0.016,0.01 -0.024,0.02c-0.004,0.01 -0.008,0.01 -0.011,0.01l-0.829,0.83c-0.327,0.33 -0.514,0.77 -0.514,1.24v1.2c0,1.94 -1.575,3.51 -3.512,3.51h-1.203c-0.466,0 -0.91,0.19 -1.237,0.52l-0.84,0.84c-0.689,0.68 -1.587,1.02 -2.486,1.02c-0.899,0 -1.797,-0.34 -2.486,-1.01l-0.852,-0.85c-0.327,-0.33 -0.77,-0.52 -1.237,-0.52h-1.202c-1.937,0 -3.513,-1.57 -3.513,-3.51v-1.2c0,-0.47 -0.187,-0.91 -0.513,-1.25l-0.841,-0.83c-1.365,-1.36 -1.377,-3.59 -0.011,-4.97l0.852,-0.85c0.326,-0.33 0.513,-0.77 0.513,-1.25v-1.19c0,-1.93 1.576,-3.51 3.513,-3.51h1.202c0.467,0 0.91,-0.19 1.237,-0.51l0.841,-0.84c1.365,-1.38 3.594,-1.38 4.971,-0.01l0.852,0.85c0.327,0.32 0.771,0.51 1.237,0.51h1.203c1.937,0 3.512,1.58 3.512,3.51v1.2c0,0.47 0.187,0.91 0.514,1.24zM8.6627,15.686c0.28,0 0.537,-0.1 0.724,-0.3l5.998,-6c0.397,-0.4 0.397,-1.05 0,-1.45c-0.396,-0.39 -1.038,-0.39 -1.435,0l-5.999,6c-0.397,0.4 -0.397,1.05 0,1.45c0.187,0.2 0.444,0.3 0.712,0.3zM13.6457,14.656c0,0.58 0.456,1.03 1.028,1.03c0.56,0 1.015,-0.45 1.015,-1.03c0,-0.56 -0.455,-1.01 -1.015,-1.01c-0.572,0 -1.028,0.45 -1.028,1.01zM8.6747,7.646c0.56,0 1.015,0.46 1.015,1.02c0,0.57 -0.455,1.02 -1.015,1.02c-0.561,0 -1.027,-0.45 -1.027,-1.02c0,-0.56 0.466,-1.02 1.027,-1.02z" fill="currentColor"/></svg>