<svg viewBox="0 0 19.5635 18" fill="none" xmlns="http://www.w3.org/2000/svg" x="0" y="0"><g id="Group 136_4">
<ellipse id="Ellipse 67_4" cx="9.779399999999896" cy="9" rx="9.78174" ry="9" fill="#017EFA"/>
<g id="Pipe_4">
<path id="Subtract_5" d="M11.6394,4.982c0.29,0.073 0.58,0.167 0.85,0.289c0.87,0.381 1.62,0.992 2.13,1.769c0.52,0.778 0.79,1.687 0.76,2.615c-0.02,0.928 -0.34,1.822 -0.9,2.573c-0.56,0.748 -1.34,1.321 -2.22,1.66c-0.89,0.338 -1.86,0.432 -2.8,0.272c-0.94,-0.16 -1.82,-0.568 -2.53,-1.186c-0.01,-0.006 -0.01,-0.014 -0.02,-0.02l3.03,-0.747c0.54,0.069 1.1,0.005 1.6,-0.187c0.55,-0.21 1.01,-0.558 1.34,-0.99c0.32,-0.43 0.49,-0.928 0.5,-1.431c0.02,-0.504 -0.13,-1.008 -0.42,-1.451c-0.16,-0.236 -0.36,-0.45 -0.59,-0.634z" fill="white"/>
<path id="Ellipse 52_4" d="M6.8594,5.329c0.34,-0.242 0.71,-0.447 1.1,-0.612c0.38,-0.162 0.58,-0.243 0.78,-0.147c0.2,0.096 0.27,0.32 0.4,0.767l0.93,3.191c0.13,0.471 0.2,0.706 0.1,0.89c-0.11,0.185 -0.35,0.244 -0.82,0.361l-3.62,0.891c-0.45,0.112 -0.68,0.168 -0.87,0.034c-0.18,-0.134 -0.2,-0.338 -0.24,-0.745c-0.03,-0.373 -0.02,-0.748 0.03,-1.121c0.1,-0.689 0.35,-1.353 0.72,-1.956c0.38,-0.602 0.89,-1.129 1.49,-1.553z" stroke="white" stroke-width="2"/>
</g>
</g></svg>