<svg viewBox="0 0 60 60" fill="none" xmlns="http://www.w3.org/2000/svg" xmlns:xlink="http://www.w3.org/1999/xlink" x="0" y="0"><g id="Group 19_2">
<circle id="Ellipse 6_2" cx="30" cy="30" r="30" fill="#F7954E"/>
<g id="fi:globe">
<path id="Vector_20" d="M30,40c5.523,0 10,-4.48 10,-10c0,-5.52 -4.477,-10 -10,-10c-5.523,0 -10,4.48 -10,10c0,5.52 4.477,10 10,10z" stroke="white" stroke-width="2" stroke-linecap="round" stroke-linejoin="round"/>
<path id="Vector_21" d="M20,30h20" stroke="white" stroke-width="2" stroke-linecap="round" stroke-linejoin="round"/>
<path id="Vector_22" d="M30,20c2.501,2.74 3.923,6.29 4,10c-0.077,3.71 -1.499,7.26 -4,10c-2.501,-2.74 -3.923,-6.29 -4,-10c0.077,-3.71 1.499,-7.26 4,-10z" stroke="white" stroke-width="2" stroke-linecap="round" stroke-linejoin="round"/>
</g>
</g></svg>