<svg viewBox="0 0 20 18" fill="none" xmlns="http://www.w3.org/2000/svg" x="0" y="0"><path id="Subtract" d="M14,0c2.8284,0 4.2424,0 5.1211,0.879c0.8787,0.879 0.8789,2.293 0.8789,5.121v6c0,2.828 -0.0002,4.242 -0.8789,5.121c-0.8787,0.879 -2.2927,0.879 -5.1211,0.879h-8c-2.8284,0 -4.2424,0 -5.1211,-0.879c-0.8787,-0.879 -0.8789,-2.293 -0.8789,-5.121v-6c0,-2.828 0.0002,-4.242 0.8789,-5.121c0.8787,-0.879 2.2927,-0.879 5.1211,-0.879zM6,7c-0.5523,0 -1,0.448 -1,1v6c0,0.552 0.4477,1 1,1c0.5523,0 1,-0.448 1,-1v-6c0,-0.552 -0.4477,-1 -1,-1zM10,9c-0.5523,0 -1,0.448 -1,1v4c0,0.552 0.4477,1 1,1c0.5523,0 1,-0.448 1,-1v-4c0,-0.552 -0.4477,-1 -1,-1zM14,5c-0.5523,0 -1,0.448 -1,1v8c0,0.552 0.4477,1 1,1c0.5523,0 1,-0.448 1,-1v-8c0,-0.552 -0.4477,-1 -1,-1z" fill="currentColor"/></svg>