<svg viewBox="0 0 23.3333 23.3333" fill="none" xmlns="http://www.w3.org/2000/svg" xmlns:xlink="http://www.w3.org/1999/xlink" x="0" y="0"><path id="Chart_4" fill-rule="evenodd" clip-rule="evenodd" d="M6.2181,-0.004h10.896c3.968,0 6.208,2.25 6.219,6.22v10.9c0,3.97 -2.251,6.22 -6.219,6.22h-10.896c-3.968,0 -6.218,-2.25 -6.218,-6.22v-10.9c0,-3.97 2.25,-6.22 6.218,-6.22zM11.7241,18.506c0.503,0 0.921,-0.38 0.968,-0.88v-11.89c0.047,-0.36 -0.127,-0.72 -0.442,-0.92c-0.328,-0.2 -0.725,-0.2 -1.038,0c-0.317,0.2 -0.49,0.56 -0.457,0.92v11.89c0.06,0.5 0.479,0.88 0.969,0.88zM17.0921,18.506c0.49,0 0.908,-0.38 0.968,-0.88v-3.82c0.034,-0.38 -0.14,-0.73 -0.456,-0.93c-0.314,-0.19 -0.711,-0.19 -1.037,0c-0.317,0.2 -0.49,0.55 -0.444,0.93v3.82c0.047,0.5 0.466,0.88 0.969,0.88zM7.2551,17.626c-0.046,0.5 -0.465,0.88 -0.968,0.88c-0.502,0 -0.922,-0.38 -0.967,-0.88v-8.06c-0.035,-0.36 0.139,-0.72 0.455,-0.92c0.314,-0.2 0.712,-0.2 1.027,0c0.313,0.2 0.49,0.56 0.453,0.92z" fill="currentColor"/></svg>