<svg viewBox="0 0 20 20" fill="none" xmlns="http://www.w3.org/2000/svg" x="0" y="0"><defs><clipPath id="clip1_53_377">
<rect width="20" height="20" fill="white" transform="translate(0, 0)"/>
</clipPath></defs><g id="Icon/Google - Original" clip-path="url(#clip1_53_377)">
<path id="Vector_3" d="M19.805,10.23c0,-0.679 -0.055,-1.363 -0.172,-2.032h-9.433v3.851h5.402c-0.225,1.242 -0.945,2.341 -1.999,3.039v2.499h3.222c1.893,-1.742 2.98,-4.314 2.98,-7.357z" fill="#4285F4"/>
<path id="Vector_4" d="M10.2,20.001c2.697,0 4.971,-0.886 6.629,-2.414l-3.223,-2.499c-0.896,0.61 -2.054,0.955 -3.402,0.955c-2.609,0 -4.821,-1.76 -5.615,-4.126h-3.325v2.576c1.697,3.376 5.155,5.508 8.936,5.508z" fill="#34A853"/>
<path id="Vector_5" d="M4.586,11.917c-0.419,-1.242 -0.419,-2.587 0,-3.829v-2.576h-3.322c-1.418,2.826 -1.418,6.155 0,8.981z" fill="#FBBC04"/>
<path id="Vector_6" d="M10.2,3.958c1.426,-0.022 2.804,0.514 3.836,1.499l2.855,-2.855c-1.808,-1.697 -4.207,-2.631 -6.691,-2.601c-3.781,0 -7.239,2.131 -8.936,5.511l3.321,2.576c0.79,-2.37 3.006,-4.13 5.615,-4.13z" fill="#EA4335"/>
</g></svg>