<svg viewBox="0 0 30.951 34" fill="none" xmlns="http://www.w3.org/2000/svg" xmlns:xlink="http://www.w3.org/1999/xlink" x="0" y="0"><g id="Group 136">
<ellipse id="Ellipse 67" cx="15.475199999999973" cy="17" rx="15.4755" ry="17" fill="#017EFA"/>
<g id="Pipe">
<path id="Subtract" d="M17.0152,10.03c0.893,0.082 1.768,0.341 2.581,0.767c1.292,0.678 2.365,1.746 3.097,3.06c0.733,1.313 1.099,2.824 1.063,4.35c-0.037,1.527 -0.475,3.016 -1.271,4.287c-0.796,1.273 -1.919,2.278 -3.245,2.882c-1.327,0.605 -2.792,0.776 -4.212,0.488c-1.419,-0.289 -2.719,-1.02 -3.747,-2.09c-0.396,-0.413 -0.744,-0.869 -1.043,-1.359l2.012,-0.592c0.147,0.199 0.304,0.388 0.474,0.565c0.759,0.791 1.7,1.312 2.703,1.516c1.001,0.203 2.037,0.085 2.985,-0.347c0.949,-0.433 1.779,-1.165 2.378,-2.123c0.599,-0.959 0.938,-2.096 0.966,-3.275c0.028,-1.178 -0.256,-2.334 -0.81,-3.328c-0.554,-0.993 -1.349,-1.775 -2.279,-2.262c-0.366,-0.192 -0.748,-0.335 -1.138,-0.43z" fill="white"/>
<path id="Ellipse 52" d="M10.8442,10.066c0.673,-0.567 1.414,-1.027 2.201,-1.368c0.425,-0.185 0.638,-0.277 0.846,-0.174c0.209,0.104 0.268,0.348 0.387,0.835l1.882,7.714c0.107,0.439 0.16,0.658 0.06,0.832c-0.1,0.173 -0.316,0.237 -0.75,0.364l-6.872,2.023c-0.48,0.141 -0.72,0.212 -0.912,0.089c-0.192,-0.124 -0.225,-0.356 -0.292,-0.822c-0.136,-0.946 -0.148,-1.911 -0.034,-2.864c0.156,-1.302 0.544,-2.558 1.142,-3.695c0.598,-1.137 1.393,-2.134 2.342,-2.934z" stroke="white" stroke-width="2"/>
</g>
</g></svg>