<svg width="20" height="20" viewBox="0 0 20 20" fill="none" xmlns="http://www.w3.org/2000/svg">
<path fill-rule="evenodd" clip-rule="evenodd" d="M10 18C14.4183 18 18 14.4183 18 10C18 5.58172 14.4183 2 10 2C5.58172 2 2 5.58172 2 10C2 14.4183 5.58172 18 10 18ZM10 20C15.5228 20 20 15.5228 20 10C20 4.47715 15.5228 0 10 0C4.47715 0 0 4.47715 0 10C0 15.5228 4.47715 20 10 20Z" fill="#12131A"/>
<path fill-rule="evenodd" clip-rule="evenodd" d="M9 5C9 4.44772 9.44772 4 10 4C10.5523 4 11 4.44772 11 5C12.6569 5 14 6.34315 14 8C14 8.55228 13.5523 9 13 9C12.4477 9 12 8.55228 12 8C12 7.44772 11.5523 7 11 7H10H8.74342C8.33284 7 8 7.33284 8 7.74342C8 8.06341 8.20476 8.34749 8.50833 8.44868L12.1241 9.65395C13.2444 10.0274 14 11.0757 14 12.2566C14 13.7717 12.7717 15 11.2566 15H11C11 15.5523 10.5523 16 10 16C9.44772 16 9 15.5523 9 15C7.34315 15 6 13.6569 6 12C6 11.4477 6.44772 11 7 11C7.55228 11 8 11.4477 8 12C8 12.5523 8.44772 13 9 13H10H11.2566C11.6672 13 12 12.6672 12 12.2566C12 11.9366 11.7952 11.6525 11.4917 11.5513L7.87587 10.346C6.75562 9.97263 6 8.92427 6 7.74342C6 6.22827 7.22827 5 8.74342 5L9 5Z" fill="#12131A"/>
</svg>
