<svg viewBox="0 0 32.5381 40" fill="none" xmlns="http://www.w3.org/2000/svg" x="0" y="0"><defs><clipPath id="clip3_32_1658">
<rect width="19.5229" height="24" fill="white" transform="translate(6.509999999999991, 8)"/>
</clipPath></defs><g id="Group 187">
<ellipse id="Ellipse 2_2" cx="16.269999999999982" cy="20" rx="16.2691" ry="20" fill="#EAECF2"/>
<g id="bx:bx-bell" clip-path="url(#clip3_32_1658)">
<path id="Vector_6" d="M21.96,21.586v-3.586c0,-3.217 -1.77,-5.927 -4.18,-6.742c-0.24,-0.738 -0.82,-1.258 -1.51,-1.258c-0.69,0 -1.27,0.52 -1.51,1.258c-2.41,0.816 -4.19,3.525 -4.19,6.742v3.586l-1.38,1.707c-0.08,0.0927 -0.14,0.2029 -0.18,0.3242c-0.04,0.1214 -0.06,0.2515 -0.06,0.3828v2c0,0.2652 0.08,0.5196 0.24,0.7071c0.15,0.1875 0.36,0.2929 0.57,0.2929h13.02c0.21,0 0.42,-0.1054 0.57,-0.2929c0.15,-0.1875 0.24,-0.4419 0.24,-0.7071v-2c0,-0.1313 -0.02,-0.2614 -0.06,-0.3828c-0.04,-0.1213 -0.1,-0.2315 -0.18,-0.3242zM21.96,25h-11.39v-0.586l1.39,-1.707c0.08,-0.0927 0.14,-0.2029 0.18,-0.3242c0.04,-0.1214 0.06,-0.2515 0.06,-0.3828v-4c0,-2.757 1.83,-5 4.07,-5c2.24,0 4.07,2.243 4.07,5v4c0,0.266 0.08,0.52 0.23,0.707l1.39,1.707zM16.27,30c0.5,0.0008 0.99,-0.1914 1.41,-0.5498c0.41,-0.3585 0.72,-0.8653 0.88,-1.4502h-4.58c0.16,0.5849 0.47,1.0917 0.88,1.4502c0.41,0.3584 0.91,0.5506 1.41,0.5498z" fill="black"/>
<ellipse id="Ellipse 104" cx="22.36999999999989" cy="14.5" rx="3.66054" ry="4.5" fill="#FA3F3F"/>
</g>
</g></svg>