<svg viewBox="0 0 25.6664 18.667" fill="none" xmlns="http://www.w3.org/2000/svg" xmlns:xlink="http://www.w3.org/1999/xlink" x="0" y="0"><path id="3 Friends" d="M12.7729,12.2935c4,0 7.42,0.64 7.42,3.18c0,2.54 -3.39,3.19 -7.42,3.19c-4.002,0 -7.42,-0.63 -7.42,-3.17c0,-2.54 3.396,-3.2 7.42,-3.2zM6.4929,10.7635c0.023,0.01 0.034,0.02 0.036,0.03c0.004,0.02 -0.003,0.04 -0.032,0.06c-0.708,0.35 -3.442,1.88 -3.098,5.11c0.014,0.14 -0.097,0.26 -0.236,0.24c-0.673,-0.1 -2.403,-0.47 -2.94,-1.64c-0.298,-0.61 -0.298,-1.33 0,-1.94c0.351,-0.75 1.197,-1.27 2.485,-1.53c0.609,-0.14 2.254,-0.35 3.785,-0.33zM19.1729,10.7635c1.53,-0.03 3.18,0.18 3.79,0.33c1.28,0.26 2.13,0.77 2.48,1.53c0.3,0.61 0.3,1.33 0,1.94c-0.54,1.17 -2.27,1.54 -2.94,1.64c-0.14,0.02 -0.25,-0.1 -0.24,-0.24c0.35,-3.23 -2.39,-4.76 -3.09,-5.11c-0.03,-0.02 -0.04,-0.04 -0.04,-0.06c0.01,-0.01 0.02,-0.02 0.04,-0.03zM12.7729,0.0035c2.73,0 4.91,2.19 4.91,4.93c0,2.75 -2.18,4.94 -4.91,4.94c-2.72,0 -4.911,-2.19 -4.911,-4.94c0,-2.74 2.191,-4.93 4.911,-4.93zM6.2249,0.8235c0.286,0 0.56,0.03 0.827,0.08c0.035,0.01 0.076,0.03 0.097,0.06c0.024,0.04 0.006,0.1 -0.019,0.13c-0.791,1.12 -1.247,2.48 -1.247,3.93c0,1.4 0.417,2.7 1.148,3.79c0.076,0.11 0.009,0.26 -0.124,0.28c-0.184,0.03 -0.372,0.05 -0.564,0.05c-1.917,0.06 -3.637,-1.19 -4.112,-3.05c-0.706,-2.78 1.361,-5.27 3.994,-5.27zM19.4429,0.8235c2.63,0 4.7,2.49 3.99,5.27c-0.47,1.86 -2.19,3.11 -4.11,3.05c-0.19,0 -0.38,-0.02 -0.56,-0.05c-0.14,-0.02 -0.2,-0.17 -0.13,-0.28c0.73,-1.09 1.15,-2.39 1.15,-3.79c0,-1.45 -0.46,-2.81 -1.25,-3.93c-0.02,-0.03 -0.04,-0.09 -0.02,-0.13c0.03,-0.03 0.06,-0.05 0.1,-0.06c0.27,-0.05 0.54,-0.08 0.83,-0.08z" fill="currentColor"/></svg>