<svg viewBox="0 0 24 24" fill="none" xmlns="http://www.w3.org/2000/svg" x="0" y="0"><g id="Setting_alt_line">
<path id="Star 2" d="M3.0817,13.945c-0.5287,-0.951 -0.7931,-1.426 -0.7931,-1.945c0,-0.519 0.2644,-0.994 0.7931,-1.945l1.3492,-2.425l1.426,-2.381c0.5587,-0.933 0.8381,-1.4 1.2874,-1.659c0.4493,-0.26 0.9931,-0.268 2.0805,-0.286l2.7752,-0.044l2.7752,0.044c1.0874,0.018 1.6312,0.026 2.0805,0.286c0.4493,0.259 0.7287,0.726 1.2874,1.659l1.426,2.381l1.3492,2.425c0.5287,0.951 0.7931,1.426 0.7931,1.945c0,0.519 -0.2644,0.994 -0.7931,1.945l-1.3492,2.425l-1.426,2.381c-0.5587,0.933 -0.8381,1.4 -1.2874,1.659c-0.4493,0.26 -0.9931,0.268 -2.0805,0.286l-2.7752,0.044l-2.7752,-0.044c-1.0874,-0.018 -1.6312,-0.026 -2.0805,-0.286c-0.4493,-0.259 -0.7287,-0.726 -1.2874,-1.659l-1.426,-2.381z" stroke="#CCD2E3" stroke-width="2"/>
<circle id="Ellipse 5" cx="12" cy="12" r="3" stroke="#48B4E9" stroke-width="2"/>
</g></svg>