<svg viewBox="0 0 23.7031 28" fill="none" xmlns="http://www.w3.org/2000/svg" x="0" y="0"><g id="Group 175">
<ellipse id="Ellipse 109" cx="11.851999999999975" cy="14" rx="11.8515" ry="14" fill="#E6F3FF"/>
<g id="ic:round-insert-emoticon">
<path id="Vector_5" d="M11.844,5.667c-3.894,0 -7.047,3.733 -7.047,8.333c0,4.6 3.153,8.333 7.047,8.333c3.901,0 7.062,-3.733 7.062,-8.333c0,-4.6 -3.161,-8.333 -7.062,-8.333zM9.382,10.667c0.586,0 1.058,0.558 1.058,1.25c0,0.691 -0.472,1.25 -1.058,1.25c-0.585,0 -1.058,-0.559 -1.058,-1.25c0,-0.692 0.473,-1.25 1.058,-1.25zM15.202,16.292c-0.67,1.366 -1.919,2.291 -3.351,2.291c-1.432,0 -2.681,-0.925 -3.351,-2.291c-0.134,-0.275 0.043,-0.625 0.311,-0.625h6.081c0.275,0 0.444,0.35 0.31,0.625zM14.32,13.167c-0.585,0 -1.058,-0.559 -1.058,-1.25c0,-0.692 0.473,-1.25 1.058,-1.25c0.586,0 1.058,0.558 1.058,1.25c0,0.691 -0.472,1.25 -1.058,1.25z" fill="#017EFA"/>
</g>
</g></svg>