<svg viewBox="0 0 34 30.6141" fill="none" xmlns="http://www.w3.org/2000/svg" x="0" y="0"><g id="Group 136_2">
<ellipse id="Ellipse 67_2" cx="17" cy="15.307000000000016" rx="17" ry="15.3071" fill="#017EFA"/>
<g id="Pipe_2">
<path id="Subtract_3" d="M18.44,8.915c1.02,0.052 2.03,0.282 2.97,0.686c1.39,0.595 2.57,1.547 3.39,2.752c0.82,1.207 1.24,2.614 1.2,4.049c-0.04,1.435 -0.55,2.817 -1.44,3.981c-0.88,1.163 -2.11,2.056 -3.53,2.584c-1.42,0.528 -2.97,0.675 -4.47,0.425c-1.5,-0.25 -2.9,-0.888 -4.02,-1.85c-0.42,-0.355 -0.79,-0.75 -1.12,-1.176l2.21,-0.533c0.07,0.064 0.13,0.128 0.2,0.189c0.84,0.714 1.9,1.204 3.06,1.397c1.16,0.193 2.36,0.079 3.44,-0.326c1.08,-0.404 2,-1.077 2.64,-1.923c0.65,-0.844 1,-1.826 1.03,-2.827c0.03,-1 -0.27,-1.995 -0.86,-2.865c-0.59,-0.872 -1.46,-1.586 -2.52,-2.04c-0.5,-0.214 -1.02,-0.363 -1.57,-0.448z" fill="white"/>
<path id="Ellipse 52_2" d="M11.91,9.064c0.79,-0.545 1.66,-0.979 2.59,-1.291c0.41,-0.137 0.61,-0.206 0.8,-0.108c0.19,0.098 0.25,0.317 0.38,0.754l2.02,6.778c0.14,0.474 0.21,0.711 0.1,0.897c-0.1,0.187 -0.34,0.245 -0.82,0.361l-7.72,1.86c-0.44,0.108 -0.67,0.162 -0.85,0.043c-0.18,-0.119 -0.21,-0.327 -0.29,-0.743c-0.15,-0.853 -0.16,-1.723 -0.03,-2.583c0.17,-1.172 0.59,-2.303 1.25,-3.327c0.66,-1.024 1.53,-1.921 2.57,-2.641z" stroke="white" stroke-width="2"/>
</g>
</g></svg>