<svg viewBox="0 0 28.2278 30.6594" fill="none" xmlns="http://www.w3.org/2000/svg" x="0" y="0"><g id="Group 136_3">
<ellipse id="Ellipse 67_3" cx="14.113999999999976" cy="15.330200000000104" rx="14.1139" ry="15.3297" fill="#017EFA"/>
<g id="Pipe_3">
<path id="Subtract_4" d="M15.727,8.9692c0.754,0.094 1.492,0.321 2.181,0.679c1.194,0.619 2.186,1.593 2.863,2.795c0.678,1.2 1.017,2.582 0.983,3.978c-0.034,1.396 -0.44,2.758 -1.175,3.92c-0.736,1.163 -1.775,2.082 -2.999,2.633c-1.226,0.552 -2.577,0.708 -3.889,0.445c-1.31,-0.263 -2.511,-0.931 -3.462,-1.909c-0.314,-0.324 -0.596,-0.679 -0.845,-1.057l2.046,-0.595c0.075,0.089 0.153,0.175 0.234,0.258c0.68,0.7 1.523,1.162 2.421,1.342c0.897,0.18 1.826,0.075 2.675,-0.307c0.85,-0.383 1.593,-1.032 2.13,-1.879c0.536,-0.849 0.839,-1.856 0.864,-2.9c0.025,-1.043 -0.229,-2.067 -0.725,-2.947c-0.495,-0.879 -1.208,-1.57 -2.041,-2.002c-0.236,-0.122 -0.481,-0.221 -0.729,-0.299z" fill="white"/>
<path id="Ellipse 52_3" d="M9.89,9.0772c0.591,-0.493 1.24,-0.896 1.927,-1.199c0.42,-0.186 0.63,-0.278 0.839,-0.176c0.209,0.103 0.269,0.346 0.389,0.831l1.669,6.767c0.109,0.44 0.163,0.661 0.063,0.835c-0.1,0.174 -0.318,0.237 -0.754,0.364l-6.098,1.775c-0.478,0.139 -0.717,0.209 -0.909,0.084c-0.193,-0.125 -0.224,-0.356 -0.286,-0.816c-0.111,-0.823 -0.117,-1.66 -0.017,-2.488c0.142,-1.174 0.496,-2.306 1.041,-3.332c0.545,-1.025 1.271,-1.924 2.136,-2.645z" stroke="white" stroke-width="2"/>
</g>
</g></svg>