<svg width="186" height="510" viewBox="0 0 186 510" fill="none" xmlns="http://www.w3.org/2000/svg">
<g filter="url(#filter0_dd_16_85)">
<path d="M-4.19812 499.861C-4.4966 500.327 -4.36021 500.943 -3.89349 501.236C-3.42676 501.53 -2.80643 501.391 -2.50795 500.926L-3.35303 500.393L-4.19812 499.861ZM62.4669 220.552L62.9826 221.404V221.404L62.4669 220.552ZM181.535 0.946909C181.51 0.397042 181.042 -0.0263142 180.488 0.00128358L171.469 0.451501C170.916 0.479099 170.487 0.947261 170.511 1.49713C170.536 2.04699 171.004 2.47035 171.558 2.4427L179.575 2.04253L179.93 10.0074C179.955 10.5573 180.423 10.9806 180.977 10.953C181.53 10.9254 181.959 10.4572 181.934 9.90737L181.535 0.946909ZM-3.35303 500.393L-2.50795 500.926C39.281 435.745 92.761 343.472 117.297 278.582C123.433 262.356 127.775 247.8 129.663 235.785C131.544 223.821 131.029 214.157 127.189 207.898C125.247 204.733 122.469 202.464 118.803 201.231C115.158 200.006 110.692 199.821 105.371 200.708C94.7471 202.478 80.4718 208.561 61.9513 219.7L62.4669 220.552L62.9826 221.404C81.4382 210.304 95.4496 204.38 105.691 202.674C110.803 201.822 114.914 202.032 118.15 203.12C121.364 204.201 123.77 206.166 125.474 208.943C128.924 214.566 129.548 223.613 127.681 235.488C125.823 247.312 121.533 261.723 115.42 277.89C90.962 342.573 37.5798 434.698 -4.19812 499.861L-3.35303 500.393ZM62.4669 220.552L61.9513 219.7C43.4793 230.809 29.9674 237.387 20.6448 240.226C15.9762 241.648 12.4514 242.102 9.9195 241.78C7.43927 241.466 5.98413 240.426 5.2224 238.843C4.42176 237.179 4.29433 234.73 4.95587 231.442C5.61267 228.177 7.01912 224.222 9.11304 219.652C13.2993 210.515 20.1644 199.068 28.9985 186.028C64.3356 133.867 130.784 56.787 181.273 1.66553L180.533 0.996908L179.793 0.328286C129.299 55.4555 62.7627 132.629 27.3363 184.922C18.4795 197.995 11.5426 209.549 7.28798 218.835C5.16145 223.476 3.68772 227.588 2.98865 231.062C2.29433 234.513 2.33535 237.475 3.41149 239.712C4.52655 242.029 6.65654 243.378 9.65381 243.758C12.5994 244.132 16.4446 243.587 21.2222 242.132C30.7922 239.218 44.4785 232.533 62.9826 221.404L62.4669 220.552Z" fill="white" fill-opacity="0.4"/>
</g>
<defs>
<filter id="filter0_dd_16_85" x="-8.35632" y="0" width="194.292" height="509.39" filterUnits="userSpaceOnUse" color-interpolation-filters="sRGB">
<feFlood flood-opacity="0" result="BackgroundImageFix"/>
<feColorMatrix in="SourceAlpha" type="matrix" values="0 0 0 0 0 0 0 0 0 0 0 0 0 0 0 0 0 0 127 0" result="hardAlpha"/>
<feOffset dy="4"/>
<feGaussianBlur stdDeviation="2"/>
<feComposite in2="hardAlpha" operator="out"/>
<feColorMatrix type="matrix" values="0 0 0 0 0 0 0 0 0 0 0 0 0 0 0 0 0 0 0.25 0"/>
<feBlend mode="normal" in2="BackgroundImageFix" result="effect1_dropShadow_16_85"/>
<feColorMatrix in="SourceAlpha" type="matrix" values="0 0 0 0 0 0 0 0 0 0 0 0 0 0 0 0 0 0 127 0" result="hardAlpha"/>
<feOffset dy="4"/>
<feGaussianBlur stdDeviation="2"/>
<feComposite in2="hardAlpha" operator="out"/>
<feColorMatrix type="matrix" values="0 0 0 0 0 0 0 0 0 0 0 0 0 0 0 0 0 0 0.25 0"/>
<feBlend mode="normal" in2="effect1_dropShadow_16_85" result="effect2_dropShadow_16_85"/>
<feBlend mode="normal" in="SourceGraphic" in2="effect2_dropShadow_16_85" result="shape"/>
</filter>
</defs>
</svg>
