<svg viewBox="0 0 60 60" fill="none" xmlns="http://www.w3.org/2000/svg" xmlns:xlink="http://www.w3.org/1999/xlink" x="0" y="0"><g id="Group 17_2">
<circle id="Ellipse 5_2" cx="30" cy="30" r="30" fill="#5C4EF7"/>
<g id="fi:gift">
<path id="Vector_8" d="M38,30v10h-16v-10" stroke="white" stroke-width="2" stroke-linecap="round" stroke-linejoin="round"/>
<path id="Vector_9" d="M40,25h-20v5h20z" stroke="white" stroke-width="2" stroke-linecap="round" stroke-linejoin="round"/>
<path id="Vector_10" d="M30,40v-15" stroke="white" stroke-width="2" stroke-linecap="round" stroke-linejoin="round"/>
<path id="Vector_11" d="M30,25h4.5c0.663,0 1.299,-0.26 1.768,-0.73c0.469,-0.47 0.732,-1.11 0.732,-1.77c0,-0.66 -0.263,-1.3 -0.732,-1.77c-0.469,-0.47 -1.105,-0.73 -1.768,-0.73c-3.5,0 -4.5,5 -4.5,5z" stroke="white" stroke-width="2" stroke-linecap="round" stroke-linejoin="round"/>
<path id="Vector_12" d="M30,25h-4.5c-0.663,0 -1.299,-0.26 -1.768,-0.73c-0.469,-0.47 -0.732,-1.11 -0.732,-1.77c0,-0.66 0.263,-1.3 0.732,-1.77c0.469,-0.47 1.105,-0.73 1.768,-0.73c3.5,0 4.5,5 4.5,5z" stroke="white" stroke-width="2" stroke-linecap="round" stroke-linejoin="round"/>
</g>
</g></svg>