<svg width="28" height="28" viewBox="0 0 28 28" fill="none" xmlns="http://www.w3.org/2000/svg">
<g id="Iconly/Bold/3 User">
<g id="3 User">
<path id="3 Friends" d="M13.9406 16.9624C17.9436 16.9624 21.3615 17.5977 21.3615 20.1372C21.3612 22.6755 17.9654 23.3335 13.9406 23.3335C9.9375 23.3335 6.51965 22.6982 6.51965 20.1597C6.51997 17.6204 9.91575 16.9624 13.9406 16.9624ZM7.66028 15.4341C7.68299 15.4374 7.69433 15.454 7.69641 15.4634C7.69954 15.4791 7.69335 15.5022 7.66418 15.519C6.95594 15.871 4.22208 17.4018 4.56555 20.6294C4.58018 20.7702 4.46914 20.8906 4.3302 20.8706C3.65718 20.7739 1.92661 20.3989 1.38977 19.2339C1.09232 18.6173 1.09227 17.9032 1.38977 17.2866C1.74076 16.5354 2.58714 16.0184 3.87512 15.7642C4.48415 15.616 6.12884 15.4057 7.66028 15.4341ZM20.3409 15.4331C21.8713 15.4047 23.5171 15.615 24.1251 15.7642C25.4127 16.0174 26.2594 16.5347 26.6105 17.2856C26.9072 17.9024 26.9072 18.6182 26.6105 19.2339C26.0735 20.399 24.3428 20.773 23.67 20.8696C23.5312 20.8905 23.4192 20.77 23.4337 20.6304C23.7773 17.4021 21.0448 15.8714 20.337 15.519C20.3069 15.5034 20.3008 15.4791 20.3038 15.4644C20.3059 15.4538 20.318 15.4363 20.3409 15.4331ZM13.9406 4.6665C16.666 4.6665 18.8517 6.86263 18.8517 9.60498C18.8516 12.3462 16.666 14.5444 13.9406 14.5444C11.2151 14.5444 9.0295 12.3462 9.02942 9.60498C9.02942 6.86263 11.2151 4.66651 13.9406 4.6665ZM7.39172 5.48975C7.67778 5.48975 7.9516 5.52013 8.21887 5.57471C8.25429 5.58309 8.29461 5.60097 8.31555 5.63232C8.33957 5.67224 8.32206 5.72656 8.297 5.76123C7.50621 6.87603 7.04993 8.23547 7.04993 9.69385C7.04994 11.0912 7.46719 12.3929 8.19836 13.4751C8.27354 13.5864 8.20688 13.737 8.07434 13.7603C7.89048 13.7928 7.7021 13.8097 7.50989 13.8149C5.59315 13.8653 3.87301 12.6243 3.39758 10.7563C2.69247 7.98151 4.75935 5.48989 7.39172 5.48975ZM20.6075 5.48975C23.2399 5.48986 25.3067 7.98149 24.6027 10.7563C24.1273 12.6244 22.4072 13.8654 20.4904 13.8149C20.2981 13.8097 20.1087 13.7918 19.9259 13.7603C19.7935 13.7369 19.7267 13.5864 19.8019 13.4751C20.533 12.3929 20.9503 11.0912 20.9503 9.69385C20.9503 8.23563 20.4949 6.87595 19.7042 5.76123C19.6792 5.72666 19.6599 5.67319 19.6847 5.6333C19.7056 5.60073 19.7448 5.58311 19.7814 5.57471C20.0476 5.52012 20.3215 5.48975 20.6075 5.48975Z" fill="#FFCF00"/>
</g>
</g>
</svg>
