<svg width="28" height="28" viewBox="0 0 28 28" fill="none" xmlns="http://www.w3.org/2000/svg">
<g id="Iconly/Bold/Chart">
<g id="Chart">
<path id="Chart_2" fill-rule="evenodd" clip-rule="evenodd" d="M8.5522 2.33386H19.4477C23.4155 2.33386 25.6555 4.58436 25.6672 8.5522V19.4489C25.6672 23.4155 23.4155 25.6672 19.4477 25.6672H8.5522C4.58436 25.6672 2.33386 23.4155 2.33386 19.4489V8.5522C2.33386 4.58436 4.58436 2.33386 8.5522 2.33386ZM14.0577 20.8372C14.5605 20.8372 14.9793 20.4639 15.026 19.9622V8.07385C15.0727 7.71219 14.8988 7.34935 14.5838 7.15219C14.256 6.95385 13.8593 6.95385 13.5455 7.15219C13.2293 7.34935 13.0555 7.71219 13.0893 8.07385V19.9622C13.1488 20.4639 13.5677 20.8372 14.0577 20.8372ZM19.4255 20.8372C19.9155 20.8372 20.3343 20.4639 20.3938 19.9622V16.1355C20.4277 15.761 20.2538 15.4122 19.9377 15.2139C19.6238 15.0155 19.2272 15.0155 18.9005 15.2139C18.5843 15.4122 18.4105 15.761 18.4572 16.1355V19.9622C18.5038 20.4639 18.9227 20.8372 19.4255 20.8372ZM9.58936 19.9622C9.54269 20.4639 9.12386 20.8372 8.62102 20.8372C8.11936 20.8372 7.69936 20.4639 7.65386 19.9622V11.9006C7.61886 11.5377 7.79269 11.1772 8.10886 10.9789C8.42269 10.7806 8.82052 10.7806 9.13552 10.9789C9.44936 11.1772 9.62552 11.5377 9.58936 11.9006V19.9622Z" fill="#FEAD86"/>
</g>
</g>
</svg>
