<svg width="24" height="23" viewBox="0 0 24 23" fill="none" xmlns="http://www.w3.org/2000/svg">
<g id="Iconly/Bold/Document">
<g id="Document">
<path id="Document_2" fill-rule="evenodd" clip-rule="evenodd" d="M7.81 1.84839H16.191C19.28 1.84839 21 3.49346 21 6.31227V15.8592C21 18.7243 19.28 20.3324 16.191 20.3324H7.81C4.77 20.3324 3 18.7243 3 15.8592V6.31227C3 3.49346 4.77 1.84839 7.81 1.84839ZM8.07995 6.15521V6.14597H11.0689C11.4999 6.14597 11.8499 6.46944 11.8499 6.86592C11.8499 7.27349 11.4999 7.59696 11.0689 7.59696H8.07995C7.64895 7.59696 7.29995 7.27349 7.29995 6.87609C7.29995 6.47868 7.64895 6.15521 8.07995 6.15521ZM8.07995 11.7744H15.9199C16.3499 11.7744 16.6999 11.4509 16.6999 11.0535C16.6999 10.6561 16.3499 10.3317 15.9199 10.3317H8.07995C7.64895 10.3317 7.29995 10.6561 7.29995 11.0535C7.29995 11.4509 7.64895 11.7744 8.07995 11.7744ZM8.07997 15.9979H15.92C16.319 15.9609 16.62 15.6458 16.62 15.277C16.62 14.8981 16.319 14.5839 15.92 14.5469H8.07997C7.77997 14.5192 7.48997 14.6486 7.32997 14.8889C7.16997 15.1199 7.16997 15.4249 7.32997 15.6652C7.48997 15.8963 7.77997 16.0349 8.07997 15.9979Z" fill="#4DBCFE"/>
</g>
</g>
</svg>
