<svg width="24" height="23" viewBox="0 0 24 23" fill="none" xmlns="http://www.w3.org/2000/svg">
<g id="Iconly/Bold/Search">
<g id="Search">
<path id="Search_2" d="M17.6211 16.3162C18.0076 15.9615 18.6272 15.9614 19.0137 16.3162L21.5684 18.2214H21.6123C22.1291 18.7042 22.1291 19.4877 21.6123 19.9705C21.0956 20.453 20.258 20.4529 19.7412 19.9705L17.6211 17.7244C17.4207 17.5378 17.3076 17.2846 17.3076 17.0203C17.3076 16.756 17.4207 16.5027 17.6211 16.3162ZM10.5781 1.84839C12.8527 1.84851 15.0341 2.69267 16.6426 4.19507C18.2512 5.69774 19.1553 7.73599 19.1553 9.86108C19.1553 14.2862 15.3152 17.8735 10.5781 17.8738C5.84083 17.8738 2 14.2864 2 9.86108C2.00002 5.43579 5.84084 1.84839 10.5781 1.84839Z" fill="#6E9CFD"/>
</g>
</g>
</svg>
