<svg width="204" height="157" viewBox="0 0 204 157" fill="none" xmlns="http://www.w3.org/2000/svg">
<rect y="32" width="204" height="125" rx="8" fill="#1B2B65"/>
<g filter="url(#filter0_d_2_3327)">
<circle cx="102" cy="32" r="20" fill="#AABBFA"/>
</g>
<rect x="19" y="100" width="166" height="40" rx="6" fill="#017EFA"/>
<path d="M51.504 124L50.706 121.802H46.296L45.498 124H44.112L47.766 114.2H49.236L52.89 124H51.504ZM46.744 120.584H50.258L48.494 115.754L46.744 120.584ZM59.552 114.2H60.77V124H59.552V122.796C58.9454 123.72 58.0634 124.182 56.906 124.182C55.926 124.182 55.0907 123.827 54.4 123.118C53.7094 122.399 53.364 121.527 53.364 120.5C53.364 119.473 53.7094 118.605 54.4 117.896C55.0907 117.177 55.926 116.818 56.906 116.818C58.0634 116.818 58.9454 117.28 59.552 118.204V114.2ZM57.06 123.006C57.7694 123.006 58.362 122.768 58.838 122.292C59.314 121.807 59.552 121.209 59.552 120.5C59.552 119.791 59.314 119.198 58.838 118.722C58.362 118.237 57.7694 117.994 57.06 117.994C56.36 117.994 55.772 118.237 55.296 118.722C54.82 119.198 54.582 119.791 54.582 120.5C54.582 121.209 54.82 121.807 55.296 122.292C55.772 122.768 56.36 123.006 57.06 123.006ZM68.4114 114.2H69.6294V124H68.4114V122.796C67.8047 123.72 66.9227 124.182 65.7654 124.182C64.7854 124.182 63.9501 123.827 63.2594 123.118C62.5687 122.399 62.2234 121.527 62.2234 120.5C62.2234 119.473 62.5687 118.605 63.2594 117.896C63.9501 117.177 64.7854 116.818 65.7654 116.818C66.9227 116.818 67.8047 117.28 68.4114 118.204V114.2ZM65.9194 123.006C66.6287 123.006 67.2214 122.768 67.6974 122.292C68.1734 121.807 68.4114 121.209 68.4114 120.5C68.4114 119.791 68.1734 119.198 67.6974 118.722C67.2214 118.237 66.6287 117.994 65.9194 117.994C65.2194 117.994 64.6314 118.237 64.1554 118.722C63.6794 119.198 63.4414 119.791 63.4414 120.5C63.4414 121.209 63.6794 121.807 64.1554 122.292C64.6314 122.768 65.2194 123.006 65.9194 123.006ZM81.1908 114.2H82.4928V124H81.4428L76.4028 116.678V124H75.1008V114.2H76.1508L81.1908 121.508V114.2ZM85.3171 121.06C85.4384 121.685 85.7231 122.171 86.1711 122.516C86.6284 122.861 87.1884 123.034 87.8511 123.034C88.7751 123.034 89.4471 122.693 89.8671 122.012L90.9031 122.6C90.2217 123.655 89.1951 124.182 87.8231 124.182C86.7124 124.182 85.8071 123.837 85.1071 123.146C84.4164 122.446 84.0711 121.564 84.0711 120.5C84.0711 119.445 84.4117 118.568 85.0931 117.868C85.7744 117.168 86.6564 116.818 87.7391 116.818C88.7657 116.818 89.6011 117.182 90.2451 117.91C90.8984 118.629 91.2251 119.497 91.2251 120.514C91.2251 120.691 91.2111 120.873 91.1831 121.06H85.3171ZM87.7391 117.966C87.0857 117.966 86.5444 118.153 86.1151 118.526C85.6857 118.89 85.4197 119.38 85.3171 119.996H89.9931C89.8904 119.333 89.6291 118.829 89.2091 118.484C88.7891 118.139 88.2991 117.966 87.7391 117.966ZM100.598 117H101.872L99.7017 124H98.4557L96.8177 118.82L95.1797 124H93.9337L91.7637 117H93.0377L94.5777 122.32L96.2297 117H97.4057L99.0577 122.334L100.598 117ZM108.053 122.768H112.603V124H106.751V114.2H112.533V115.432H108.053V118.442H112.183V119.66H108.053V122.768ZM120.125 124H118.697L116.737 121.354L114.763 124H113.335L116.023 120.402L113.489 117H114.931L116.737 119.436L118.543 117H119.971L117.451 120.388L120.125 124ZM125.118 116.818C126.098 116.818 126.933 117.177 127.624 117.896C128.315 118.605 128.66 119.473 128.66 120.5C128.66 121.527 128.315 122.399 127.624 123.118C126.933 123.827 126.098 124.182 125.118 124.182C123.961 124.182 123.079 123.72 122.472 122.796V126.8H121.254V117H122.472V118.204C123.079 117.28 123.961 116.818 125.118 116.818ZM124.964 123.006C125.664 123.006 126.252 122.768 126.728 122.292C127.204 121.807 127.442 121.209 127.442 120.5C127.442 119.791 127.204 119.198 126.728 118.722C126.252 118.237 125.664 117.994 124.964 117.994C124.255 117.994 123.662 118.237 123.186 118.722C122.71 119.198 122.472 119.791 122.472 120.5C122.472 121.209 122.71 121.807 123.186 122.292C123.662 122.768 124.255 123.006 124.964 123.006ZM130.967 121.06C131.089 121.685 131.373 122.171 131.821 122.516C132.279 122.861 132.839 123.034 133.501 123.034C134.425 123.034 135.097 122.693 135.517 122.012L136.553 122.6C135.872 123.655 134.845 124.182 133.473 124.182C132.363 124.182 131.457 123.837 130.757 123.146C130.067 122.446 129.721 121.564 129.721 120.5C129.721 119.445 130.062 118.568 130.743 117.868C131.425 117.168 132.307 116.818 133.389 116.818C134.416 116.818 135.251 117.182 135.895 117.91C136.549 118.629 136.875 119.497 136.875 120.514C136.875 120.691 136.861 120.873 136.833 121.06H130.967ZM133.389 117.966C132.736 117.966 132.195 118.153 131.765 118.526C131.336 118.89 131.07 119.38 130.967 119.996H135.643C135.541 119.333 135.279 118.829 134.859 118.484C134.439 118.139 133.949 117.966 133.389 117.966ZM141.762 116.818C142.583 116.818 143.241 117.079 143.736 117.602C144.23 118.115 144.478 118.815 144.478 119.702V124H143.26V119.772C143.26 119.203 143.106 118.764 142.798 118.456C142.49 118.139 142.065 117.98 141.524 117.98C140.917 117.98 140.427 118.171 140.054 118.554C139.68 118.927 139.494 119.506 139.494 120.29V124H138.276V117H139.494V118.008C139.988 117.215 140.744 116.818 141.762 116.818ZM147.228 118.89C147.228 119.161 147.363 119.38 147.634 119.548C147.905 119.707 148.231 119.837 148.614 119.94C148.997 120.033 149.379 120.145 149.762 120.276C150.145 120.397 150.471 120.612 150.742 120.92C151.013 121.219 151.148 121.606 151.148 122.082C151.148 122.717 150.901 123.225 150.406 123.608C149.921 123.991 149.295 124.182 148.53 124.182C147.849 124.182 147.265 124.033 146.78 123.734C146.295 123.435 145.949 123.039 145.744 122.544L146.794 121.942C146.906 122.278 147.116 122.544 147.424 122.74C147.732 122.936 148.101 123.034 148.53 123.034C148.931 123.034 149.263 122.959 149.524 122.81C149.785 122.651 149.916 122.409 149.916 122.082C149.916 121.811 149.781 121.597 149.51 121.438C149.239 121.27 148.913 121.139 148.53 121.046C148.147 120.943 147.765 120.827 147.382 120.696C146.999 120.565 146.673 120.351 146.402 120.052C146.131 119.753 145.996 119.371 145.996 118.904C145.996 118.297 146.229 117.798 146.696 117.406C147.172 117.014 147.765 116.818 148.474 116.818C149.043 116.818 149.547 116.949 149.986 117.21C150.434 117.462 150.77 117.817 150.994 118.274L149.972 118.848C149.72 118.251 149.221 117.952 148.474 117.952C148.129 117.952 147.835 118.036 147.592 118.204C147.349 118.363 147.228 118.591 147.228 118.89ZM153.253 121.06C153.374 121.685 153.659 122.171 154.107 122.516C154.564 122.861 155.124 123.034 155.787 123.034C156.711 123.034 157.383 122.693 157.803 122.012L158.839 122.6C158.157 123.655 157.131 124.182 155.759 124.182C154.648 124.182 153.743 123.837 153.043 123.146C152.352 122.446 152.007 121.564 152.007 120.5C152.007 119.445 152.347 118.568 153.029 117.868C153.71 117.168 154.592 116.818 155.675 116.818C156.701 116.818 157.537 117.182 158.181 117.91C158.834 118.629 159.161 119.497 159.161 120.514C159.161 120.691 159.147 120.873 159.119 121.06H153.253ZM155.675 117.966C155.021 117.966 154.48 118.153 154.051 118.526C153.621 118.89 153.355 119.38 153.253 119.996H157.929C157.826 119.333 157.565 118.829 157.145 118.484C156.725 118.139 156.235 117.966 155.675 117.966Z" fill="white"/>
<path d="M73.352 74.768H77.902V76H72.05V66.2H77.832V67.432H73.352V70.442H77.482V71.66H73.352V74.768ZM85.4238 76H83.9958L82.0358 73.354L80.0618 76H78.6338L81.3218 72.402L78.7878 69H80.2298L82.0358 71.436L83.8418 69H85.2698L82.7498 72.388L85.4238 76ZM90.4169 68.818C91.3969 68.818 92.2322 69.1773 92.9229 69.896C93.6136 70.6053 93.9589 71.4733 93.9589 72.5C93.9589 73.5267 93.6136 74.3993 92.9229 75.118C92.2322 75.8273 91.3969 76.182 90.4169 76.182C89.2596 76.182 88.3776 75.72 87.7709 74.796V78.8H86.5529V69H87.7709V70.204C88.3776 69.28 89.2596 68.818 90.4169 68.818ZM90.2629 75.006C90.9629 75.006 91.5509 74.768 92.0269 74.292C92.5029 73.8067 92.7409 73.2093 92.7409 72.5C92.7409 71.7907 92.5029 71.198 92.0269 70.722C91.5509 70.2367 90.9629 69.994 90.2629 69.994C89.5536 69.994 88.9609 70.2367 88.4849 70.722C88.0089 71.198 87.7709 71.7907 87.7709 72.5C87.7709 73.2093 88.0089 73.8067 88.4849 74.292C88.9609 74.768 89.5536 75.006 90.2629 75.006ZM96.2663 73.06C96.3876 73.6853 96.6723 74.1707 97.1203 74.516C97.5776 74.8613 98.1376 75.034 98.8003 75.034C99.7243 75.034 100.396 74.6933 100.816 74.012L101.852 74.6C101.171 75.6547 100.144 76.182 98.7723 76.182C97.6616 76.182 96.7563 75.8367 96.0563 75.146C95.3656 74.446 95.0203 73.564 95.0203 72.5C95.0203 71.4453 95.3609 70.568 96.0423 69.868C96.7236 69.168 97.6056 68.818 98.6883 68.818C99.7149 68.818 100.55 69.182 101.194 69.91C101.848 70.6287 102.174 71.4967 102.174 72.514C102.174 72.6913 102.16 72.8733 102.132 73.06H96.2663ZM98.6883 69.966C98.0349 69.966 97.4936 70.1527 97.0643 70.526C96.6349 70.89 96.3689 71.38 96.2663 71.996H100.942C100.84 71.3333 100.578 70.8293 100.158 70.484C99.7383 70.1387 99.2483 69.966 98.6883 69.966ZM107.06 68.818C107.882 68.818 108.54 69.0793 109.034 69.602C109.529 70.1153 109.776 70.8153 109.776 71.702V76H108.558V71.772C108.558 71.2027 108.404 70.764 108.096 70.456C107.788 70.1387 107.364 69.98 106.822 69.98C106.216 69.98 105.726 70.1713 105.352 70.554C104.979 70.9273 104.792 71.506 104.792 72.29V76H103.574V69H104.792V70.008C105.287 69.2147 106.043 68.818 107.06 68.818ZM112.527 70.89C112.527 71.1607 112.662 71.38 112.933 71.548C113.203 71.7067 113.53 71.8373 113.913 71.94C114.295 72.0333 114.678 72.1453 115.061 72.276C115.443 72.3973 115.77 72.612 116.041 72.92C116.311 73.2187 116.447 73.606 116.447 74.082C116.447 74.7167 116.199 75.2253 115.705 75.608C115.219 75.9907 114.594 76.182 113.829 76.182C113.147 76.182 112.564 76.0327 112.079 75.734C111.593 75.4353 111.248 75.0387 111.043 74.544L112.093 73.942C112.205 74.278 112.415 74.544 112.723 74.74C113.031 74.936 113.399 75.034 113.829 75.034C114.23 75.034 114.561 74.9593 114.823 74.81C115.084 74.6513 115.215 74.4087 115.215 74.082C115.215 73.8113 115.079 73.5967 114.809 73.438C114.538 73.27 114.211 73.1393 113.829 73.046C113.446 72.9433 113.063 72.8267 112.681 72.696C112.298 72.5653 111.971 72.3507 111.701 72.052C111.43 71.7533 111.295 71.3707 111.295 70.904C111.295 70.2973 111.528 69.798 111.995 69.406C112.471 69.014 113.063 68.818 113.773 68.818C114.342 68.818 114.846 68.9487 115.285 69.21C115.733 69.462 116.069 69.8167 116.293 70.274L115.271 70.848C115.019 70.2507 114.519 69.952 113.773 69.952C113.427 69.952 113.133 70.036 112.891 70.204C112.648 70.3627 112.527 70.5913 112.527 70.89ZM118.551 73.06C118.673 73.6853 118.957 74.1707 119.405 74.516C119.863 74.8613 120.423 75.034 121.085 75.034C122.009 75.034 122.681 74.6933 123.101 74.012L124.137 74.6C123.456 75.6547 122.429 76.182 121.057 76.182C119.947 76.182 119.041 75.8367 118.341 75.146C117.651 74.446 117.305 73.564 117.305 72.5C117.305 71.4453 117.646 70.568 118.327 69.868C119.009 69.168 119.891 68.818 120.973 68.818C122 68.818 122.835 69.182 123.479 69.91C124.133 70.6287 124.459 71.4967 124.459 72.514C124.459 72.6913 124.445 72.8733 124.417 73.06H118.551ZM120.973 69.966C120.32 69.966 119.779 70.1527 119.349 70.526C118.92 70.89 118.654 71.38 118.551 71.996H123.227C123.125 71.3333 122.863 70.8293 122.443 70.484C122.023 70.1387 121.533 69.966 120.973 69.966ZM126.636 70.89C126.636 71.1607 126.771 71.38 127.042 71.548C127.313 71.7067 127.639 71.8373 128.022 71.94C128.405 72.0333 128.787 72.1453 129.17 72.276C129.553 72.3973 129.879 72.612 130.15 72.92C130.421 73.2187 130.556 73.606 130.556 74.082C130.556 74.7167 130.309 75.2253 129.814 75.608C129.329 75.9907 128.703 76.182 127.938 76.182C127.257 76.182 126.673 76.0327 126.188 75.734C125.703 75.4353 125.357 75.0387 125.152 74.544L126.202 73.942C126.314 74.278 126.524 74.544 126.832 74.74C127.14 74.936 127.509 75.034 127.938 75.034C128.339 75.034 128.671 74.9593 128.932 74.81C129.193 74.6513 129.324 74.4087 129.324 74.082C129.324 73.8113 129.189 73.5967 128.918 73.438C128.647 73.27 128.321 73.1393 127.938 73.046C127.555 72.9433 127.173 72.8267 126.79 72.696C126.407 72.5653 126.081 72.3507 125.81 72.052C125.539 71.7533 125.404 71.3707 125.404 70.904C125.404 70.2973 125.637 69.798 126.104 69.406C126.58 69.014 127.173 68.818 127.882 68.818C128.451 68.818 128.955 68.9487 129.394 69.21C129.842 69.462 130.178 69.8167 130.402 70.274L129.38 70.848C129.128 70.2507 128.629 69.952 127.882 69.952C127.537 69.952 127.243 70.036 127 70.204C126.757 70.3627 126.636 70.5913 126.636 70.89Z" fill="white"/>
<circle cx="102" cy="33" r="17" fill="#017EFA"/>
<path d="M102 23C96.486 23 92 27.486 92 33C92 38.514 96.486 43 102 43C107.514 43 112 38.514 112 33C112 27.486 107.514 23 102 23ZM102 41C97.589 41 94 37.411 94 33C94 28.589 97.589 25 102 25C106.411 25 110 28.589 110 33C110 37.411 106.411 41 102 41Z" fill="white"/>
<path d="M103 27L97 34H101V39L107 32H103V27Z" fill="white"/>
<defs>
<filter id="filter0_d_2_3327" x="66" y="0" width="72" height="72" filterUnits="userSpaceOnUse" color-interpolation-filters="sRGB">
<feFlood flood-opacity="0" result="BackgroundImageFix"/>
<feColorMatrix in="SourceAlpha" type="matrix" values="0 0 0 0 0 0 0 0 0 0 0 0 0 0 0 0 0 0 127 0" result="hardAlpha"/>
<feOffset dy="4"/>
<feGaussianBlur stdDeviation="8"/>
<feColorMatrix type="matrix" values="0 0 0 0 0 0 0 0 0 0 0 0 0 0 0 0 0 0 0.1 0"/>
<feBlend mode="normal" in2="BackgroundImageFix" result="effect1_dropShadow_2_3327"/>
<feBlend mode="normal" in="SourceGraphic" in2="effect1_dropShadow_2_3327" result="shape"/>
</filter>
</defs>
</svg>
