<svg width="184" height="175" viewBox="0 0 184 175" fill="none" xmlns="http://www.w3.org/2000/svg">
<path d="M91.6069 20.6997C130.336 20.6998 161.733 52.0963 161.733 90.8257C161.733 129.555 130.336 160.952 91.6069 160.952C52.8775 160.952 21.4811 129.555 21.481 90.8257C21.481 52.0962 52.8774 20.6997 91.6069 20.6997Z" stroke="#51CBFF" stroke-width="27.2925"/>
<path d="M162.069 91.0966C162.069 76.3634 157.41 62.0063 148.754 50.0727C140.099 38.1391 127.891 29.2384 113.869 24.6397C99.8484 20.041 84.7309 19.9793 70.6726 24.4632C56.6143 28.9472 44.3332 37.7479 35.5804 49.6104C26.8277 61.4728 22.0503 75.7914 21.9295 90.5241C21.8087 105.257 26.3507 119.652 34.9077 131.655C43.4648 143.659 55.6001 152.66 69.5829 157.373" stroke="#B6E9FF" stroke-width="27.2925"/>
<path d="M162.07 91.128C162.07 79.146 158.973 67.3647 153.074 56.9124C147.176 46.4601 138.674 37.687 128.384 31.4332C118.093 25.1795 106.359 21.6546 94.3033 21.1961C82.248 20.7377 70.2762 23.3611 59.5343 28.8151C48.7924 34.269 39.6404 42.3708 32.9547 52.3446C26.269 62.3183 22.2735 73.8299 21.3511 85.7769C20.4286 97.7238 22.61 109.706 27.6863 120.575" stroke="#017EFA" stroke-width="27.2925"/>
<path opacity="0.15" d="M162.07 91.1281C162.07 79.1461 158.973 67.3648 153.074 56.9125C147.176 46.4602 138.675 37.6871 128.384 31.4333C118.094 25.1796 106.359 21.6547 94.3035 21.1963C82.2483 20.7378 70.2764 23.3612 59.5345 28.8152C48.7927 34.2691 39.6406 42.371 32.9549 52.3447C26.2692 62.3185 22.2738 73.8301 21.3513 85.777C20.4289 97.7239 22.6103 109.706 27.6866 120.576" stroke="#017EFA" stroke-width="42.29"/>
</svg>
