<svg width="107" height="24" viewBox="0 0 107 24" fill="none" xmlns="http://www.w3.org/2000/svg">
<path d="M36.252 15.244C35.5707 15.8693 34.6887 16.182 33.606 16.182C32.5233 16.182 31.6367 15.8693 30.946 15.244C30.2647 14.6093 29.924 13.7647 29.924 12.71V6.2H31.226V12.654C31.226 13.3447 31.4313 13.8953 31.842 14.306C32.2527 14.7073 32.8407 14.908 33.606 14.908C34.3713 14.908 34.9593 14.7073 35.37 14.306C35.7807 13.8953 35.986 13.3447 35.986 12.654V6.2H37.274V12.71C37.274 13.7647 36.9333 14.6093 36.252 15.244ZM42.9468 10.176H41.0848V13.97C41.0848 14.3153 41.1502 14.5627 41.2808 14.712C41.4208 14.852 41.6308 14.9267 41.9108 14.936C42.1908 14.936 42.5362 14.9267 42.9468 14.908V16C41.8828 16.14 41.1035 16.056 40.6088 15.748C40.1142 15.4307 39.8668 14.838 39.8668 13.97V10.176H38.4808V9H39.8668V7.404L41.0848 7.04V9H42.9468V10.176ZM45.0048 7.726C44.7715 7.726 44.5755 7.64667 44.4168 7.488C44.2582 7.32933 44.1788 7.138 44.1788 6.914C44.1788 6.69 44.2582 6.49867 44.4168 6.34C44.5755 6.172 44.7715 6.088 45.0048 6.088C45.2288 6.088 45.4202 6.172 45.5788 6.34C45.7375 6.49867 45.8168 6.69 45.8168 6.914C45.8168 7.138 45.7375 7.32933 45.5788 7.488C45.4202 7.64667 45.2288 7.726 45.0048 7.726ZM44.3888 16V9H45.6068V16H44.3888ZM47.465 16V5.78H48.683V16H47.465ZM51.1572 7.726C50.9239 7.726 50.7279 7.64667 50.5692 7.488C50.4105 7.32933 50.3312 7.138 50.3312 6.914C50.3312 6.69 50.4105 6.49867 50.5692 6.34C50.7279 6.172 50.9239 6.088 51.1572 6.088C51.3812 6.088 51.5725 6.172 51.7312 6.34C51.8899 6.49867 51.9692 6.69 51.9692 6.914C51.9692 7.138 51.8899 7.32933 51.7312 7.488C51.5725 7.64667 51.3812 7.726 51.1572 7.726ZM50.5412 16V9H51.7592V16H50.5412ZM57.4254 10.176H55.5634V13.97C55.5634 14.3153 55.6287 14.5627 55.7594 14.712C55.8994 14.852 56.1094 14.9267 56.3894 14.936C56.6694 14.936 57.0147 14.9267 57.4254 14.908V16C56.3614 16.14 55.582 16.056 55.0874 15.748C54.5927 15.4307 54.3454 14.838 54.3454 13.97V10.176H52.9594V9H54.3454V7.404L55.5634 7.04V9H57.4254V10.176ZM59.4834 7.726C59.25 7.726 59.054 7.64667 58.8954 7.488C58.7367 7.32933 58.6574 7.138 58.6574 6.914C58.6574 6.69 58.7367 6.49867 58.8954 6.34C59.054 6.172 59.25 6.088 59.4834 6.088C59.7074 6.088 59.8987 6.172 60.0574 6.34C60.216 6.49867 60.2954 6.69 60.2954 6.914C60.2954 7.138 60.216 7.32933 60.0574 7.488C59.8987 7.64667 59.7074 7.726 59.4834 7.726ZM58.8674 16V9H60.0854V16H58.8674ZM62.7975 13.06C62.9189 13.6853 63.2035 14.1707 63.6515 14.516C64.1089 14.8613 64.6689 15.034 65.3315 15.034C66.2555 15.034 66.9275 14.6933 67.3475 14.012L68.3835 14.6C67.7022 15.6547 66.6755 16.182 65.3035 16.182C64.1929 16.182 63.2875 15.8367 62.5875 15.146C61.8969 14.446 61.5515 13.564 61.5515 12.5C61.5515 11.4453 61.8922 10.568 62.5735 9.868C63.2549 9.168 64.1369 8.818 65.2195 8.818C66.2462 8.818 67.0815 9.182 67.7255 9.91C68.3789 10.6287 68.7055 11.4967 68.7055 12.514C68.7055 12.6913 68.6915 12.8733 68.6635 13.06H62.7975ZM65.2195 9.966C64.5662 9.966 64.0249 10.1527 63.5955 10.526C63.1662 10.89 62.9002 11.38 62.7975 11.996H67.4735C67.3709 11.3333 67.1095 10.8293 66.6895 10.484C66.2695 10.1387 65.7795 9.966 65.2195 9.966ZM70.8822 10.89C70.8822 11.1607 71.0175 11.38 71.2882 11.548C71.5589 11.7067 71.8855 11.8373 72.2682 11.94C72.6509 12.0333 73.0335 12.1453 73.4162 12.276C73.7989 12.3973 74.1255 12.612 74.3962 12.92C74.6669 13.2187 74.8022 13.606 74.8022 14.082C74.8022 14.7167 74.5549 15.2253 74.0602 15.608C73.5749 15.9907 72.9495 16.182 72.1842 16.182C71.5029 16.182 70.9195 16.0327 70.4342 15.734C69.9489 15.4353 69.6035 15.0387 69.3982 14.544L70.4482 13.942C70.5602 14.278 70.7702 14.544 71.0782 14.74C71.3862 14.936 71.7549 15.034 72.1842 15.034C72.5855 15.034 72.9169 14.9593 73.1782 14.81C73.4395 14.6513 73.5702 14.4087 73.5702 14.082C73.5702 13.8113 73.4349 13.5967 73.1642 13.438C72.8935 13.27 72.5669 13.1393 72.1842 13.046C71.8015 12.9433 71.4189 12.8267 71.0362 12.696C70.6535 12.5653 70.3269 12.3507 70.0562 12.052C69.7855 11.7533 69.6502 11.3707 69.6502 10.904C69.6502 10.2973 69.8835 9.798 70.3502 9.406C70.8262 9.014 71.4189 8.818 72.1282 8.818C72.6975 8.818 73.2015 8.94867 73.6402 9.21C74.0882 9.462 74.4242 9.81667 74.6482 10.274L73.6262 10.848C73.3742 10.2507 72.8749 9.952 72.1282 9.952C71.7829 9.952 71.4889 10.036 71.2462 10.204C71.0035 10.3627 70.8822 10.5913 70.8822 10.89Z" fill="black"/>
<rect x="9" y="6" width="12" height="12" rx="6" fill="#017EFA"/>
<rect x="0.5" y="0.5" width="106" height="23" rx="6.5" stroke="black" stroke-opacity="0.09"/>
</svg>
