<svg width="226" height="66" viewBox="0 0 226 66" fill="none" xmlns="http://www.w3.org/2000/svg">
<circle cx="14" cy="14" r="14" fill="#E6F3FF"/>
<path d="M13.9916 5.66663C9.39163 5.66663 5.66663 9.39996 5.66663 14C5.66663 18.6 9.39163 22.3333 13.9916 22.3333C18.6 22.3333 22.3333 18.6 22.3333 14C22.3333 9.39996 18.6 5.66663 13.9916 5.66663ZM11.0833 10.6666C11.775 10.6666 12.3333 11.225 12.3333 11.9166C12.3333 12.6083 11.775 13.1666 11.0833 13.1666C10.3916 13.1666 9.83329 12.6083 9.83329 11.9166C9.83329 11.225 10.3916 10.6666 11.0833 10.6666ZM17.9583 16.2916C17.1666 17.6583 15.6916 18.5833 14 18.5833C12.3083 18.5833 10.8333 17.6583 10.0416 16.2916C9.88329 16.0166 10.0916 15.6666 10.4083 15.6666H17.5916C17.9166 15.6666 18.1166 16.0166 17.9583 16.2916ZM16.9166 13.1666C16.225 13.1666 15.6666 12.6083 15.6666 11.9166C15.6666 11.225 16.225 10.6666 16.9166 10.6666C17.6083 10.6666 18.1666 11.225 18.1666 11.9166C18.1666 12.6083 17.6083 13.1666 16.9166 13.1666Z" fill="#017EFA"/>
<path d="M41.666 2.2L38.306 8.178V12H36.388V8.178L33.042 2.2H35.226L37.354 6.288L39.482 2.2H41.666ZM47.0908 11.132C46.3721 11.8413 45.4948 12.196 44.4588 12.196C43.4228 12.196 42.5454 11.8413 41.8268 11.132C41.1174 10.4133 40.7628 9.536 40.7628 8.5C40.7628 7.464 41.1174 6.59133 41.8268 5.882C42.5454 5.16333 43.4228 4.804 44.4588 4.804C45.4948 4.804 46.3721 5.16333 47.0908 5.882C47.8094 6.59133 48.1688 7.464 48.1688 8.5C48.1688 9.536 47.8094 10.4133 47.0908 11.132ZM43.1008 9.886C43.4648 10.25 43.9174 10.432 44.4588 10.432C45.0001 10.432 45.4528 10.25 45.8168 9.886C46.1808 9.522 46.3628 9.06 46.3628 8.5C46.3628 7.94 46.1808 7.478 45.8168 7.114C45.4528 6.75 45.0001 6.568 44.4588 6.568C43.9174 6.568 43.4648 6.75 43.1008 7.114C42.7461 7.478 42.5688 7.94 42.5688 8.5C42.5688 9.06 42.7461 9.522 43.1008 9.886ZM54.0593 5H55.8653V12H54.0593V11.216C53.6206 11.8693 52.9253 12.196 51.9733 12.196C51.2079 12.196 50.5733 11.9393 50.0693 11.426C49.5746 10.9127 49.3273 10.2033 49.3273 9.298V5H51.1333V9.074C51.1333 9.54067 51.2593 9.9 51.5113 10.152C51.7633 10.3947 52.0993 10.516 52.5193 10.516C52.9859 10.516 53.3593 10.3713 53.6393 10.082C53.9193 9.79267 54.0593 9.35867 54.0593 8.78V5ZM57.5334 5.42L57.2954 2.2H59.0034L58.7654 5.42H57.5334ZM62.2375 6.204C62.4055 5.756 62.6808 5.42 63.0635 5.196C63.4555 4.972 63.8895 4.86 64.3655 4.86V6.876C63.8148 6.81067 63.3201 6.92267 62.8815 7.212C62.4521 7.50133 62.2375 7.982 62.2375 8.654V12H60.4315V5H62.2375V6.204ZM66.6879 9.242C66.9306 10.1193 67.5886 10.558 68.6619 10.558C69.3526 10.558 69.8753 10.3247 70.2299 9.858L71.6859 10.698C70.9953 11.6967 69.9779 12.196 68.6339 12.196C67.4766 12.196 66.5479 11.846 65.8479 11.146C65.1479 10.446 64.7979 9.564 64.7979 8.5C64.7979 7.44533 65.1433 6.568 65.8339 5.868C66.5246 5.15867 67.4113 4.804 68.4939 4.804C69.5206 4.804 70.3653 5.15867 71.0279 5.868C71.6999 6.57733 72.0359 7.45467 72.0359 8.5C72.0359 8.73333 72.0126 8.98067 71.9659 9.242H66.6879ZM66.6599 7.842H70.2299C70.1273 7.366 69.9126 7.01133 69.5859 6.778C69.2686 6.54467 68.9046 6.428 68.4939 6.428C68.0086 6.428 67.6073 6.554 67.2899 6.806C66.9726 7.04867 66.7626 7.394 66.6599 7.842ZM80.7727 2.2C82.1167 2.2 83.2367 2.67133 84.1327 3.614C85.038 4.55667 85.4907 5.71867 85.4907 7.1C85.4907 8.48133 85.038 9.64333 84.1327 10.586C83.2367 11.5287 82.1167 12 80.7727 12H76.8807V2.2H80.7727ZM80.7727 10.152C81.622 10.152 82.3127 9.872 82.8447 9.312C83.3767 8.74267 83.6427 8.00533 83.6427 7.1C83.6427 6.19467 83.3767 5.462 82.8447 4.902C82.3127 4.33267 81.622 4.048 80.7727 4.048H78.8127V10.152H80.7727ZM92.7412 11.132C92.0225 11.8413 91.1452 12.196 90.1092 12.196C89.0732 12.196 88.1958 11.8413 87.4772 11.132C86.7678 10.4133 86.4132 9.536 86.4132 8.5C86.4132 7.464 86.7678 6.59133 87.4772 5.882C88.1958 5.16333 89.0732 4.804 90.1092 4.804C91.1452 4.804 92.0225 5.16333 92.7412 5.882C93.4598 6.59133 93.8192 7.464 93.8192 8.5C93.8192 9.536 93.4598 10.4133 92.7412 11.132ZM88.7512 9.886C89.1152 10.25 89.5678 10.432 90.1092 10.432C90.6505 10.432 91.1032 10.25 91.4672 9.886C91.8312 9.522 92.0132 9.06 92.0132 8.5C92.0132 7.94 91.8312 7.478 91.4672 7.114C91.1032 6.75 90.6505 6.568 90.1092 6.568C89.5678 6.568 89.1152 6.75 88.7512 7.114C88.3965 7.478 88.2192 7.94 88.2192 8.5C88.2192 9.06 88.3965 9.522 88.7512 9.886ZM95.9857 4.16C95.687 4.16 95.4257 4.05267 95.2017 3.838C94.987 3.614 94.8797 3.35267 94.8797 3.054C94.8797 2.75533 94.987 2.494 95.2017 2.27C95.4257 2.046 95.687 1.934 95.9857 1.934C96.2937 1.934 96.555 2.046 96.7697 2.27C96.9937 2.494 97.1057 2.75533 97.1057 3.054C97.1057 3.35267 96.9937 3.614 96.7697 3.838C96.555 4.05267 96.2937 4.16 95.9857 4.16ZM95.0897 12V5H96.8957V12H95.0897ZM102.441 4.804C103.206 4.804 103.836 5.06067 104.331 5.574C104.835 6.08733 105.087 6.79667 105.087 7.702V12H103.281V7.926C103.281 7.45933 103.155 7.10467 102.903 6.862C102.651 6.61 102.315 6.484 101.895 6.484C101.428 6.484 101.055 6.62867 100.775 6.918C100.495 7.20733 100.355 7.64133 100.355 8.22V12H98.5487V5H100.355V5.784C100.793 5.13067 101.489 4.804 102.441 4.804ZM111.991 5H113.755V11.664C113.755 12.7467 113.395 13.5727 112.677 14.142C111.967 14.7113 111.109 14.996 110.101 14.996C109.345 14.996 108.677 14.8513 108.099 14.562C107.529 14.2727 107.091 13.848 106.783 13.288L108.323 12.406C108.677 13.0593 109.289 13.386 110.157 13.386C110.726 13.386 111.174 13.2367 111.501 12.938C111.827 12.6393 111.991 12.2147 111.991 11.664V10.908C111.459 11.6173 110.712 11.972 109.751 11.972C108.761 11.972 107.931 11.6267 107.259 10.936C106.596 10.236 106.265 9.38667 106.265 8.388C106.265 7.39867 106.601 6.554 107.273 5.854C107.945 5.154 108.771 4.804 109.751 4.804C110.712 4.804 111.459 5.15867 111.991 5.868V5ZM108.617 9.774C108.99 10.1287 109.461 10.306 110.031 10.306C110.6 10.306 111.067 10.1287 111.431 9.774C111.804 9.41 111.991 8.948 111.991 8.388C111.991 7.83733 111.804 7.38467 111.431 7.03C111.067 6.666 110.6 6.484 110.031 6.484C109.461 6.484 108.99 6.666 108.617 7.03C108.253 7.38467 108.071 7.83733 108.071 8.388C108.071 8.948 108.253 9.41 108.617 9.774ZM128.594 6.736V7.492C128.594 8.892 128.146 10.026 127.25 10.894C126.354 11.762 125.197 12.196 123.778 12.196C122.266 12.196 121.011 11.706 120.012 10.726C119.023 9.73667 118.528 8.53267 118.528 7.114C118.528 5.686 119.018 4.47733 119.998 3.488C120.988 2.49867 122.21 2.004 123.666 2.004C124.581 2.004 125.416 2.214 126.172 2.634C126.928 3.04467 127.516 3.59533 127.936 4.286L126.284 5.238C126.051 4.83667 125.696 4.51 125.22 4.258C124.754 4.006 124.231 3.88 123.652 3.88C122.719 3.88 121.949 4.188 121.342 4.804C120.745 5.41067 120.446 6.18067 120.446 7.114C120.446 8.038 120.75 8.80333 121.356 9.41C121.972 10.0073 122.784 10.306 123.792 10.306C124.539 10.306 125.155 10.1427 125.64 9.816C126.135 9.48 126.471 9.02267 126.648 8.444H123.68V6.736H128.594ZM131.691 6.204C131.859 5.756 132.134 5.42 132.517 5.196C132.909 4.972 133.343 4.86 133.819 4.86V6.876C133.268 6.81067 132.773 6.92267 132.335 7.212C131.905 7.50133 131.691 7.982 131.691 8.654V12H129.885V5H131.691V6.204ZM136.141 9.242C136.384 10.1193 137.042 10.558 138.115 10.558C138.806 10.558 139.328 10.3247 139.683 9.858L141.139 10.698C140.448 11.6967 139.431 12.196 138.087 12.196C136.93 12.196 136.001 11.846 135.301 11.146C134.601 10.446 134.251 9.564 134.251 8.5C134.251 7.44533 134.596 6.568 135.287 5.868C135.978 5.15867 136.864 4.804 137.947 4.804C138.974 4.804 139.818 5.15867 140.481 5.868C141.153 6.57733 141.489 7.45467 141.489 8.5C141.489 8.73333 141.466 8.98067 141.419 9.242H136.141ZM136.113 7.842H139.683C139.58 7.366 139.366 7.01133 139.039 6.778C138.722 6.54467 138.358 6.428 137.947 6.428C137.462 6.428 137.06 6.554 136.743 6.806C136.426 7.04867 136.216 7.394 136.113 7.842ZM148.015 5H149.821V12H148.015V11.174C147.474 11.8553 146.713 12.196 145.733 12.196C144.8 12.196 143.997 11.8413 143.325 11.132C142.662 10.4133 142.331 9.536 142.331 8.5C142.331 7.464 142.662 6.59133 143.325 5.882C143.997 5.16333 144.8 4.804 145.733 4.804C146.713 4.804 147.474 5.14467 148.015 5.826V5ZM144.683 9.928C145.047 10.292 145.509 10.474 146.069 10.474C146.629 10.474 147.091 10.292 147.455 9.928C147.828 9.55467 148.015 9.07867 148.015 8.5C148.015 7.92133 147.828 7.45 147.455 7.086C147.091 6.71267 146.629 6.526 146.069 6.526C145.509 6.526 145.047 6.71267 144.683 7.086C144.319 7.45 144.137 7.92133 144.137 8.5C144.137 9.07867 144.319 9.55467 144.683 9.928ZM155.463 6.736H153.881V9.648C153.881 9.89067 153.941 10.068 154.063 10.18C154.184 10.292 154.361 10.3573 154.595 10.376C154.828 10.3853 155.117 10.3807 155.463 10.362V12C154.221 12.14 153.344 12.0233 152.831 11.65C152.327 11.2767 152.075 10.6093 152.075 9.648V6.736H150.857V5H152.075V3.586L153.881 3.04V5H155.463V6.736ZM157.182 8.71L156.804 5V2.2H158.974V5L158.61 8.71H157.182ZM158.736 11.832C158.502 12.0653 158.222 12.182 157.896 12.182C157.569 12.182 157.289 12.0653 157.056 11.832C156.822 11.5987 156.706 11.3187 156.706 10.992C156.706 10.6653 156.822 10.3853 157.056 10.152C157.289 9.91867 157.569 9.802 157.896 9.802C158.222 9.802 158.502 9.91867 158.736 10.152C158.969 10.3853 159.086 10.6653 159.086 10.992C159.086 11.3187 158.969 11.5987 158.736 11.832Z" fill="black"/>
<path opacity="0.5" d="M41.152 33.6L38.176 38.604V42H37.06V38.592L34.096 33.6H35.344L37.624 37.536L39.904 33.6H41.152ZM45.9029 41.244C45.2869 41.852 44.5389 42.156 43.6589 42.156C42.7789 42.156 42.0309 41.852 41.4149 41.244C40.8069 40.636 40.5029 39.888 40.5029 39C40.5029 38.112 40.8069 37.364 41.4149 36.756C42.0309 36.148 42.7789 35.844 43.6589 35.844C44.5389 35.844 45.2869 36.148 45.9029 36.756C46.5189 37.364 46.8269 38.112 46.8269 39C46.8269 39.888 46.5189 40.636 45.9029 41.244ZM43.6589 41.136C44.2589 41.136 44.7629 40.932 45.1709 40.524C45.5789 40.116 45.7829 39.608 45.7829 39C45.7829 38.392 45.5789 37.884 45.1709 37.476C44.7629 37.068 44.2589 36.864 43.6589 36.864C43.0669 36.864 42.5669 37.068 42.1589 37.476C41.7509 37.884 41.5469 38.392 41.5469 39C41.5469 39.608 41.7509 40.116 42.1589 40.524C42.5669 40.932 43.0669 41.136 43.6589 41.136ZM52.1976 36H53.2416V42H52.1976V41.136C51.7736 41.816 51.1256 42.156 50.2536 42.156C49.5496 42.156 48.9856 41.936 48.5616 41.496C48.1376 41.048 47.9256 40.444 47.9256 39.684V36H48.9696V39.624C48.9696 40.112 49.1016 40.492 49.3656 40.764C49.6296 41.028 49.9936 41.16 50.4576 41.16C50.9776 41.16 51.3976 41 51.7176 40.68C52.0376 40.352 52.1976 39.852 52.1976 39.18V36ZM55.8751 37.008C56.2191 36.264 56.8431 35.892 57.7471 35.892V36.984C57.2351 36.96 56.7951 37.096 56.4271 37.392C56.0591 37.688 55.8751 38.164 55.8751 38.82V42H54.8311V36H55.8751V37.008ZM62.6686 37.62C62.6686 37.852 62.7846 38.04 63.0166 38.184C63.2486 38.32 63.5286 38.432 63.8566 38.52C64.1846 38.6 64.5126 38.696 64.8406 38.808C65.1686 38.912 65.4486 39.096 65.6806 39.36C65.9126 39.616 66.0286 39.948 66.0286 40.356C66.0286 40.9 65.8166 41.336 65.3926 41.664C64.9766 41.992 64.4406 42.156 63.7846 42.156C63.2006 42.156 62.7006 42.028 62.2846 41.772C61.8686 41.516 61.5726 41.176 61.3966 40.752L62.2966 40.236C62.3926 40.524 62.5726 40.752 62.8366 40.92C63.1006 41.088 63.4166 41.172 63.7846 41.172C64.1286 41.172 64.4126 41.108 64.6366 40.98C64.8606 40.844 64.9726 40.636 64.9726 40.356C64.9726 40.124 64.8566 39.94 64.6246 39.804C64.3926 39.66 64.1126 39.548 63.7846 39.468C63.4566 39.38 63.1286 39.28 62.8006 39.168C62.4726 39.056 62.1926 38.872 61.9606 38.616C61.7286 38.36 61.6126 38.032 61.6126 37.632C61.6126 37.112 61.8126 36.684 62.2126 36.348C62.6206 36.012 63.1286 35.844 63.7366 35.844C64.2246 35.844 64.6566 35.956 65.0326 36.18C65.4166 36.396 65.7046 36.7 65.8966 37.092L65.0206 37.584C64.8046 37.072 64.3766 36.816 63.7366 36.816C63.4406 36.816 63.1886 36.888 62.9806 37.032C62.7726 37.168 62.6686 37.364 62.6686 37.62ZM70.5767 35.844C71.4167 35.844 72.1327 36.152 72.7247 36.768C73.3167 37.376 73.6127 38.12 73.6127 39C73.6127 39.88 73.3167 40.628 72.7247 41.244C72.1327 41.852 71.4167 42.156 70.5767 42.156C69.5847 42.156 68.8287 41.76 68.3087 40.968V44.4H67.2647V36H68.3087V37.032C68.8287 36.24 69.5847 35.844 70.5767 35.844ZM70.4447 41.148C71.0447 41.148 71.5487 40.944 71.9567 40.536C72.3647 40.12 72.5687 39.608 72.5687 39C72.5687 38.392 72.3647 37.884 71.9567 37.476C71.5487 37.06 71.0447 36.852 70.4447 36.852C69.8367 36.852 69.3287 37.06 68.9207 37.476C68.5127 37.884 68.3087 38.392 68.3087 39C68.3087 39.608 68.5127 40.12 68.9207 40.536C69.3287 40.944 69.8367 41.148 70.4447 41.148ZM75.5904 39.48C75.6944 40.016 75.9384 40.432 76.3224 40.728C76.7144 41.024 77.1944 41.172 77.7624 41.172C78.5544 41.172 79.1304 40.88 79.4904 40.296L80.3784 40.8C79.7944 41.704 78.9144 42.156 77.7384 42.156C76.7864 42.156 76.0104 41.86 75.4104 41.268C74.8184 40.668 74.5224 39.912 74.5224 39C74.5224 38.096 74.8144 37.344 75.3984 36.744C75.9824 36.144 76.7384 35.844 77.6664 35.844C78.5464 35.844 79.2624 36.156 79.8144 36.78C80.3744 37.396 80.6544 38.14 80.6544 39.012C80.6544 39.164 80.6424 39.32 80.6184 39.48H75.5904ZM77.6664 36.828C77.1064 36.828 76.6424 36.988 76.2744 37.308C75.9064 37.62 75.6784 38.04 75.5904 38.568H79.5984C79.5104 38 79.2864 37.568 78.9264 37.272C78.5664 36.976 78.1464 36.828 77.6664 36.828ZM84.8425 35.844C85.5465 35.844 86.1105 36.068 86.5345 36.516C86.9585 36.956 87.1705 37.556 87.1705 38.316V42H86.1265V38.376C86.1265 37.888 85.9945 37.512 85.7305 37.248C85.4665 36.976 85.1025 36.84 84.6385 36.84C84.1185 36.84 83.6985 37.004 83.3785 37.332C83.0585 37.652 82.8985 38.148 82.8985 38.82V42H81.8545V36H82.8985V36.864C83.3225 36.184 83.9705 35.844 84.8425 35.844ZM93.5959 33.6H94.6399V42H93.5959V40.968C93.0759 41.76 92.3199 42.156 91.3279 42.156C90.4879 42.156 89.7719 41.852 89.1799 41.244C88.5879 40.628 88.2919 39.88 88.2919 39C88.2919 38.12 88.5879 37.376 89.1799 36.768C89.7719 36.152 90.4879 35.844 91.3279 35.844C92.3199 35.844 93.0759 36.24 93.5959 37.032V33.6ZM91.4599 41.148C92.0679 41.148 92.5759 40.944 92.9839 40.536C93.3919 40.12 93.5959 39.608 93.5959 39C93.5959 38.392 93.3919 37.884 92.9839 37.476C92.5759 37.06 92.0679 36.852 91.4599 36.852C90.8599 36.852 90.3559 37.06 89.9479 37.476C89.5399 37.884 89.3359 38.392 89.3359 39C89.3359 39.608 89.5399 40.12 89.9479 40.536C90.3559 40.944 90.8599 41.148 91.4599 41.148ZM96.7497 34.908C96.5497 34.908 96.3817 34.84 96.2457 34.704C96.1097 34.568 96.0417 34.404 96.0417 34.212C96.0417 34.02 96.1097 33.856 96.2457 33.72C96.3817 33.576 96.5497 33.504 96.7497 33.504C96.9417 33.504 97.1057 33.576 97.2417 33.72C97.3777 33.856 97.4457 34.02 97.4457 34.212C97.4457 34.404 97.3777 34.568 97.2417 34.704C97.1057 34.84 96.9417 34.908 96.7497 34.908ZM96.2217 42V36H97.2657V42H96.2217ZM101.846 35.844C102.55 35.844 103.114 36.068 103.538 36.516C103.962 36.956 104.174 37.556 104.174 38.316V42H103.13V38.376C103.13 37.888 102.998 37.512 102.734 37.248C102.47 36.976 102.106 36.84 101.642 36.84C101.122 36.84 100.702 37.004 100.382 37.332C100.062 37.652 99.9024 38.148 99.9024 38.82V42H98.8584V36H99.9024V36.864C100.326 36.184 100.974 35.844 101.846 35.844ZM110.612 36H111.644V41.748C111.644 42.636 111.344 43.324 110.744 43.812C110.144 44.308 109.424 44.556 108.584 44.556C107.912 44.556 107.332 44.428 106.844 44.172C106.356 43.924 105.988 43.564 105.74 43.092L106.652 42.576C106.98 43.248 107.632 43.584 108.608 43.584C109.232 43.584 109.72 43.42 110.072 43.092C110.432 42.764 110.612 42.316 110.612 41.748V40.896C110.084 41.696 109.332 42.096 108.356 42.096C107.5 42.096 106.776 41.792 106.184 41.184C105.592 40.576 105.296 39.836 105.296 38.964C105.296 38.092 105.592 37.356 106.184 36.756C106.776 36.148 107.5 35.844 108.356 35.844C109.34 35.844 110.092 36.24 110.612 37.032V36ZM106.952 40.488C107.36 40.896 107.868 41.1 108.476 41.1C109.084 41.1 109.592 40.896 110 40.488C110.408 40.08 110.612 39.572 110.612 38.964C110.612 38.364 110.408 37.86 110 37.452C109.592 37.044 109.084 36.84 108.476 36.84C107.868 36.84 107.36 37.044 106.952 37.452C106.544 37.86 106.34 38.364 106.34 38.964C106.34 39.572 106.544 40.08 106.952 40.488ZM119.49 37.008H117.894V40.26C117.894 40.556 117.95 40.768 118.062 40.896C118.182 41.016 118.362 41.08 118.602 41.088C118.842 41.088 119.138 41.08 119.49 41.064V42C118.578 42.12 117.91 42.048 117.486 41.784C117.062 41.512 116.85 41.004 116.85 40.26V37.008H115.662V36H116.85V34.632L117.894 34.32V36H119.49V37.008ZM123.714 35.844C124.418 35.844 124.982 36.068 125.406 36.516C125.83 36.956 126.042 37.556 126.042 38.316V42H124.998V38.376C124.998 37.888 124.866 37.512 124.602 37.248C124.338 36.976 123.974 36.84 123.51 36.84C122.99 36.84 122.57 37.004 122.25 37.332C121.93 37.652 121.77 38.148 121.77 38.82V42H120.726V33.6H121.77V36.864C122.194 36.184 122.842 35.844 123.714 35.844ZM128.027 34.908C127.827 34.908 127.659 34.84 127.523 34.704C127.387 34.568 127.319 34.404 127.319 34.212C127.319 34.02 127.387 33.856 127.523 33.72C127.659 33.576 127.827 33.504 128.027 33.504C128.219 33.504 128.383 33.576 128.519 33.72C128.655 33.856 128.723 34.02 128.723 34.212C128.723 34.404 128.655 34.568 128.519 34.704C128.383 34.84 128.219 34.908 128.027 34.908ZM127.499 42V36H128.543V42H127.499ZM131.024 37.62C131.024 37.852 131.14 38.04 131.372 38.184C131.604 38.32 131.884 38.432 132.212 38.52C132.54 38.6 132.868 38.696 133.196 38.808C133.524 38.912 133.804 39.096 134.036 39.36C134.268 39.616 134.384 39.948 134.384 40.356C134.384 40.9 134.172 41.336 133.748 41.664C133.332 41.992 132.796 42.156 132.14 42.156C131.556 42.156 131.056 42.028 130.64 41.772C130.224 41.516 129.928 41.176 129.752 40.752L130.652 40.236C130.748 40.524 130.928 40.752 131.192 40.92C131.456 41.088 131.772 41.172 132.14 41.172C132.484 41.172 132.768 41.108 132.992 40.98C133.216 40.844 133.328 40.636 133.328 40.356C133.328 40.124 133.212 39.94 132.98 39.804C132.748 39.66 132.468 39.548 132.14 39.468C131.812 39.38 131.484 39.28 131.156 39.168C130.828 39.056 130.548 38.872 130.316 38.616C130.084 38.36 129.968 38.032 129.968 37.632C129.968 37.112 130.168 36.684 130.568 36.348C130.976 36.012 131.484 35.844 132.092 35.844C132.58 35.844 133.012 35.956 133.388 36.18C133.772 36.396 134.06 36.7 134.252 37.092L133.376 37.584C133.16 37.072 132.732 36.816 132.092 36.816C131.796 36.816 131.544 36.888 131.336 37.032C131.128 37.168 131.024 37.364 131.024 37.62ZM145.1 35.844C145.772 35.844 146.316 36.064 146.732 36.504C147.148 36.936 147.356 37.524 147.356 38.268V42H146.312V38.304C146.312 37.84 146.192 37.48 145.952 37.224C145.712 36.968 145.392 36.84 144.992 36.84C144.544 36.84 144.184 36.992 143.912 37.296C143.648 37.592 143.516 38.048 143.516 38.664V42H142.472V38.304C142.472 37.84 142.356 37.48 142.124 37.224C141.9 36.968 141.592 36.84 141.2 36.84C140.76 36.84 140.392 36.992 140.096 37.296C139.808 37.6 139.664 38.056 139.664 38.664V42H138.62V36H139.664V36.804C140.072 36.164 140.668 35.844 141.452 35.844C142.26 35.844 142.848 36.184 143.216 36.864C143.632 36.184 144.26 35.844 145.1 35.844ZM153.868 41.244C153.252 41.852 152.504 42.156 151.624 42.156C150.744 42.156 149.996 41.852 149.38 41.244C148.772 40.636 148.468 39.888 148.468 39C148.468 38.112 148.772 37.364 149.38 36.756C149.996 36.148 150.744 35.844 151.624 35.844C152.504 35.844 153.252 36.148 153.868 36.756C154.484 37.364 154.792 38.112 154.792 39C154.792 39.888 154.484 40.636 153.868 41.244ZM151.624 41.136C152.224 41.136 152.728 40.932 153.136 40.524C153.544 40.116 153.748 39.608 153.748 39C153.748 38.392 153.544 37.884 153.136 37.476C152.728 37.068 152.224 36.864 151.624 36.864C151.032 36.864 150.532 37.068 150.124 37.476C149.716 37.884 149.512 38.392 149.512 39C149.512 39.608 149.716 40.116 150.124 40.524C150.532 40.932 151.032 41.136 151.624 41.136ZM159.01 35.844C159.714 35.844 160.278 36.068 160.702 36.516C161.126 36.956 161.338 37.556 161.338 38.316V42H160.294V38.376C160.294 37.888 160.162 37.512 159.898 37.248C159.634 36.976 159.27 36.84 158.806 36.84C158.286 36.84 157.866 37.004 157.546 37.332C157.226 37.652 157.066 38.148 157.066 38.82V42H156.022V36H157.066V36.864C157.49 36.184 158.138 35.844 159.01 35.844ZM166.06 37.008H164.464V40.26C164.464 40.556 164.52 40.768 164.632 40.896C164.752 41.016 164.932 41.08 165.172 41.088C165.412 41.088 165.708 41.08 166.06 41.064V42C165.148 42.12 164.48 42.048 164.056 41.784C163.632 41.512 163.42 41.004 163.42 40.26V37.008H162.232V36H163.42V34.632L164.464 34.32V36H166.06V37.008ZM170.284 35.844C170.988 35.844 171.552 36.068 171.976 36.516C172.4 36.956 172.612 37.556 172.612 38.316V42H171.568V38.376C171.568 37.888 171.436 37.512 171.172 37.248C170.908 36.976 170.544 36.84 170.08 36.84C169.56 36.84 169.14 37.004 168.82 37.332C168.5 37.652 168.34 38.148 168.34 38.82V42H167.296V33.6H168.34V36.864C168.764 36.184 169.412 35.844 170.284 35.844ZM177.597 34.908C177.397 34.908 177.229 34.84 177.093 34.704C176.957 34.568 176.889 34.404 176.889 34.212C176.889 34.02 176.957 33.856 177.093 33.72C177.229 33.576 177.397 33.504 177.597 33.504C177.789 33.504 177.953 33.576 178.089 33.72C178.225 33.856 178.293 34.02 178.293 34.212C178.293 34.404 178.225 34.568 178.089 34.704C177.953 34.84 177.789 34.908 177.597 34.908ZM177.069 42V36H178.113V42H177.069ZM180.594 37.62C180.594 37.852 180.71 38.04 180.942 38.184C181.174 38.32 181.454 38.432 181.782 38.52C182.11 38.6 182.438 38.696 182.766 38.808C183.094 38.912 183.374 39.096 183.606 39.36C183.838 39.616 183.954 39.948 183.954 40.356C183.954 40.9 183.742 41.336 183.318 41.664C182.902 41.992 182.366 42.156 181.71 42.156C181.126 42.156 180.626 42.028 180.21 41.772C179.794 41.516 179.498 41.176 179.322 40.752L180.222 40.236C180.318 40.524 180.498 40.752 180.762 40.92C181.026 41.088 181.342 41.172 181.71 41.172C182.054 41.172 182.338 41.108 182.562 40.98C182.786 40.844 182.898 40.636 182.898 40.356C182.898 40.124 182.782 39.94 182.55 39.804C182.318 39.66 182.038 39.548 181.71 39.468C181.382 39.38 181.054 39.28 180.726 39.168C180.398 39.056 180.118 38.872 179.886 38.616C179.654 38.36 179.538 38.032 179.538 37.632C179.538 37.112 179.738 36.684 180.138 36.348C180.546 36.012 181.054 35.844 181.662 35.844C182.15 35.844 182.582 35.956 182.958 36.18C183.342 36.396 183.63 36.7 183.822 37.092L182.946 37.584C182.73 37.072 182.302 36.816 181.662 36.816C181.366 36.816 181.114 36.888 180.906 37.032C180.698 37.168 180.594 37.364 180.594 37.62ZM189.774 33.6H190.734V42H189.63V34.8L187.842 35.328L187.566 34.368L189.774 33.6ZM194.916 36.876C195.708 36.876 196.376 37.112 196.92 37.584C197.472 38.048 197.748 38.692 197.748 39.516C197.748 40.332 197.468 40.976 196.908 41.448C196.348 41.92 195.668 42.156 194.868 42.156C194.228 42.156 193.656 42.004 193.152 41.7C192.648 41.388 192.296 40.94 192.096 40.356L193.044 39.816C193.156 40.224 193.372 40.536 193.692 40.752C194.012 40.96 194.404 41.064 194.868 41.064C195.396 41.064 195.824 40.928 196.152 40.656C196.48 40.384 196.644 40.004 196.644 39.516C196.644 39.028 196.48 38.648 196.152 38.376C195.824 38.096 195.404 37.956 194.892 37.956H192.516L192.828 33.6H197.424V34.644H193.836L193.692 36.876H194.916ZM200.513 37.164C199.969 37.164 199.517 36.984 199.157 36.624C198.797 36.264 198.617 35.824 198.617 35.304C198.617 34.792 198.797 34.356 199.157 33.996C199.525 33.628 199.977 33.444 200.513 33.444C201.057 33.444 201.509 33.624 201.869 33.984C202.229 34.344 202.409 34.784 202.409 35.304C202.409 35.824 202.229 36.264 201.869 36.624C201.517 36.984 201.065 37.164 200.513 37.164ZM199.817 36.012C200.001 36.196 200.233 36.288 200.513 36.288C200.793 36.288 201.021 36.192 201.197 36C201.381 35.808 201.473 35.576 201.473 35.304C201.473 35.032 201.381 34.804 201.197 34.62C201.021 34.428 200.793 34.332 200.513 34.332C200.233 34.332 200.001 34.428 199.817 34.62C199.641 34.804 199.553 35.032 199.553 35.304C199.553 35.584 199.641 35.82 199.817 36.012ZM199.181 40.812L204.761 34.572L205.349 34.896L199.757 41.148L199.181 40.812ZM205.493 41.604C205.133 41.964 204.681 42.144 204.137 42.144C203.593 42.144 203.141 41.964 202.781 41.604C202.421 41.244 202.241 40.804 202.241 40.284C202.241 39.764 202.421 39.324 202.781 38.964C203.141 38.604 203.593 38.424 204.137 38.424C204.681 38.424 205.133 38.604 205.493 38.964C205.853 39.324 206.033 39.764 206.033 40.284C206.033 40.804 205.853 41.244 205.493 41.604ZM203.441 40.98C203.625 41.164 203.857 41.256 204.137 41.256C204.417 41.256 204.645 41.164 204.821 40.98C205.005 40.788 205.097 40.556 205.097 40.284C205.097 40.012 205.005 39.784 204.821 39.6C204.645 39.408 204.417 39.312 204.137 39.312C203.857 39.312 203.625 39.408 203.441 39.6C203.265 39.784 203.177 40.012 203.177 40.284C203.177 40.556 203.265 40.788 203.441 40.98ZM34.792 60V51.24H35.836V60H34.792ZM42.4927 59.244C41.8767 59.852 41.1287 60.156 40.2487 60.156C39.3687 60.156 38.6207 59.852 38.0047 59.244C37.3967 58.636 37.0927 57.888 37.0927 57C37.0927 56.112 37.3967 55.364 38.0047 54.756C38.6207 54.148 39.3687 53.844 40.2487 53.844C41.1287 53.844 41.8767 54.148 42.4927 54.756C43.1087 55.364 43.4167 56.112 43.4167 57C43.4167 57.888 43.1087 58.636 42.4927 59.244ZM40.2487 59.136C40.8487 59.136 41.3527 58.932 41.7607 58.524C42.1687 58.116 42.3727 57.608 42.3727 57C42.3727 56.392 42.1687 55.884 41.7607 55.476C41.3527 55.068 40.8487 54.864 40.2487 54.864C39.6567 54.864 39.1567 55.068 38.7487 55.476C38.3407 55.884 38.1367 56.392 38.1367 57C38.1367 57.608 38.3407 58.116 38.7487 58.524C39.1567 58.932 39.6567 59.136 40.2487 59.136ZM51.4811 54H52.5731L50.7131 60H49.6451L48.2411 55.56L46.8371 60H45.7691L43.9091 54H45.0011L46.3211 58.56L47.7371 54H48.7451L50.1611 58.572L51.4811 54ZM54.1451 57.48C54.2491 58.016 54.4931 58.432 54.8771 58.728C55.2691 59.024 55.7491 59.172 56.3171 59.172C57.1091 59.172 57.6851 58.88 58.0451 58.296L58.9331 58.8C58.3491 59.704 57.4691 60.156 56.2931 60.156C55.3411 60.156 54.5651 59.86 53.9651 59.268C53.3731 58.668 53.0771 57.912 53.0771 57C53.0771 56.096 53.3691 55.344 53.9531 54.744C54.5371 54.144 55.2931 53.844 56.2211 53.844C57.1011 53.844 57.8171 54.156 58.3691 54.78C58.9291 55.396 59.2091 56.14 59.2091 57.012C59.2091 57.164 59.1971 57.32 59.1731 57.48H54.1451ZM56.2211 54.828C55.6611 54.828 55.1971 54.988 54.8291 55.308C54.4611 55.62 54.2331 56.04 54.1451 56.568H58.1531C58.0651 56 57.8411 55.568 57.4811 55.272C57.1211 54.976 56.7011 54.828 56.2211 54.828ZM61.4532 55.008C61.7972 54.264 62.4212 53.892 63.3252 53.892V54.984C62.8132 54.96 62.3732 55.096 62.0052 55.392C61.6372 55.688 61.4532 56.164 61.4532 56.82V60H60.4092V54H61.4532V55.008ZM70.6107 55.008H69.0147V58.26C69.0147 58.556 69.0707 58.768 69.1827 58.896C69.3027 59.016 69.4827 59.08 69.7227 59.088C69.9627 59.088 70.2587 59.08 70.6107 59.064V60C69.6987 60.12 69.0307 60.048 68.6067 59.784C68.1827 59.512 67.9707 59.004 67.9707 58.26V55.008H66.7827V54H67.9707V52.632L69.0147 52.32V54H70.6107V55.008ZM74.8347 53.844C75.5387 53.844 76.1027 54.068 76.5267 54.516C76.9507 54.956 77.1627 55.556 77.1627 56.316V60H76.1187V56.376C76.1187 55.888 75.9867 55.512 75.7227 55.248C75.4587 54.976 75.0947 54.84 74.6307 54.84C74.1107 54.84 73.6907 55.004 73.3707 55.332C73.0507 55.652 72.8907 56.148 72.8907 56.82V60H71.8467V51.6H72.8907V54.864C73.3147 54.184 73.9627 53.844 74.8347 53.844ZM83.5881 54H84.6321V60H83.5881V58.968C83.0681 59.76 82.3121 60.156 81.3201 60.156C80.4801 60.156 79.7641 59.852 79.1721 59.244C78.5801 58.628 78.2841 57.88 78.2841 57C78.2841 56.12 78.5801 55.376 79.1721 54.768C79.7641 54.152 80.4801 53.844 81.3201 53.844C82.3121 53.844 83.0681 54.24 83.5881 55.032V54ZM81.4521 59.148C82.0601 59.148 82.5681 58.944 82.9761 58.536C83.3841 58.12 83.5881 57.608 83.5881 57C83.5881 56.392 83.3841 55.884 82.9761 55.476C82.5681 55.06 82.0601 54.852 81.4521 54.852C80.8521 54.852 80.3481 55.06 79.9401 55.476C79.5321 55.884 79.3281 56.392 79.3281 57C79.3281 57.608 79.5321 58.12 79.9401 58.536C80.3481 58.944 80.8521 59.148 81.4521 59.148ZM89.2019 53.844C89.9059 53.844 90.4699 54.068 90.8939 54.516C91.3179 54.956 91.5299 55.556 91.5299 56.316V60H90.4859V56.376C90.4859 55.888 90.3539 55.512 90.0899 55.248C89.8259 54.976 89.4619 54.84 88.9979 54.84C88.4779 54.84 88.0579 55.004 87.7379 55.332C87.4179 55.652 87.2579 56.148 87.2579 56.82V60H86.2139V54H87.2579V54.864C87.6819 54.184 88.3299 53.844 89.2019 53.844ZM95.9873 60V51.24H97.0313V60H95.9873ZM103.592 54H104.636V60H103.592V58.968C103.072 59.76 102.316 60.156 101.324 60.156C100.484 60.156 99.768 59.852 99.176 59.244C98.584 58.628 98.288 57.88 98.288 57C98.288 56.12 98.584 55.376 99.176 54.768C99.768 54.152 100.484 53.844 101.324 53.844C102.316 53.844 103.072 54.24 103.592 55.032V54ZM101.456 59.148C102.064 59.148 102.572 58.944 102.98 58.536C103.388 58.12 103.592 57.608 103.592 57C103.592 56.392 103.388 55.884 102.98 55.476C102.572 55.06 102.064 54.852 101.456 54.852C100.856 54.852 100.352 55.06 99.944 55.476C99.536 55.884 99.332 56.392 99.332 57C99.332 57.608 99.536 58.12 99.944 58.536C100.352 58.944 100.856 59.148 101.456 59.148ZM107.106 55.62C107.106 55.852 107.222 56.04 107.454 56.184C107.686 56.32 107.966 56.432 108.294 56.52C108.622 56.6 108.95 56.696 109.278 56.808C109.606 56.912 109.886 57.096 110.118 57.36C110.35 57.616 110.466 57.948 110.466 58.356C110.466 58.9 110.254 59.336 109.83 59.664C109.414 59.992 108.878 60.156 108.222 60.156C107.638 60.156 107.138 60.028 106.722 59.772C106.306 59.516 106.01 59.176 105.834 58.752L106.734 58.236C106.83 58.524 107.01 58.752 107.274 58.92C107.538 59.088 107.854 59.172 108.222 59.172C108.566 59.172 108.85 59.108 109.074 58.98C109.298 58.844 109.41 58.636 109.41 58.356C109.41 58.124 109.294 57.94 109.062 57.804C108.83 57.66 108.55 57.548 108.222 57.468C107.894 57.38 107.566 57.28 107.238 57.168C106.91 57.056 106.63 56.872 106.398 56.616C106.166 56.36 106.05 56.032 106.05 55.632C106.05 55.112 106.25 54.684 106.65 54.348C107.058 54.012 107.566 53.844 108.174 53.844C108.662 53.844 109.094 53.956 109.47 54.18C109.854 54.396 110.142 54.7 110.334 55.092L109.458 55.584C109.242 55.072 108.814 54.816 108.174 54.816C107.878 54.816 107.626 54.888 107.418 55.032C107.21 55.168 107.106 55.364 107.106 55.62ZM114.732 55.008H113.136V58.26C113.136 58.556 113.192 58.768 113.304 58.896C113.424 59.016 113.604 59.08 113.844 59.088C114.084 59.088 114.38 59.08 114.732 59.064V60C113.82 60.12 113.152 60.048 112.728 59.784C112.304 59.512 112.092 59.004 112.092 58.26V55.008H110.904V54H112.092V52.632L113.136 52.32V54H114.732V55.008ZM125.483 53.844C126.155 53.844 126.699 54.064 127.115 54.504C127.531 54.936 127.739 55.524 127.739 56.268V60H126.695V56.304C126.695 55.84 126.575 55.48 126.335 55.224C126.095 54.968 125.775 54.84 125.375 54.84C124.927 54.84 124.567 54.992 124.295 55.296C124.031 55.592 123.899 56.048 123.899 56.664V60H122.855V56.304C122.855 55.84 122.739 55.48 122.507 55.224C122.283 54.968 121.975 54.84 121.583 54.84C121.143 54.84 120.775 54.992 120.479 55.296C120.191 55.6 120.047 56.056 120.047 56.664V60H119.003V54H120.047V54.804C120.455 54.164 121.051 53.844 121.835 53.844C122.643 53.844 123.231 54.184 123.599 54.864C124.015 54.184 124.643 53.844 125.483 53.844ZM134.251 59.244C133.635 59.852 132.887 60.156 132.007 60.156C131.127 60.156 130.379 59.852 129.763 59.244C129.155 58.636 128.851 57.888 128.851 57C128.851 56.112 129.155 55.364 129.763 54.756C130.379 54.148 131.127 53.844 132.007 53.844C132.887 53.844 133.635 54.148 134.251 54.756C134.867 55.364 135.175 56.112 135.175 57C135.175 57.888 134.867 58.636 134.251 59.244ZM132.007 59.136C132.607 59.136 133.111 58.932 133.519 58.524C133.927 58.116 134.131 57.608 134.131 57C134.131 56.392 133.927 55.884 133.519 55.476C133.111 55.068 132.607 54.864 132.007 54.864C131.415 54.864 130.915 55.068 130.507 55.476C130.099 55.884 129.895 56.392 129.895 57C129.895 57.608 130.099 58.116 130.507 58.524C130.915 58.932 131.415 59.136 132.007 59.136ZM139.393 53.844C140.097 53.844 140.661 54.068 141.085 54.516C141.509 54.956 141.721 55.556 141.721 56.316V60H140.677V56.376C140.677 55.888 140.545 55.512 140.281 55.248C140.017 54.976 139.653 54.84 139.189 54.84C138.669 54.84 138.249 55.004 137.929 55.332C137.609 55.652 137.449 56.148 137.449 56.82V60H136.405V54H137.449V54.864C137.873 54.184 138.521 53.844 139.393 53.844ZM146.443 55.008H144.847V58.26C144.847 58.556 144.903 58.768 145.015 58.896C145.135 59.016 145.315 59.08 145.555 59.088C145.795 59.088 146.091 59.08 146.443 59.064V60C145.531 60.12 144.863 60.048 144.439 59.784C144.015 59.512 143.803 59.004 143.803 58.26V55.008H142.615V54H143.803V52.632L144.847 52.32V54H146.443V55.008ZM150.667 53.844C151.371 53.844 151.935 54.068 152.359 54.516C152.783 54.956 152.995 55.556 152.995 56.316V60H151.951V56.376C151.951 55.888 151.819 55.512 151.555 55.248C151.291 54.976 150.927 54.84 150.463 54.84C149.943 54.84 149.523 55.004 149.203 55.332C148.883 55.652 148.723 56.148 148.723 56.82V60H147.679V51.6H148.723V54.864C149.147 54.184 149.795 53.844 150.667 53.844ZM155.112 60.132C154.896 60.132 154.712 60.056 154.56 59.904C154.408 59.752 154.332 59.568 154.332 59.352C154.332 59.136 154.408 58.952 154.56 58.8C154.712 58.648 154.896 58.572 155.112 58.572C155.336 58.572 155.52 58.648 155.664 58.8C155.816 58.952 155.892 59.136 155.892 59.352C155.892 59.568 155.816 59.752 155.664 59.904C155.52 60.056 155.336 60.132 155.112 60.132ZM166.586 60H165.218L161.594 55.968V60H160.478V51.6H161.594V55.392L165.098 51.6H166.466L162.758 55.68L166.586 60ZM167.665 57.48C167.769 58.016 168.013 58.432 168.397 58.728C168.789 59.024 169.269 59.172 169.837 59.172C170.629 59.172 171.205 58.88 171.565 58.296L172.453 58.8C171.869 59.704 170.989 60.156 169.813 60.156C168.861 60.156 168.085 59.86 167.485 59.268C166.893 58.668 166.597 57.912 166.597 57C166.597 56.096 166.889 55.344 167.473 54.744C168.057 54.144 168.813 53.844 169.741 53.844C170.621 53.844 171.337 54.156 171.889 54.78C172.449 55.396 172.729 56.14 172.729 57.012C172.729 57.164 172.717 57.32 172.693 57.48H167.665ZM169.741 54.828C169.181 54.828 168.717 54.988 168.349 55.308C167.981 55.62 167.753 56.04 167.665 56.568H171.673C171.585 56 171.361 55.568 171.001 55.272C170.641 54.976 170.221 54.828 169.741 54.828ZM174.649 57.48C174.753 58.016 174.997 58.432 175.381 58.728C175.773 59.024 176.253 59.172 176.821 59.172C177.613 59.172 178.189 58.88 178.549 58.296L179.437 58.8C178.853 59.704 177.973 60.156 176.797 60.156C175.845 60.156 175.069 59.86 174.469 59.268C173.877 58.668 173.581 57.912 173.581 57C173.581 56.096 173.873 55.344 174.457 54.744C175.041 54.144 175.797 53.844 176.725 53.844C177.605 53.844 178.321 54.156 178.873 54.78C179.433 55.396 179.713 56.14 179.713 57.012C179.713 57.164 179.701 57.32 179.677 57.48H174.649ZM176.725 54.828C176.165 54.828 175.701 54.988 175.333 55.308C174.965 55.62 174.737 56.04 174.649 56.568H178.657C178.569 56 178.345 55.568 177.985 55.272C177.625 54.976 177.205 54.828 176.725 54.828ZM184.225 53.844C185.065 53.844 185.781 54.152 186.373 54.768C186.965 55.376 187.261 56.12 187.261 57C187.261 57.88 186.965 58.628 186.373 59.244C185.781 59.852 185.065 60.156 184.225 60.156C183.233 60.156 182.477 59.76 181.957 58.968V62.4H180.913V54H181.957V55.032C182.477 54.24 183.233 53.844 184.225 53.844ZM184.093 59.148C184.693 59.148 185.197 58.944 185.605 58.536C186.013 58.12 186.217 57.608 186.217 57C186.217 56.392 186.013 55.884 185.605 55.476C185.197 55.06 184.693 54.852 184.093 54.852C183.485 54.852 182.977 55.06 182.569 55.476C182.161 55.884 181.957 56.392 181.957 57C181.957 57.608 182.161 58.12 182.569 58.536C182.977 58.944 183.485 59.148 184.093 59.148ZM192.035 52.908C191.835 52.908 191.667 52.84 191.531 52.704C191.395 52.568 191.327 52.404 191.327 52.212C191.327 52.02 191.395 51.856 191.531 51.72C191.667 51.576 191.835 51.504 192.035 51.504C192.227 51.504 192.391 51.576 192.527 51.72C192.663 51.856 192.731 52.02 192.731 52.212C192.731 52.404 192.663 52.568 192.527 52.704C192.391 52.84 192.227 52.908 192.035 52.908ZM191.507 60V54H192.551V60H191.507ZM197.408 55.008H195.812V58.26C195.812 58.556 195.868 58.768 195.98 58.896C196.1 59.016 196.28 59.08 196.52 59.088C196.76 59.088 197.056 59.08 197.408 59.064V60C196.496 60.12 195.828 60.048 195.404 59.784C194.98 59.512 194.768 59.004 194.768 58.26V55.008H193.58V54H194.768V52.632L195.812 52.32V54H197.408V55.008ZM205.819 54H206.863V60H205.819V59.136C205.395 59.816 204.747 60.156 203.875 60.156C203.171 60.156 202.607 59.936 202.183 59.496C201.759 59.048 201.547 58.444 201.547 57.684V54H202.591V57.624C202.591 58.112 202.723 58.492 202.987 58.764C203.251 59.028 203.615 59.16 204.079 59.16C204.599 59.16 205.019 59 205.339 58.68C205.659 58.352 205.819 57.852 205.819 57.18V54ZM211.764 53.844C212.604 53.844 213.32 54.152 213.912 54.768C214.504 55.376 214.8 56.12 214.8 57C214.8 57.88 214.504 58.628 213.912 59.244C213.32 59.852 212.604 60.156 211.764 60.156C210.772 60.156 210.016 59.76 209.496 58.968V62.4H208.452V54H209.496V55.032C210.016 54.24 210.772 53.844 211.764 53.844ZM211.632 59.148C212.232 59.148 212.736 58.944 213.144 58.536C213.552 58.12 213.756 57.608 213.756 57C213.756 56.392 213.552 55.884 213.144 55.476C212.736 55.06 212.232 54.852 211.632 54.852C211.024 54.852 210.516 55.06 210.108 55.476C209.7 55.884 209.496 56.392 209.496 57C209.496 57.608 209.7 58.12 210.108 58.536C210.516 58.944 211.024 59.148 211.632 59.148ZM216.31 57.54L216.082 54V51.6H217.342V54L217.114 57.54H216.31ZM216.706 60.132C216.49 60.132 216.306 60.056 216.154 59.904C216.002 59.752 215.926 59.568 215.926 59.352C215.926 59.136 216.002 58.952 216.154 58.8C216.306 58.648 216.49 58.572 216.706 58.572C216.93 58.572 217.114 58.648 217.258 58.8C217.41 58.952 217.486 59.136 217.486 59.352C217.486 59.568 217.41 59.752 217.258 59.904C217.114 60.056 216.93 60.132 216.706 60.132Z" fill="black"/>
</svg>
