<svg width="107" height="24" viewBox="0 0 107 24" fill="none" xmlns="http://www.w3.org/2000/svg">
<path d="M35.65 10.918C36.098 11.1327 36.4527 11.4407 36.714 11.842C36.9847 12.2433 37.12 12.7053 37.12 13.228C37.12 14.012 36.8447 14.67 36.294 15.202C35.7433 15.734 35.0713 16 34.278 16H30.05V6.2H33.97C34.7353 6.2 35.384 6.45667 35.916 6.97C36.448 7.48333 36.714 8.118 36.714 8.874C36.714 9.742 36.3593 10.4233 35.65 10.918ZM33.97 7.418H31.352V10.414H33.97C34.3807 10.414 34.726 10.2693 35.006 9.98C35.286 9.69067 35.426 9.336 35.426 8.916C35.426 8.50533 35.2813 8.15533 34.992 7.866C34.712 7.56733 34.3713 7.418 33.97 7.418ZM34.278 14.782C34.7167 14.782 35.0853 14.628 35.384 14.32C35.6827 14.012 35.832 13.634 35.832 13.186C35.832 12.7473 35.678 12.374 35.37 12.066C35.0713 11.758 34.7073 11.604 34.278 11.604H31.352V14.782H34.278ZM39.1533 7.726C38.9199 7.726 38.7239 7.64667 38.5653 7.488C38.4066 7.32933 38.3273 7.138 38.3273 6.914C38.3273 6.69 38.4066 6.49867 38.5653 6.34C38.7239 6.172 38.9199 6.088 39.1533 6.088C39.3773 6.088 39.5686 6.172 39.7273 6.34C39.8859 6.49867 39.9653 6.69 39.9653 6.914C39.9653 7.138 39.8859 7.32933 39.7273 7.488C39.5686 7.64667 39.3773 7.726 39.1533 7.726ZM38.5373 16V9H39.7553V16H38.5373ZM41.6135 16V5.78H42.8315V16H41.6135ZM44.6896 16V5.78H45.9076V16H44.6896ZM48.8021 10.89C48.8021 11.1607 48.9375 11.38 49.2081 11.548C49.4788 11.7067 49.8055 11.8373 50.1881 11.94C50.5708 12.0333 50.9535 12.1453 51.3361 12.276C51.7188 12.3973 52.0455 12.612 52.3161 12.92C52.5868 13.2187 52.7221 13.606 52.7221 14.082C52.7221 14.7167 52.4748 15.2253 51.9801 15.608C51.4948 15.9907 50.8695 16.182 50.1041 16.182C49.4228 16.182 48.8395 16.0327 48.3541 15.734C47.8688 15.4353 47.5235 15.0387 47.3181 14.544L48.3681 13.942C48.4801 14.278 48.6901 14.544 48.9981 14.74C49.3061 14.936 49.6748 15.034 50.1041 15.034C50.5055 15.034 50.8368 14.9593 51.0981 14.81C51.3595 14.6513 51.4901 14.4087 51.4901 14.082C51.4901 13.8113 51.3548 13.5967 51.0841 13.438C50.8135 13.27 50.4868 13.1393 50.1041 13.046C49.7215 12.9433 49.3388 12.8267 48.9561 12.696C48.5735 12.5653 48.2468 12.3507 47.9761 12.052C47.7055 11.7533 47.5701 11.3707 47.5701 10.904C47.5701 10.2973 47.8035 9.798 48.2701 9.406C48.7461 9.014 49.3388 8.818 50.0481 8.818C50.6175 8.818 51.1215 8.94867 51.5601 9.21C52.0081 9.462 52.3441 9.81667 52.5681 10.274L51.5461 10.848C51.2941 10.2507 50.7948 9.952 50.0481 9.952C49.7028 9.952 49.4088 10.036 49.1661 10.204C48.9235 10.3627 48.8021 10.5913 48.8021 10.89Z" fill="black"/>
<rect x="9" y="6" width="12" height="12" rx="6" fill="#51CBFF"/>
<rect x="0.5" y="0.5" width="106" height="23" rx="6.5" stroke="black" stroke-opacity="0.09"/>
</svg>
