<svg width="90" height="90" viewBox="0 0 90 90" fill="none" xmlns="http://www.w3.org/2000/svg">
<g filter="url(#filter0_d_2_3343)">
<rect x="20" y="10" width="50" height="50" rx="15" fill="#E7F2EF"/>
</g>
<path fill-rule="evenodd" clip-rule="evenodd" d="M54.7995 31.6693L55.6398 32.5093C56.305 33.1626 56.6668 34.0493 56.6668 34.9826C56.6785 35.9159 56.3167 36.8038 55.6631 37.4676C55.6553 37.4762 55.6475 37.4837 55.6398 37.4912C55.6359 37.495 55.632 37.4987 55.6281 37.5026L54.7995 38.3309C54.4727 38.6576 54.2859 39.1009 54.2859 39.5688V40.7693C54.2859 42.7059 52.7104 44.2821 50.773 44.2821H49.5709C49.1041 44.2821 48.6606 44.4676 48.3338 44.7943L47.4935 45.6343C46.8049 46.3238 45.9062 46.6609 45.0076 46.6609C44.1089 46.6609 43.2103 46.3238 42.5217 45.6471L41.6697 44.7943C41.3429 44.4676 40.8994 44.2821 40.4326 44.2821H39.2305C37.2931 44.2821 35.7175 42.7059 35.7175 40.7693V39.5688C35.7175 39.1009 35.5308 38.6576 35.204 38.3193L34.3637 37.4909C32.9982 36.1271 32.9865 33.8976 34.352 32.5221L35.204 31.6693C35.5308 31.3426 35.7175 30.8993 35.7175 30.4209V29.2309C35.7175 27.2943 37.2931 25.7204 39.2305 25.7204H40.4326C40.8994 25.7204 41.3429 25.5326 41.6697 25.2059L42.51 24.3659C43.8755 22.9904 46.1046 22.9904 47.4818 24.3554L48.3338 25.2059C48.6606 25.5326 49.1041 25.7204 49.5709 25.7204H50.773C52.7104 25.7204 54.2859 27.2943 54.2859 29.2309V30.4338C54.2859 30.8993 54.4727 31.3426 54.7995 31.6693ZM41.9965 39.0193C42.2766 39.0193 42.5334 38.9143 42.7201 38.716L48.7189 32.7205C49.1158 32.3238 49.1158 31.6693 48.7189 31.2726C48.3221 30.8771 47.6802 30.8771 47.2834 31.2726L41.2846 37.2693C40.8878 37.666 40.8878 38.3193 41.2846 38.716C41.4713 38.9143 41.7281 39.0193 41.9965 39.0193ZM46.98 37.9926C46.98 38.5643 47.4351 39.0193 48.007 39.0193C48.5672 39.0193 49.0224 38.5643 49.0224 37.9926C49.0224 37.4338 48.5672 36.9776 48.007 36.9776C47.4351 36.9776 46.98 37.4338 46.98 37.9926ZM42.0081 30.9809C42.5683 30.9809 43.0235 31.4359 43.0235 31.9959C43.0235 32.5687 42.5683 33.0226 42.0081 33.0226C41.4479 33.0226 40.9811 32.5687 40.9811 31.9959C40.9811 31.4359 41.4479 30.9809 42.0081 30.9809Z" fill="#51A690"/>
<defs>
<filter id="filter0_d_2_3343" x="0" y="0" width="90" height="90" filterUnits="userSpaceOnUse" color-interpolation-filters="sRGB">
<feFlood flood-opacity="0" result="BackgroundImageFix"/>
<feColorMatrix in="SourceAlpha" type="matrix" values="0 0 0 0 0 0 0 0 0 0 0 0 0 0 0 0 0 0 127 0" result="hardAlpha"/>
<feOffset dy="10"/>
<feGaussianBlur stdDeviation="10"/>
<feColorMatrix type="matrix" values="0 0 0 0 0.0235294 0 0 0 0 0.301961 0 0 0 0 0.227451 0 0 0 0.03 0"/>
<feBlend mode="normal" in2="BackgroundImageFix" result="effect1_dropShadow_2_3343"/>
<feBlend mode="normal" in="SourceGraphic" in2="effect1_dropShadow_2_3343" result="shape"/>
</filter>
</defs>
</svg>
