<svg width="90" height="90" viewBox="0 0 90 90" fill="none" xmlns="http://www.w3.org/2000/svg">
<g filter="url(#filter0_d_2_3272)">
<rect x="20" y="10" width="50" height="50" rx="15" fill="#FFE7DB"/>
</g>
<path fill-rule="evenodd" clip-rule="evenodd" d="M39.5522 23.3339H50.4477C54.4155 23.3339 56.6555 25.5844 56.6672 29.5522V40.4489C56.6672 44.4155 54.4155 46.6672 50.4477 46.6672H39.5522C35.5844 46.6672 33.3339 44.4155 33.3339 40.4489V29.5522C33.3339 25.5844 35.5844 23.3339 39.5522 23.3339ZM45.0577 41.8372C45.5605 41.8372 45.9793 41.4639 46.026 40.9622V29.0739C46.0727 28.7122 45.8988 28.3494 45.5838 28.1522C45.256 27.9539 44.8593 27.9539 44.5455 28.1522C44.2293 28.3494 44.0555 28.7122 44.0893 29.0739V40.9622C44.1488 41.4639 44.5677 41.8372 45.0577 41.8372ZM50.4255 41.8372C50.9155 41.8372 51.3343 41.4639 51.3938 40.9622V37.1355C51.4277 36.761 51.2538 36.4122 50.9377 36.2139C50.6238 36.0155 50.2272 36.0155 49.9005 36.2139C49.5843 36.4122 49.4105 36.761 49.4572 37.1355V40.9622C49.5038 41.4639 49.9227 41.8372 50.4255 41.8372ZM40.5894 40.9622C40.5427 41.4639 40.1239 41.8372 39.621 41.8372C39.1194 41.8372 38.6994 41.4639 38.6539 40.9622V32.9006C38.6189 32.5377 38.7927 32.1772 39.1089 31.9789C39.4227 31.7806 39.8205 31.7806 40.1355 31.9789C40.4494 32.1772 40.6255 32.5377 40.5894 32.9006V40.9622Z" fill="#FEAD86"/>
<defs>
<filter id="filter0_d_2_3272" x="0" y="0" width="90" height="90" filterUnits="userSpaceOnUse" color-interpolation-filters="sRGB">
<feFlood flood-opacity="0" result="BackgroundImageFix"/>
<feColorMatrix in="SourceAlpha" type="matrix" values="0 0 0 0 0 0 0 0 0 0 0 0 0 0 0 0 0 0 127 0" result="hardAlpha"/>
<feOffset dy="10"/>
<feGaussianBlur stdDeviation="10"/>
<feColorMatrix type="matrix" values="0 0 0 0 0.770833 0 0 0 0 0.619075 0 0 0 0 0.56849 0 0 0 0.1 0"/>
<feBlend mode="normal" in2="BackgroundImageFix" result="effect1_dropShadow_2_3272"/>
<feBlend mode="normal" in="SourceGraphic" in2="effect1_dropShadow_2_3272" result="shape"/>
</filter>
</defs>
</svg>
