<svg width="193" height="98" viewBox="0 0 193 98" fill="none" xmlns="http://www.w3.org/2000/svg">
<g filter="url(#filter0_d_2_3096)">
<rect x="20" y="16" width="152.934" height="58" rx="8" fill="white"/>
</g>
<path d="M38.6931 29.6H40.1331V38H38.4771V31.352L36.8931 31.796L36.4851 30.38L38.6931 29.6ZM46.2498 33.632C47.0258 34.096 47.4138 34.772 47.4138 35.66C47.4138 36.436 47.1418 37.048 46.5978 37.496C46.0618 37.944 45.3298 38.168 44.4018 38.168C43.4658 38.168 42.7298 37.944 42.1938 37.496C41.6578 37.048 41.3898 36.436 41.3898 35.66C41.3898 34.772 41.7738 34.096 42.5418 33.632C41.9578 33.208 41.6658 32.628 41.6658 31.892C41.6658 31.116 41.9258 30.512 42.4458 30.08C42.9738 29.648 43.6258 29.432 44.4018 29.432C45.1778 29.432 45.8258 29.648 46.3458 30.08C46.8658 30.512 47.1258 31.116 47.1258 31.892C47.1258 32.636 46.8338 33.216 46.2498 33.632ZM45.1818 31.256C44.9818 31.08 44.7218 30.992 44.4018 30.992C44.0818 30.992 43.8218 31.08 43.6218 31.256C43.4218 31.432 43.3218 31.672 43.3218 31.976C43.3218 32.28 43.4218 32.524 43.6218 32.708C43.8218 32.884 44.0818 32.972 44.4018 32.972C44.7218 32.972 44.9818 32.884 45.1818 32.708C45.3818 32.524 45.4818 32.28 45.4818 31.976C45.4818 31.672 45.3818 31.432 45.1818 31.256ZM43.4058 36.308C43.6618 36.508 43.9938 36.608 44.4018 36.608C44.8098 36.608 45.1378 36.508 45.3858 36.308C45.6418 36.1 45.7698 35.812 45.7698 35.444C45.7698 35.084 45.6418 34.804 45.3858 34.604C45.1378 34.396 44.8098 34.292 44.4018 34.292C43.9938 34.292 43.6618 34.396 43.4058 34.604C43.1578 34.804 43.0338 35.084 43.0338 35.444C43.0338 35.812 43.1578 36.1 43.4058 36.308ZM51.0569 32.66C51.8649 32.66 52.5449 32.904 53.0969 33.392C53.6489 33.872 53.9249 34.544 53.9249 35.408C53.9249 36.272 53.6329 36.948 53.0489 37.436C52.4729 37.924 51.7649 38.168 50.9249 38.168C50.2449 38.168 49.6449 38.016 49.1249 37.712C48.6049 37.408 48.2289 36.96 47.9969 36.368L49.4129 35.54C49.6209 36.212 50.1249 36.548 50.9249 36.548C51.3489 36.548 51.6769 36.448 51.9089 36.248C52.1489 36.04 52.2689 35.76 52.2689 35.408C52.2689 35.064 52.1529 34.788 51.9209 34.58C51.6889 34.372 51.3729 34.268 50.9729 34.268H48.4289L48.7649 29.6H53.5289V31.148H50.3009L50.1929 32.66H51.0569Z" fill="#017EFA"/>
<path opacity="0.7" d="M61.0943 33.416C60.8783 33.416 60.6943 33.34 60.5423 33.188C60.3903 33.036 60.3143 32.852 60.3143 32.636C60.3143 32.42 60.3903 32.236 60.5423 32.084C60.6943 31.932 60.8783 31.856 61.0943 31.856C61.3183 31.856 61.5023 31.932 61.6463 32.084C61.7983 32.236 61.8743 32.42 61.8743 32.636C61.8743 32.852 61.7983 33.036 61.6463 33.188C61.5023 33.34 61.3183 33.416 61.0943 33.416ZM61.0943 38.132C60.8783 38.132 60.6943 38.056 60.5423 37.904C60.3903 37.752 60.3143 37.568 60.3143 37.352C60.3143 37.136 60.3903 36.952 60.5423 36.8C60.6943 36.648 60.8783 36.572 61.0943 36.572C61.3183 36.572 61.5023 36.648 61.6463 36.8C61.7983 36.952 61.8743 37.136 61.8743 37.352C61.8743 37.568 61.7983 37.752 61.6463 37.904C61.5023 38.056 61.3183 38.132 61.0943 38.132ZM71.8363 29.6V30.656H69.3523V38H68.2483V30.656H65.7763V29.6H71.8363ZM76.8069 37.244C76.1909 37.852 75.4429 38.156 74.5629 38.156C73.6829 38.156 72.9349 37.852 72.3189 37.244C71.7109 36.636 71.4069 35.888 71.4069 35C71.4069 34.112 71.7109 33.364 72.3189 32.756C72.9349 32.148 73.6829 31.844 74.5629 31.844C75.4429 31.844 76.1909 32.148 76.8069 32.756C77.4229 33.364 77.7309 34.112 77.7309 35C77.7309 35.888 77.4229 36.636 76.8069 37.244ZM74.5629 37.136C75.1629 37.136 75.6669 36.932 76.0749 36.524C76.4829 36.116 76.6869 35.608 76.6869 35C76.6869 34.392 76.4829 33.884 76.0749 33.476C75.6669 33.068 75.1629 32.864 74.5629 32.864C73.9709 32.864 73.4709 33.068 73.0629 33.476C72.6549 33.884 72.4509 34.392 72.4509 35C72.4509 35.608 72.6549 36.116 73.0629 36.524C73.4709 36.932 73.9709 37.136 74.5629 37.136ZM82.0968 33.008H80.5008V36.26C80.5008 36.556 80.5568 36.768 80.6688 36.896C80.7888 37.016 80.9688 37.08 81.2088 37.088C81.4488 37.088 81.7448 37.08 82.0968 37.064V38C81.1848 38.12 80.5168 38.048 80.0928 37.784C79.6688 37.512 79.4568 37.004 79.4568 36.26V33.008H78.2688V32H79.4568V30.632L80.5008 30.32V32H82.0968V33.008ZM87.9961 32H89.0401V38H87.9961V36.968C87.4761 37.76 86.7201 38.156 85.7281 38.156C84.8881 38.156 84.1721 37.852 83.5801 37.244C82.9881 36.628 82.6921 35.88 82.6921 35C82.6921 34.12 82.9881 33.376 83.5801 32.768C84.1721 32.152 84.8881 31.844 85.7281 31.844C86.7201 31.844 87.4761 32.24 87.9961 33.032V32ZM85.8601 37.148C86.4681 37.148 86.9761 36.944 87.3841 36.536C87.7921 36.12 87.9961 35.608 87.9961 35C87.9961 34.392 87.7921 33.884 87.3841 33.476C86.9761 33.06 86.4681 32.852 85.8601 32.852C85.2601 32.852 84.7561 33.06 84.3481 33.476C83.9401 33.884 83.7361 34.392 83.7361 35C83.7361 35.608 83.9401 36.12 84.3481 36.536C84.7561 36.944 85.2601 37.148 85.8601 37.148ZM90.6218 38V29.24H91.6658V38H90.6218ZM97.4826 36.944H101.383V38H96.3666V29.6H101.323V30.656H97.4826V33.236H101.023V34.28H97.4826V36.944ZM107.83 38H106.606L104.926 35.732L103.234 38H102.01L104.314 34.916L102.142 32H103.378L104.926 34.088L106.474 32H107.698L105.538 34.904L107.83 38ZM112.11 31.844C112.95 31.844 113.666 32.152 114.258 32.768C114.85 33.376 115.146 34.12 115.146 35C115.146 35.88 114.85 36.628 114.258 37.244C113.666 37.852 112.95 38.156 112.11 38.156C111.118 38.156 110.362 37.76 109.842 36.968V40.4H108.798V32H109.842V33.032C110.362 32.24 111.118 31.844 112.11 31.844ZM111.978 37.148C112.578 37.148 113.082 36.944 113.49 36.536C113.898 36.12 114.102 35.608 114.102 35C114.102 34.392 113.898 33.884 113.49 33.476C113.082 33.06 112.578 32.852 111.978 32.852C111.37 32.852 110.862 33.06 110.454 33.476C110.046 33.884 109.842 34.392 109.842 35C109.842 35.608 110.046 36.12 110.454 36.536C110.862 36.944 111.37 37.148 111.978 37.148ZM117.123 35.48C117.227 36.016 117.471 36.432 117.855 36.728C118.247 37.024 118.727 37.172 119.295 37.172C120.087 37.172 120.663 36.88 121.023 36.296L121.911 36.8C121.327 37.704 120.447 38.156 119.271 38.156C118.319 38.156 117.543 37.86 116.943 37.268C116.351 36.668 116.055 35.912 116.055 35C116.055 34.096 116.347 33.344 116.931 32.744C117.515 32.144 118.271 31.844 119.199 31.844C120.079 31.844 120.795 32.156 121.347 32.78C121.907 33.396 122.187 34.14 122.187 35.012C122.187 35.164 122.175 35.32 122.151 35.48H117.123ZM119.199 32.828C118.639 32.828 118.175 32.988 117.807 33.308C117.439 33.62 117.211 34.04 117.123 34.568H121.131C121.043 34 120.819 33.568 120.459 33.272C120.099 32.976 119.679 32.828 119.199 32.828ZM126.375 31.844C127.079 31.844 127.643 32.068 128.067 32.516C128.491 32.956 128.703 33.556 128.703 34.316V38H127.659V34.376C127.659 33.888 127.527 33.512 127.263 33.248C126.999 32.976 126.635 32.84 126.171 32.84C125.651 32.84 125.231 33.004 124.911 33.332C124.591 33.652 124.431 34.148 124.431 34.82V38H123.387V32H124.431V32.864C124.855 32.184 125.503 31.844 126.375 31.844ZM131.061 33.62C131.061 33.852 131.177 34.04 131.409 34.184C131.641 34.32 131.921 34.432 132.249 34.52C132.577 34.6 132.905 34.696 133.233 34.808C133.561 34.912 133.841 35.096 134.073 35.36C134.305 35.616 134.421 35.948 134.421 36.356C134.421 36.9 134.209 37.336 133.785 37.664C133.369 37.992 132.833 38.156 132.177 38.156C131.593 38.156 131.093 38.028 130.677 37.772C130.261 37.516 129.965 37.176 129.789 36.752L130.689 36.236C130.785 36.524 130.965 36.752 131.229 36.92C131.493 37.088 131.809 37.172 132.177 37.172C132.521 37.172 132.805 37.108 133.029 36.98C133.253 36.844 133.365 36.636 133.365 36.356C133.365 36.124 133.249 35.94 133.017 35.804C132.785 35.66 132.505 35.548 132.177 35.468C131.849 35.38 131.521 35.28 131.193 35.168C130.865 35.056 130.585 34.872 130.353 34.616C130.121 34.36 130.005 34.032 130.005 33.632C130.005 33.112 130.205 32.684 130.605 32.348C131.013 32.012 131.521 31.844 132.129 31.844C132.617 31.844 133.049 31.956 133.425 32.18C133.809 32.396 134.097 32.7 134.289 33.092L133.413 33.584C133.197 33.072 132.769 32.816 132.129 32.816C131.833 32.816 131.581 32.888 131.373 33.032C131.165 33.168 131.061 33.364 131.061 33.62ZM136.225 35.48C136.329 36.016 136.573 36.432 136.957 36.728C137.349 37.024 137.829 37.172 138.397 37.172C139.189 37.172 139.765 36.88 140.125 36.296L141.013 36.8C140.429 37.704 139.549 38.156 138.373 38.156C137.421 38.156 136.645 37.86 136.045 37.268C135.453 36.668 135.157 35.912 135.157 35C135.157 34.096 135.449 33.344 136.033 32.744C136.617 32.144 137.373 31.844 138.301 31.844C139.181 31.844 139.897 32.156 140.449 32.78C141.009 33.396 141.289 34.14 141.289 35.012C141.289 35.164 141.277 35.32 141.253 35.48H136.225ZM138.301 32.828C137.741 32.828 137.277 32.988 136.909 33.308C136.541 33.62 136.313 34.04 136.225 34.568H140.233C140.145 34 139.921 33.568 139.561 33.272C139.201 32.976 138.781 32.828 138.301 32.828ZM143.155 33.62C143.155 33.852 143.271 34.04 143.503 34.184C143.735 34.32 144.015 34.432 144.343 34.52C144.671 34.6 144.999 34.696 145.327 34.808C145.655 34.912 145.935 35.096 146.167 35.36C146.399 35.616 146.515 35.948 146.515 36.356C146.515 36.9 146.303 37.336 145.879 37.664C145.463 37.992 144.927 38.156 144.271 38.156C143.687 38.156 143.187 38.028 142.771 37.772C142.355 37.516 142.059 37.176 141.883 36.752L142.783 36.236C142.879 36.524 143.059 36.752 143.323 36.92C143.587 37.088 143.903 37.172 144.271 37.172C144.615 37.172 144.899 37.108 145.123 36.98C145.347 36.844 145.459 36.636 145.459 36.356C145.459 36.124 145.343 35.94 145.111 35.804C144.879 35.66 144.599 35.548 144.271 35.468C143.943 35.38 143.615 35.28 143.287 35.168C142.959 35.056 142.679 34.872 142.447 34.616C142.215 34.36 142.099 34.032 142.099 33.632C142.099 33.112 142.299 32.684 142.699 32.348C143.107 32.012 143.615 31.844 144.223 31.844C144.711 31.844 145.143 31.956 145.519 32.18C145.903 32.396 146.191 32.7 146.383 33.092L145.507 33.584C145.291 33.072 144.863 32.816 144.223 32.816C143.927 32.816 143.675 32.888 143.467 33.032C143.259 33.168 143.155 33.364 143.155 33.62Z" fill="#1C1F37"/>
<path d="M42.1075 50.6H47.5315V52.004L44.6875 59H42.9355L45.6955 52.184H42.1075V50.6ZM50.4677 53.66C51.2757 53.66 51.9557 53.904 52.5077 54.392C53.0597 54.872 53.3357 55.544 53.3357 56.408C53.3357 57.272 53.0437 57.948 52.4597 58.436C51.8837 58.924 51.1757 59.168 50.3357 59.168C49.6557 59.168 49.0557 59.016 48.5357 58.712C48.0157 58.408 47.6397 57.96 47.4077 57.368L48.8237 56.54C49.0317 57.212 49.5357 57.548 50.3357 57.548C50.7597 57.548 51.0877 57.448 51.3197 57.248C51.5597 57.04 51.6797 56.76 51.6797 56.408C51.6797 56.064 51.5637 55.788 51.3317 55.58C51.0997 55.372 50.7837 55.268 50.3837 55.268H47.8397L48.1757 50.6H52.9397V52.148H49.7117L49.6037 53.66H50.4677Z" fill="#FD1F9B"/>
<path opacity="0.7" d="M60.5959 54.416C60.3799 54.416 60.1959 54.34 60.0439 54.188C59.8919 54.036 59.8159 53.852 59.8159 53.636C59.8159 53.42 59.8919 53.236 60.0439 53.084C60.1959 52.932 60.3799 52.856 60.5959 52.856C60.8199 52.856 61.0039 52.932 61.1479 53.084C61.2999 53.236 61.3759 53.42 61.3759 53.636C61.3759 53.852 61.2999 54.036 61.1479 54.188C61.0039 54.34 60.8199 54.416 60.5959 54.416ZM60.5959 59.132C60.3799 59.132 60.1959 59.056 60.0439 58.904C59.8919 58.752 59.8159 58.568 59.8159 58.352C59.8159 58.136 59.8919 57.952 60.0439 57.8C60.1959 57.648 60.3799 57.572 60.5959 57.572C60.8199 57.572 61.0039 57.648 61.1479 57.8C61.2999 57.952 61.3759 58.136 61.3759 58.352C61.3759 58.568 61.2999 58.752 61.1479 58.904C61.0039 59.056 60.8199 59.132 60.5959 59.132ZM69.2379 50.6C70.3819 50.6 71.3299 51.008 72.0819 51.824C72.8419 52.632 73.2219 53.624 73.2219 54.8C73.2219 55.976 72.8419 56.972 72.0819 57.788C71.3299 58.596 70.3819 59 69.2379 59H65.9619V50.6H69.2379ZM69.2379 57.944C70.0939 57.944 70.7939 57.644 71.3379 57.044C71.8819 56.444 72.1539 55.696 72.1539 54.8C72.1539 53.904 71.8819 53.156 71.3379 52.556C70.7939 51.956 70.0939 51.656 69.2379 51.656H67.0779V57.944H69.2379ZM79.4352 53H80.4792V59H79.4352V57.968C78.9152 58.76 78.1592 59.156 77.1672 59.156C76.3272 59.156 75.6112 58.852 75.0192 58.244C74.4272 57.628 74.1312 56.88 74.1312 56C74.1312 55.12 74.4272 54.376 75.0192 53.768C75.6112 53.152 76.3272 52.844 77.1672 52.844C78.1592 52.844 78.9152 53.24 79.4352 54.032V53ZM77.2992 58.148C77.9072 58.148 78.4152 57.944 78.8232 57.536C79.2312 57.12 79.4352 56.608 79.4352 56C79.4352 55.392 79.2312 54.884 78.8232 54.476C78.4152 54.06 77.9072 53.852 77.2992 53.852C76.6992 53.852 76.1952 54.06 75.7872 54.476C75.3792 54.884 75.1752 55.392 75.1752 56C75.1752 56.608 75.3792 57.12 75.7872 57.536C76.1952 57.944 76.6992 58.148 77.2992 58.148ZM82.5889 51.908C82.3889 51.908 82.2209 51.84 82.0849 51.704C81.9489 51.568 81.8809 51.404 81.8809 51.212C81.8809 51.02 81.9489 50.856 82.0849 50.72C82.2209 50.576 82.3889 50.504 82.5889 50.504C82.7809 50.504 82.9449 50.576 83.0809 50.72C83.2169 50.856 83.2849 51.02 83.2849 51.212C83.2849 51.404 83.2169 51.568 83.0809 51.704C82.9449 51.84 82.7809 51.908 82.5889 51.908ZM82.0609 59V53H83.1049V59H82.0609ZM84.6976 59V50.24H85.7416V59H84.6976ZM91.5224 53H92.6384L90.1904 59.372C89.9344 60.052 89.5744 60.568 89.1104 60.92C88.6544 61.28 88.1264 61.44 87.5264 61.4V60.428C88.2624 60.484 88.8024 60.076 89.1464 59.204L89.2544 58.976L86.6384 53H87.7544L89.7944 57.704L91.5224 53ZM101.838 50.6H102.954V59H102.054L97.7341 52.724V59H96.6181V50.6H97.5181L101.838 56.864V50.6ZM105.375 56.48C105.479 57.016 105.723 57.432 106.107 57.728C106.499 58.024 106.979 58.172 107.547 58.172C108.339 58.172 108.915 57.88 109.275 57.296L110.163 57.8C109.579 58.704 108.699 59.156 107.523 59.156C106.571 59.156 105.795 58.86 105.195 58.268C104.603 57.668 104.307 56.912 104.307 56C104.307 55.096 104.599 54.344 105.183 53.744C105.767 53.144 106.523 52.844 107.451 52.844C108.331 52.844 109.047 53.156 109.599 53.78C110.159 54.396 110.439 55.14 110.439 56.012C110.439 56.164 110.427 56.32 110.403 56.48H105.375ZM107.451 53.828C106.891 53.828 106.427 53.988 106.059 54.308C105.691 54.62 105.463 55.04 105.375 55.568H109.383C109.295 55 109.071 54.568 108.711 54.272C108.351 53.976 107.931 53.828 107.451 53.828ZM112.359 56.48C112.463 57.016 112.707 57.432 113.091 57.728C113.483 58.024 113.963 58.172 114.531 58.172C115.323 58.172 115.899 57.88 116.259 57.296L117.147 57.8C116.563 58.704 115.683 59.156 114.507 59.156C113.555 59.156 112.779 58.86 112.179 58.268C111.587 57.668 111.291 56.912 111.291 56C111.291 55.096 111.583 54.344 112.167 53.744C112.751 53.144 113.507 52.844 114.435 52.844C115.315 52.844 116.031 53.156 116.583 53.78C117.143 54.396 117.423 55.14 117.423 56.012C117.423 56.164 117.411 56.32 117.387 56.48H112.359ZM114.435 53.828C113.875 53.828 113.411 53.988 113.043 54.308C112.675 54.62 112.447 55.04 112.359 55.568H116.367C116.279 55 116.055 54.568 115.695 54.272C115.335 53.976 114.915 53.828 114.435 53.828ZM123.58 50.6H124.624V59H123.58V57.968C123.06 58.76 122.304 59.156 121.312 59.156C120.472 59.156 119.756 58.852 119.164 58.244C118.572 57.628 118.276 56.88 118.276 56C118.276 55.12 118.572 54.376 119.164 53.768C119.756 53.152 120.472 52.844 121.312 52.844C122.304 52.844 123.06 53.24 123.58 54.032V50.6ZM121.444 58.148C122.052 58.148 122.56 57.944 122.968 57.536C123.376 57.12 123.58 56.608 123.58 56C123.58 55.392 123.376 54.884 122.968 54.476C122.56 54.06 122.052 53.852 121.444 53.852C120.844 53.852 120.34 54.06 119.932 54.476C119.524 54.884 119.32 55.392 119.32 56C119.32 56.608 119.524 57.12 119.932 57.536C120.34 57.944 120.844 58.148 121.444 58.148ZM127.094 54.62C127.094 54.852 127.21 55.04 127.442 55.184C127.674 55.32 127.954 55.432 128.282 55.52C128.61 55.6 128.938 55.696 129.266 55.808C129.594 55.912 129.874 56.096 130.106 56.36C130.338 56.616 130.454 56.948 130.454 57.356C130.454 57.9 130.242 58.336 129.818 58.664C129.402 58.992 128.866 59.156 128.21 59.156C127.626 59.156 127.126 59.028 126.71 58.772C126.294 58.516 125.998 58.176 125.822 57.752L126.722 57.236C126.818 57.524 126.998 57.752 127.262 57.92C127.526 58.088 127.842 58.172 128.21 58.172C128.554 58.172 128.838 58.108 129.062 57.98C129.286 57.844 129.398 57.636 129.398 57.356C129.398 57.124 129.282 56.94 129.05 56.804C128.818 56.66 128.538 56.548 128.21 56.468C127.882 56.38 127.554 56.28 127.226 56.168C126.898 56.056 126.618 55.872 126.386 55.616C126.154 55.36 126.038 55.032 126.038 54.632C126.038 54.112 126.238 53.684 126.638 53.348C127.046 53.012 127.554 52.844 128.162 52.844C128.65 52.844 129.082 52.956 129.458 53.18C129.842 53.396 130.13 53.7 130.322 54.092L129.446 54.584C129.23 54.072 128.802 53.816 128.162 53.816C127.866 53.816 127.614 53.888 127.406 54.032C127.198 54.168 127.094 54.364 127.094 54.62Z" fill="#1C1F37"/>
<defs>
<filter id="filter0_d_2_3096" x="0" y="0" width="192.934" height="98" filterUnits="userSpaceOnUse" color-interpolation-filters="sRGB">
<feFlood flood-opacity="0" result="BackgroundImageFix"/>
<feColorMatrix in="SourceAlpha" type="matrix" values="0 0 0 0 0 0 0 0 0 0 0 0 0 0 0 0 0 0 127 0" result="hardAlpha"/>
<feOffset dy="4"/>
<feGaussianBlur stdDeviation="10"/>
<feColorMatrix type="matrix" values="0 0 0 0 0.890556 0 0 0 0 0.897623 0 0 0 0 0.954167 0 0 0 1 0"/>
<feBlend mode="normal" in2="BackgroundImageFix" result="effect1_dropShadow_2_3096"/>
<feBlend mode="normal" in="SourceGraphic" in2="effect1_dropShadow_2_3096" result="shape"/>
</filter>
</defs>
</svg>
