<svg width="827" height="380" viewBox="0 0 827 380" fill="none" xmlns="http://www.w3.org/2000/svg">
<path d="M3.3 4H6.06V18H3.3V4ZM14.0916 7.72C15.1849 7.72 16.0849 8.08667 16.7916 8.82C17.5116 9.55333 17.8716 10.5667 17.8716 11.86V18H15.2916V12.18C15.2916 11.5133 15.1116 11.0067 14.7516 10.66C14.3916 10.3 13.9116 10.12 13.3116 10.12C12.6449 10.12 12.1116 10.3267 11.7116 10.74C11.3116 11.1533 11.1116 11.7733 11.1116 12.6V18H8.53156V8H11.1116V9.12C11.7382 8.18667 12.7316 7.72 14.0916 7.72ZM24.8345 18.28C23.3279 18.28 22.0679 17.7733 21.0545 16.76C20.0545 15.7467 19.5545 14.4933 19.5545 13C19.5545 11.5067 20.0545 10.2533 21.0545 9.24C22.0679 8.22667 23.3279 7.72 24.8345 7.72C25.8079 7.72 26.6945 7.95333 27.4945 8.42C28.2945 8.88667 28.9012 9.51333 29.3145 10.3L27.0945 11.6C26.8945 11.1867 26.5879 10.86 26.1745 10.62C25.7745 10.38 25.3212 10.26 24.8145 10.26C24.0412 10.26 23.4012 10.52 22.8945 11.04C22.3879 11.5467 22.1345 12.2 22.1345 13C22.1345 13.7867 22.3879 14.44 22.8945 14.96C23.4012 15.4667 24.0412 15.72 24.8145 15.72C25.3345 15.72 25.7945 15.6067 26.1945 15.38C26.6079 15.14 26.9145 14.8133 27.1145 14.4L29.3545 15.68C28.9145 16.4667 28.2945 17.1 27.4945 17.58C26.6945 18.0467 25.8079 18.28 24.8345 18.28ZM39.0828 16.76C38.0561 17.7733 36.8028 18.28 35.3228 18.28C33.8428 18.28 32.5895 17.7733 31.5628 16.76C30.5495 15.7333 30.0428 14.48 30.0428 13C30.0428 11.52 30.5495 10.2733 31.5628 9.26C32.5895 8.23333 33.8428 7.72 35.3228 7.72C36.8028 7.72 38.0561 8.23333 39.0828 9.26C40.1095 10.2733 40.6228 11.52 40.6228 13C40.6228 14.48 40.1095 15.7333 39.0828 16.76ZM33.3828 14.98C33.9028 15.5 34.5495 15.76 35.3228 15.76C36.0961 15.76 36.7428 15.5 37.2628 14.98C37.7828 14.46 38.0428 13.8 38.0428 13C38.0428 12.2 37.7828 11.54 37.2628 11.02C36.7428 10.5 36.0961 10.24 35.3228 10.24C34.5495 10.24 33.9028 10.5 33.3828 11.02C32.8761 11.54 32.6228 12.2 32.6228 13C32.6228 13.8 32.8761 14.46 33.3828 14.98ZM53.4978 7.72C54.6445 7.72 55.5578 8.09333 56.2378 8.84C56.9311 9.58667 57.2778 10.5867 57.2778 11.84V18H54.6978V12.02C54.6978 11.42 54.5511 10.9533 54.2578 10.62C53.9645 10.2867 53.5511 10.12 53.0178 10.12C52.4311 10.12 51.9711 10.3133 51.6378 10.7C51.3178 11.0867 51.1578 11.6467 51.1578 12.38V18H48.5778V12.02C48.5778 11.42 48.4311 10.9533 48.1378 10.62C47.8445 10.2867 47.4311 10.12 46.8978 10.12C46.3245 10.12 45.8645 10.3133 45.5178 10.7C45.1845 11.0867 45.0178 11.6467 45.0178 12.38V18H42.4378V8H45.0178V9.06C45.6178 8.16667 46.5445 7.72 47.7978 7.72C49.0245 7.72 49.9311 8.2 50.5178 9.16C51.1845 8.2 52.1778 7.72 53.4978 7.72ZM61.6491 14.06C61.9957 15.3133 62.9357 15.94 64.4691 15.94C65.4557 15.94 66.2024 15.6067 66.7091 14.94L68.7891 16.14C67.8024 17.5667 66.3491 18.28 64.4291 18.28C62.7757 18.28 61.4491 17.78 60.4491 16.78C59.4491 15.78 58.9491 14.52 58.9491 13C58.9491 11.4933 59.4424 10.24 60.4291 9.24C61.4157 8.22667 62.6824 7.72 64.2291 7.72C65.6957 7.72 66.9024 8.22667 67.8491 9.24C68.8091 10.2533 69.2891 11.5067 69.2891 13C69.2891 13.3333 69.2557 13.6867 69.1891 14.06H61.6491ZM61.6091 12.06H66.7091C66.5624 11.38 66.2557 10.8733 65.7891 10.54C65.3357 10.2067 64.8157 10.04 64.2291 10.04C63.5357 10.04 62.9624 10.22 62.5091 10.58C62.0557 10.9267 61.7557 11.42 61.6091 12.06ZM82.6702 8H85.5102L81.7102 18H78.7702L74.9702 8H77.8102L80.2302 15L82.6702 8ZM88.5092 10.84C88.5092 11.1067 88.6826 11.3267 89.0292 11.5C89.3892 11.66 89.8226 11.8067 90.3292 11.94C90.8359 12.06 91.3426 12.22 91.8492 12.42C92.3559 12.6067 92.7826 12.9267 93.1292 13.38C93.4892 13.8333 93.6692 14.4 93.6692 15.08C93.6692 16.1067 93.2826 16.9 92.5092 17.46C91.7492 18.0067 90.7959 18.28 89.6492 18.28C87.5959 18.28 86.1959 17.4867 85.4492 15.9L87.6892 14.64C87.9826 15.5067 88.6359 15.94 89.6492 15.94C90.5692 15.94 91.0292 15.6533 91.0292 15.08C91.0292 14.8133 90.8492 14.6 90.4892 14.44C90.1426 14.2667 89.7159 14.1133 89.2092 13.98C88.7026 13.8467 88.1959 13.68 87.6892 13.48C87.1826 13.28 86.7492 12.9667 86.3892 12.54C86.0426 12.1 85.8692 11.5533 85.8692 10.9C85.8692 9.91333 86.2292 9.14 86.9492 8.58C87.6826 8.00667 88.5892 7.72 89.6692 7.72C90.4826 7.72 91.2226 7.90667 91.8892 8.28C92.5559 8.64 93.0826 9.16 93.4692 9.84L91.2692 11.04C90.9492 10.36 90.4159 10.02 89.6692 10.02C89.3359 10.02 89.0559 10.0933 88.8292 10.24C88.6159 10.3867 88.5092 10.5867 88.5092 10.84ZM103.306 15.36H109.206V18H100.546V4H109.106V6.64H103.306V9.62H108.606V12.22H103.306V15.36ZM120.252 18H117.272L115.112 14.96L112.932 18H109.952L113.612 12.9L110.112 8H113.092L115.112 10.82L117.132 8H120.092L116.592 12.88L120.252 18ZM127.359 7.72C128.706 7.72 129.853 8.23333 130.799 9.26C131.759 10.2733 132.239 11.52 132.239 13C132.239 14.48 131.759 15.7333 130.799 16.76C129.853 17.7733 128.706 18.28 127.359 18.28C125.959 18.28 124.879 17.7933 124.119 16.82V22H121.539V8H124.119V9.18C124.879 8.20667 125.959 7.72 127.359 7.72ZM124.899 15.04C125.419 15.56 126.079 15.82 126.879 15.82C127.679 15.82 128.339 15.56 128.859 15.04C129.393 14.5067 129.659 13.8267 129.659 13C129.659 12.1733 129.393 11.5 128.859 10.98C128.339 10.4467 127.679 10.18 126.879 10.18C126.079 10.18 125.419 10.4467 124.899 10.98C124.379 11.5 124.119 12.1733 124.119 13C124.119 13.8267 124.379 14.5067 124.899 15.04ZM136.239 14.06C136.586 15.3133 137.526 15.94 139.059 15.94C140.046 15.94 140.792 15.6067 141.299 14.94L143.379 16.14C142.392 17.5667 140.939 18.28 139.019 18.28C137.366 18.28 136.039 17.78 135.039 16.78C134.039 15.78 133.539 14.52 133.539 13C133.539 11.4933 134.032 10.24 135.019 9.24C136.006 8.22667 137.272 7.72 138.819 7.72C140.286 7.72 141.492 8.22667 142.439 9.24C143.399 10.2533 143.879 11.5067 143.879 13C143.879 13.3333 143.846 13.6867 143.779 14.06H136.239ZM136.199 12.06H141.299C141.152 11.38 140.846 10.8733 140.379 10.54C139.926 10.2067 139.406 10.04 138.819 10.04C138.126 10.04 137.552 10.22 137.099 10.58C136.646 10.9267 136.346 11.42 136.199 12.06ZM151.24 7.72C152.333 7.72 153.233 8.08667 153.94 8.82C154.66 9.55333 155.02 10.5667 155.02 11.86V18H152.44V12.18C152.44 11.5133 152.26 11.0067 151.9 10.66C151.54 10.3 151.06 10.12 150.46 10.12C149.793 10.12 149.26 10.3267 148.86 10.74C148.46 11.1533 148.26 11.7733 148.26 12.6V18H145.68V8H148.26V9.12C148.887 8.18667 149.88 7.72 151.24 7.72ZM159.603 10.84C159.603 11.1067 159.776 11.3267 160.123 11.5C160.483 11.66 160.916 11.8067 161.423 11.94C161.93 12.06 162.436 12.22 162.943 12.42C163.45 12.6067 163.876 12.9267 164.223 13.38C164.583 13.8333 164.763 14.4 164.763 15.08C164.763 16.1067 164.376 16.9 163.603 17.46C162.843 18.0067 161.89 18.28 160.743 18.28C158.69 18.28 157.29 17.4867 156.543 15.9L158.783 14.64C159.076 15.5067 159.73 15.94 160.743 15.94C161.663 15.94 162.123 15.6533 162.123 15.08C162.123 14.8133 161.943 14.6 161.583 14.44C161.236 14.2667 160.81 14.1133 160.303 13.98C159.796 13.8467 159.29 13.68 158.783 13.48C158.276 13.28 157.843 12.9667 157.483 12.54C157.136 12.1 156.963 11.5533 156.963 10.9C156.963 9.91333 157.323 9.14 158.043 8.58C158.776 8.00667 159.683 7.72 160.763 7.72C161.576 7.72 162.316 7.90667 162.983 8.28C163.65 8.64 164.176 9.16 164.563 9.84L162.363 11.04C162.043 10.36 161.51 10.02 160.763 10.02C160.43 10.02 160.15 10.0933 159.923 10.24C159.71 10.3867 159.603 10.5867 159.603 10.84ZM168.465 14.06C168.812 15.3133 169.752 15.94 171.285 15.94C172.272 15.94 173.019 15.6067 173.525 14.94L175.605 16.14C174.619 17.5667 173.165 18.28 171.245 18.28C169.592 18.28 168.265 17.78 167.265 16.78C166.265 15.78 165.765 14.52 165.765 13C165.765 11.4933 166.259 10.24 167.245 9.24C168.232 8.22667 169.499 7.72 171.045 7.72C172.512 7.72 173.719 8.22667 174.665 9.24C175.625 10.2533 176.105 11.5067 176.105 13C176.105 13.3333 176.072 13.6867 176.005 14.06H168.465ZM168.425 12.06H173.525C173.379 11.38 173.072 10.8733 172.605 10.54C172.152 10.2067 171.632 10.04 171.045 10.04C170.352 10.04 169.779 10.22 169.325 10.58C168.872 10.9267 168.572 11.42 168.425 12.06ZM179.896 10.84C179.896 11.1067 180.069 11.3267 180.416 11.5C180.776 11.66 181.209 11.8067 181.716 11.94C182.223 12.06 182.729 12.22 183.236 12.42C183.743 12.6067 184.169 12.9267 184.516 13.38C184.876 13.8333 185.056 14.4 185.056 15.08C185.056 16.1067 184.669 16.9 183.896 17.46C183.136 18.0067 182.183 18.28 181.036 18.28C178.983 18.28 177.583 17.4867 176.836 15.9L179.076 14.64C179.369 15.5067 180.023 15.94 181.036 15.94C181.956 15.94 182.416 15.6533 182.416 15.08C182.416 14.8133 182.236 14.6 181.876 14.44C181.529 14.2667 181.103 14.1133 180.596 13.98C180.089 13.8467 179.583 13.68 179.076 13.48C178.569 13.28 178.136 12.9667 177.776 12.54C177.429 12.1 177.256 11.5533 177.256 10.9C177.256 9.91333 177.616 9.14 178.336 8.58C179.069 8.00667 179.976 7.72 181.056 7.72C181.869 7.72 182.609 7.90667 183.276 8.28C183.943 8.64 184.469 9.16 184.856 9.84L182.656 11.04C182.336 10.36 181.803 10.02 181.056 10.02C180.723 10.02 180.443 10.0933 180.216 10.24C180.003 10.3867 179.896 10.5867 179.896 10.84Z" fill="#1C1F37"/>
<g filter="url(#filter0_d_13_38)">
<path d="M292.402 126C292.402 121.582 295.983 118 300.402 118H409.843C414.261 118 417.843 121.582 417.843 126V348C417.843 352.418 414.261 356 409.843 356H300.402C295.983 356 292.402 352.418 292.402 348V126Z" fill="white"/>
</g>
<path d="M96.7262 339H98.1122L94.4582 329.2H92.9882L89.3342 339H90.7202L91.5182 336.802H95.9282L96.7262 339ZM91.9662 335.584L93.7162 330.754L95.4802 335.584H91.9662ZM103.006 331.818C101.816 331.818 100.92 332.35 100.36 333.204V332H99.1423V341.8H100.36V337.796C100.92 338.65 101.816 339.182 103.006 339.182C104.952 339.182 106.548 337.572 106.548 335.5C106.548 333.428 104.952 331.818 103.006 331.818ZM102.852 338.006C101.438 338.006 100.36 336.928 100.36 335.5C100.36 334.072 101.438 332.994 102.852 332.994C104.252 332.994 105.33 334.072 105.33 335.5C105.33 336.928 104.252 338.006 102.852 338.006ZM109.22 333.176V332H108.002V339H109.22V335.29C109.22 333.638 110.354 333.106 111.404 333.148V331.874C110.522 331.874 109.668 332.196 109.22 333.176ZM115.675 339H122.003V337.74H117.565L120.071 335.248C121.037 334.282 121.821 333.232 121.821 332.014C121.821 330.082 120.295 329.018 118.769 329.018C117.495 329.018 116.305 329.648 115.675 330.95L116.767 331.594C117.187 330.712 117.887 330.278 118.783 330.278C119.693 330.278 120.519 330.88 120.519 332.028C120.519 332.854 119.903 333.638 119.133 334.408L115.675 337.936V339ZM125.258 329.2L122.682 330.096L123.004 331.216L125.09 330.6V339H126.378V329.2H125.258Z" fill="#8E8E8E"/>
<path d="M221.35 329.2H219.88L216.772 334.38L213.65 329.2H212.18V339H213.482V331.356L216.688 336.676H216.856L220.062 331.342V339H221.35V329.2ZM229.115 332V333.204C228.555 332.35 227.659 331.818 226.469 331.818C224.523 331.818 222.927 333.428 222.927 335.5C222.927 337.572 224.523 339.182 226.469 339.182C227.659 339.182 228.555 338.65 229.115 337.796V339H230.333V332H229.115ZM226.623 338.006C225.223 338.006 224.145 336.928 224.145 335.5C224.145 334.072 225.223 332.994 226.623 332.994C228.037 332.994 229.115 334.072 229.115 335.5C229.115 336.928 228.037 338.006 226.623 338.006ZM237.065 332L235.049 337.488L232.669 332H231.367L234.419 338.972L234.293 339.238C233.929 340.162 233.341 340.736 232.403 340.666V341.8C233.831 341.898 234.923 341.002 235.511 339.434L238.367 332H237.065ZM242.464 339H248.792V337.74H244.354L246.86 335.248C247.826 334.282 248.61 333.232 248.61 332.014C248.61 330.082 247.084 329.018 245.558 329.018C244.284 329.018 243.094 329.648 242.464 330.95L243.556 331.594C243.976 330.712 244.676 330.278 245.572 330.278C246.482 330.278 247.308 330.88 247.308 332.028C247.308 332.854 246.692 333.638 245.922 334.408L242.464 337.936V339ZM252.046 329.2L249.47 330.096L249.792 331.216L251.878 330.6V339H253.166V329.2H252.046Z" fill="#8E8E8E"/>
<path d="M341.052 339.182C342.844 339.182 344.342 338.174 344.342 336.13V329.2H343.054V336.13C343.054 337.348 342.256 337.908 341.052 337.908C340.1 337.908 339.4 337.572 339.092 336.788L337.986 337.432C338.504 338.594 339.666 339.182 341.052 339.182ZM351.015 332V335.71C351.015 337.362 350.105 338.02 348.985 338.02C347.907 338.02 347.249 337.376 347.249 336.228V332H346.031V336.298C346.031 338.09 347.109 339.182 348.747 339.182C349.727 339.182 350.497 338.818 351.015 337.992V339H352.233V332H351.015ZM357.573 331.818C356.593 331.818 355.823 332.182 355.305 333.008V332H354.087V339H355.305V335.29C355.305 333.638 356.215 332.98 357.335 332.98C358.413 332.98 359.071 333.624 359.071 334.772V339H360.289V334.702C360.289 332.91 359.211 331.818 357.573 331.818ZM365.07 339H371.398V337.74H366.96L369.466 335.248C370.432 334.282 371.216 333.232 371.216 332.014C371.216 330.082 369.69 329.018 368.164 329.018C366.89 329.018 365.7 329.648 365.07 330.95L366.162 331.594C366.582 330.712 367.282 330.278 368.178 330.278C369.088 330.278 369.914 330.88 369.914 332.028C369.914 332.854 369.298 333.638 368.528 334.408L365.07 337.936V339ZM374.652 329.2L372.076 330.096L372.398 331.216L374.484 330.6V339H375.772V329.2H374.652Z" fill="#8E8E8E"/>
<path d="M325.772 198.2H326.892V208H325.604V199.6L323.518 200.216L323.196 199.096L325.772 198.2ZM332.414 202.218C333.161 202.358 333.772 202.68 334.248 203.184C334.724 203.688 334.962 204.327 334.962 205.102C334.962 206.054 334.636 206.805 333.982 207.356C333.329 207.907 332.536 208.182 331.602 208.182C330.856 208.182 330.193 208.014 329.614 207.678C329.036 207.333 328.625 206.838 328.382 206.194L329.474 205.55C329.764 206.455 330.473 206.908 331.602 206.908C332.209 206.908 332.704 206.749 333.086 206.432C333.469 206.115 333.66 205.671 333.66 205.102C333.66 204.533 333.469 204.089 333.086 203.772C332.704 203.445 332.209 203.282 331.602 203.282H331.266L330.748 202.484L333.016 199.418H328.662V198.2H334.542V199.348L332.414 202.218ZM342.678 206.796C342.016 207.72 341.087 208.182 339.892 208.182C338.698 208.182 337.769 207.72 337.106 206.796C336.444 205.872 336.112 204.64 336.112 203.1C336.112 201.56 336.444 200.328 337.106 199.404C337.769 198.48 338.698 198.018 339.892 198.018C341.087 198.018 342.016 198.48 342.678 199.404C343.341 200.328 343.672 201.56 343.672 203.1C343.672 204.64 343.341 205.872 342.678 206.796ZM338.058 205.914C338.488 206.577 339.099 206.908 339.892 206.908C340.686 206.908 341.297 206.577 341.726 205.914C342.165 205.251 342.384 204.313 342.384 203.1C342.384 201.887 342.165 200.949 341.726 200.286C341.297 199.614 340.686 199.278 339.892 199.278C339.099 199.278 338.488 199.609 338.058 200.272C337.629 200.935 337.414 201.877 337.414 203.1C337.414 204.313 337.629 205.251 338.058 205.914ZM351.497 206.796C350.834 207.72 349.905 208.182 348.711 208.182C347.516 208.182 346.587 207.72 345.925 206.796C345.262 205.872 344.931 204.64 344.931 203.1C344.931 201.56 345.262 200.328 345.925 199.404C346.587 198.48 347.516 198.018 348.711 198.018C349.905 198.018 350.834 198.48 351.497 199.404C352.159 200.328 352.491 201.56 352.491 203.1C352.491 204.64 352.159 205.872 351.497 206.796ZM346.877 205.914C347.306 206.577 347.917 206.908 348.711 206.908C349.504 206.908 350.115 206.577 350.545 205.914C350.983 205.251 351.203 204.313 351.203 203.1C351.203 201.887 350.983 200.949 350.545 200.286C350.115 199.614 349.504 199.278 348.711 199.278C347.917 199.278 347.306 199.609 346.877 200.272C346.447 200.935 346.233 201.877 346.233 203.1C346.233 204.313 346.447 205.251 346.877 205.914Z" fill="#8E8E8E"/>
<path d="M363.772 165.2H364.892V175H363.604V166.6L361.518 167.216L361.196 166.096L363.772 165.2ZM366.242 165.2H372.36V166.362L368.79 175H367.432L370.974 166.432H366.242V165.2ZM379.503 173.796C378.84 174.72 377.911 175.182 376.717 175.182C375.522 175.182 374.593 174.72 373.931 173.796C373.268 172.872 372.937 171.64 372.937 170.1C372.937 168.56 373.268 167.328 373.931 166.404C374.593 165.48 375.522 165.018 376.717 165.018C377.911 165.018 378.84 165.48 379.503 166.404C380.165 167.328 380.497 168.56 380.497 170.1C380.497 171.64 380.165 172.872 379.503 173.796ZM374.883 172.914C375.312 173.577 375.923 173.908 376.717 173.908C377.51 173.908 378.121 173.577 378.551 172.914C378.989 172.251 379.209 171.313 379.209 170.1C379.209 168.887 378.989 167.949 378.551 167.286C378.121 166.614 377.51 166.278 376.717 166.278C375.923 166.278 375.312 166.609 374.883 167.272C374.453 167.935 374.239 168.877 374.239 170.1C374.239 171.313 374.453 172.251 374.883 172.914ZM388.321 173.796C387.658 174.72 386.73 175.182 385.535 175.182C384.34 175.182 383.412 174.72 382.749 173.796C382.086 172.872 381.755 171.64 381.755 170.1C381.755 168.56 382.086 167.328 382.749 166.404C383.412 165.48 384.34 165.018 385.535 165.018C386.73 165.018 387.658 165.48 388.321 166.404C388.984 167.328 389.315 168.56 389.315 170.1C389.315 171.64 388.984 172.872 388.321 173.796ZM383.701 172.914C384.13 173.577 384.742 173.908 385.535 173.908C386.328 173.908 386.94 173.577 387.369 172.914C387.808 172.251 388.027 171.313 388.027 170.1C388.027 168.887 387.808 167.949 387.369 167.286C386.94 166.614 386.328 166.278 385.535 166.278C384.742 166.278 384.13 166.609 383.701 167.272C383.272 167.935 383.057 168.877 383.057 170.1C383.057 171.313 383.272 172.251 383.701 172.914Z" fill="#8E8E8E"/>
<path d="M467.377 339.182C469.169 339.182 470.667 338.174 470.667 336.13V329.2H469.379V336.13C469.379 337.348 468.581 337.908 467.377 337.908C466.425 337.908 465.725 337.572 465.417 336.788L464.311 337.432C464.829 338.594 465.991 339.182 467.377 339.182ZM477.34 332V335.71C477.34 337.362 476.43 338.02 475.31 338.02C474.232 338.02 473.574 337.376 473.574 336.228V332H472.356V336.298C472.356 338.09 473.434 339.182 475.072 339.182C476.052 339.182 476.822 338.818 477.34 337.992V339H478.558V332H477.34ZM480.412 339H481.63V328.78H480.412V339ZM486.568 339H492.896V337.74H488.458L490.964 335.248C491.93 334.282 492.714 333.232 492.714 332.014C492.714 330.082 491.188 329.018 489.662 329.018C488.388 329.018 487.198 329.648 486.568 330.95L487.66 331.594C488.08 330.712 488.78 330.278 489.676 330.278C490.586 330.278 491.412 330.88 491.412 332.028C491.412 332.854 490.796 333.638 490.026 334.408L486.568 337.936V339ZM496.15 329.2L493.574 330.096L493.896 331.216L495.982 330.6V339H497.27V329.2H496.15Z" fill="#8E8E8E"/>
<path d="M597.607 339H598.993L595.339 329.2H593.869L590.215 339H591.601L592.399 336.802H596.809L597.607 339ZM592.847 335.584L594.597 330.754L596.361 335.584H592.847ZM604.785 332V335.71C604.785 337.362 603.875 338.02 602.755 338.02C601.677 338.02 601.019 337.376 601.019 336.228V332H599.801V336.298C599.801 338.09 600.879 339.182 602.517 339.182C603.497 339.182 604.267 338.818 604.785 337.992V339H606.003V332H604.785ZM613.667 332V333.204C613.107 332.35 612.211 331.818 611.035 331.818C609.047 331.818 607.465 333.428 607.465 335.458C607.465 337.502 609.047 339.112 611.035 339.112C612.211 339.112 613.107 338.566 613.667 337.712V338.706C613.667 340.022 612.785 340.848 611.329 340.848C609.957 340.848 609.369 340.33 609.047 339.672L607.983 340.274C608.557 341.38 609.733 341.982 611.301 341.982C613.121 341.982 614.871 340.89 614.871 338.706V332H613.667ZM611.175 337.95C609.761 337.95 608.683 336.872 608.683 335.458C608.683 334.058 609.761 332.98 611.175 332.98C612.589 332.98 613.667 334.058 613.667 335.458C613.667 336.872 612.589 337.95 611.175 337.95ZM619.797 339H626.125V337.74H621.687L624.193 335.248C625.159 334.282 625.943 333.232 625.943 332.014C625.943 330.082 624.417 329.018 622.891 329.018C621.617 329.018 620.427 329.648 619.797 330.95L620.889 331.594C621.309 330.712 622.009 330.278 622.905 330.278C623.815 330.278 624.641 330.88 624.641 332.028C624.641 332.854 624.025 333.638 623.255 334.408L619.797 337.936V339ZM629.379 329.2L626.803 330.096L627.125 331.216L629.211 330.6V339H630.499V329.2H629.379Z" fill="#8E8E8E"/>
<path d="M720.642 339.182C722.644 339.182 724.03 338.09 724.03 336.368C724.03 334.478 722.42 333.974 720.712 333.414C719.34 332.98 718.654 332.644 718.654 331.734C718.654 330.838 719.382 330.278 720.432 330.278C721.622 330.278 722.308 330.95 722.658 331.79L723.75 331.16C723.204 329.928 722.042 329.018 720.432 329.018C718.794 329.018 717.352 330.026 717.352 331.79C717.352 333.61 718.864 334.1 720.432 334.604C721.874 335.052 722.742 335.388 722.742 336.396C722.742 337.278 722.056 337.908 720.67 337.908C719.242 337.908 718.402 337.208 718.052 336.13L716.932 336.774C717.45 338.244 718.78 339.182 720.642 339.182ZM726.464 336.06H732.33C732.358 335.878 732.372 335.696 732.372 335.514C732.372 333.554 731 331.818 728.886 331.818C726.702 331.818 725.218 333.428 725.218 335.5C725.218 337.6 726.716 339.182 728.97 339.182C730.37 339.182 731.434 338.552 732.05 337.6L731.014 337.012C730.664 337.586 729.964 338.034 728.998 338.034C727.696 338.034 726.702 337.32 726.464 336.06ZM728.886 332.966C729.936 332.966 730.93 333.61 731.14 334.996H726.464C726.66 333.778 727.57 332.966 728.886 332.966ZM737.636 331.818C736.446 331.818 735.55 332.35 734.99 333.204V332H733.772V341.8H734.99V337.796C735.55 338.65 736.446 339.182 737.636 339.182C739.582 339.182 741.178 337.572 741.178 335.5C741.178 333.428 739.582 331.818 737.636 331.818ZM737.482 338.006C736.068 338.006 734.99 336.928 734.99 335.5C734.99 334.072 736.068 332.994 737.482 332.994C738.882 332.994 739.96 334.072 739.96 335.5C739.96 336.928 738.882 338.006 737.482 338.006ZM745.711 339H752.039V337.74H747.601L750.107 335.248C751.073 334.282 751.857 333.232 751.857 332.014C751.857 330.082 750.331 329.018 748.805 329.018C747.531 329.018 746.341 329.648 745.711 330.95L746.803 331.594C747.223 330.712 747.923 330.278 748.819 330.278C749.729 330.278 750.555 330.88 750.555 332.028C750.555 332.854 749.939 333.638 749.169 334.408L745.711 337.936V339ZM755.294 329.2L752.718 330.096L753.04 331.216L755.126 330.6V339H756.414V329.2H755.294Z" fill="#8E8E8E"/>
<path d="M5.792 128.044C6.432 128.164 6.956 128.44 7.364 128.872C7.772 129.304 7.976 129.852 7.976 130.516C7.976 131.332 7.696 131.976 7.136 132.448C6.576 132.92 5.896 133.156 5.096 133.156C4.456 133.156 3.888 133.012 3.392 132.724C2.896 132.428 2.544 132.004 2.336 131.452L3.272 130.9C3.52 131.676 4.128 132.064 5.096 132.064C5.616 132.064 6.04 131.928 6.368 131.656C6.696 131.384 6.86 131.004 6.86 130.516C6.86 130.028 6.696 129.648 6.368 129.376C6.04 129.096 5.616 128.956 5.096 128.956H4.808L4.364 128.272L6.308 125.644H2.576V124.6H7.616V125.584L5.792 128.044ZM14.5899 131.968C14.0219 132.76 13.2259 133.156 12.2019 133.156C11.1779 133.156 10.3819 132.76 9.81388 131.968C9.24588 131.176 8.96188 130.12 8.96188 128.8C8.96188 127.48 9.24588 126.424 9.81388 125.632C10.3819 124.84 11.1779 124.444 12.2019 124.444C13.2259 124.444 14.0219 124.84 14.5899 125.632C15.1579 126.424 15.4419 127.48 15.4419 128.8C15.4419 130.12 15.1579 131.176 14.5899 131.968ZM10.6299 131.212C10.9979 131.78 11.5219 132.064 12.2019 132.064C12.8819 132.064 13.4059 131.78 13.7739 131.212C14.1499 130.644 14.3379 129.84 14.3379 128.8C14.3379 127.76 14.1499 126.956 13.7739 126.388C13.4059 125.812 12.8819 125.524 12.2019 125.524C11.5219 125.524 10.9979 125.808 10.6299 126.376C10.2619 126.944 10.0779 127.752 10.0779 128.8C10.0779 129.84 10.2619 130.644 10.6299 131.212ZM22.1485 131.968C21.5805 132.76 20.7845 133.156 19.7605 133.156C18.7365 133.156 17.9405 132.76 17.3725 131.968C16.8045 131.176 16.5205 130.12 16.5205 128.8C16.5205 127.48 16.8045 126.424 17.3725 125.632C17.9405 124.84 18.7365 124.444 19.7605 124.444C20.7845 124.444 21.5805 124.84 22.1485 125.632C22.7165 126.424 23.0005 127.48 23.0005 128.8C23.0005 130.12 22.7165 131.176 22.1485 131.968ZM18.1885 131.212C18.5565 131.78 19.0805 132.064 19.7605 132.064C20.4405 132.064 20.9645 131.78 21.3325 131.212C21.7085 130.644 21.8965 129.84 21.8965 128.8C21.8965 127.76 21.7085 126.956 21.3325 126.388C20.9645 125.812 20.4405 125.524 19.7605 125.524C19.0805 125.524 18.5565 125.808 18.1885 126.376C17.8205 126.944 17.6365 127.752 17.6365 128.8C17.6365 129.84 17.8205 130.644 18.1885 131.212ZM29.7071 131.968C29.1391 132.76 28.3431 133.156 27.3191 133.156C26.2951 133.156 25.4991 132.76 24.9311 131.968C24.3631 131.176 24.0791 130.12 24.0791 128.8C24.0791 127.48 24.3631 126.424 24.9311 125.632C25.4991 124.84 26.2951 124.444 27.3191 124.444C28.3431 124.444 29.1391 124.84 29.7071 125.632C30.2751 126.424 30.5591 127.48 30.5591 128.8C30.5591 130.12 30.2751 131.176 29.7071 131.968ZM25.7471 131.212C26.1151 131.78 26.6391 132.064 27.3191 132.064C27.9991 132.064 28.5231 131.78 28.8911 131.212C29.2671 130.644 29.4551 129.84 29.4551 128.8C29.4551 127.76 29.2671 126.956 28.8911 126.388C28.5231 125.812 27.9991 125.524 27.3191 125.524C26.6391 125.524 26.1151 125.808 25.7471 126.376C25.3791 126.944 25.1951 127.752 25.1951 128.8C25.1951 129.84 25.3791 130.644 25.7471 131.212Z" fill="#8E8E8E"/>
<path d="M2.432 190V189.088L5.396 186.064C6.188 185.272 6.584 184.592 6.584 184.024C6.584 183.552 6.44 183.184 6.152 182.92C5.864 182.656 5.512 182.524 5.096 182.524C4.304 182.524 3.728 182.9 3.368 183.652L2.432 183.1C2.696 182.556 3.06 182.144 3.524 181.864C3.996 181.584 4.516 181.444 5.084 181.444C5.788 181.444 6.4 181.676 6.92 182.14C7.44 182.604 7.7 183.228 7.7 184.012C7.7 184.86 7.2 185.784 6.2 186.784L4.052 188.92H7.856V190H2.432ZM14.3789 188.968C13.8109 189.76 13.0149 190.156 11.9909 190.156C10.9669 190.156 10.1709 189.76 9.60294 188.968C9.03494 188.176 8.75094 187.12 8.75094 185.8C8.75094 184.48 9.03494 183.424 9.60294 182.632C10.1709 181.84 10.9669 181.444 11.9909 181.444C13.0149 181.444 13.8109 181.84 14.3789 182.632C14.9469 183.424 15.2309 184.48 15.2309 185.8C15.2309 187.12 14.9469 188.176 14.3789 188.968ZM10.4189 188.212C10.7869 188.78 11.3109 189.064 11.9909 189.064C12.6709 189.064 13.1949 188.78 13.5629 188.212C13.9389 187.644 14.1269 186.84 14.1269 185.8C14.1269 184.76 13.9389 183.956 13.5629 183.388C13.1949 182.812 12.6709 182.524 11.9909 182.524C11.3109 182.524 10.7869 182.808 10.4189 183.376C10.0509 183.944 9.86694 184.752 9.86694 185.8C9.86694 186.84 10.0509 187.644 10.4189 188.212ZM21.9375 188.968C21.3695 189.76 20.5735 190.156 19.5495 190.156C18.5255 190.156 17.7295 189.76 17.1615 188.968C16.5935 188.176 16.3095 187.12 16.3095 185.8C16.3095 184.48 16.5935 183.424 17.1615 182.632C17.7295 181.84 18.5255 181.444 19.5495 181.444C20.5735 181.444 21.3695 181.84 21.9375 182.632C22.5055 183.424 22.7895 184.48 22.7895 185.8C22.7895 187.12 22.5055 188.176 21.9375 188.968ZM17.9775 188.212C18.3455 188.78 18.8695 189.064 19.5495 189.064C20.2295 189.064 20.7535 188.78 21.1215 188.212C21.4975 187.644 21.6855 186.84 21.6855 185.8C21.6855 184.76 21.4975 183.956 21.1215 183.388C20.7535 182.812 20.2295 182.524 19.5495 182.524C18.8695 182.524 18.3455 182.808 17.9775 183.376C17.6095 183.944 17.4255 184.752 17.4255 185.8C17.4255 186.84 17.6095 187.644 17.9775 188.212ZM29.4961 188.968C28.9281 189.76 28.1321 190.156 27.1081 190.156C26.0841 190.156 25.2881 189.76 24.7201 188.968C24.1521 188.176 23.8681 187.12 23.8681 185.8C23.8681 184.48 24.1521 183.424 24.7201 182.632C25.2881 181.84 26.0841 181.444 27.1081 181.444C28.1321 181.444 28.9281 181.84 29.4961 182.632C30.0641 183.424 30.3481 184.48 30.3481 185.8C30.3481 187.12 30.0641 188.176 29.4961 188.968ZM25.5361 188.212C25.9041 188.78 26.4281 189.064 27.1081 189.064C27.7881 189.064 28.3121 188.78 28.6801 188.212C29.0561 187.644 29.2441 186.84 29.2441 185.8C29.2441 184.76 29.0561 183.956 28.6801 183.388C28.3121 182.812 27.7881 182.524 27.1081 182.524C26.4281 182.524 25.9041 182.808 25.5361 183.376C25.1681 183.944 24.9841 184.752 24.9841 185.8C24.9841 186.84 25.1681 187.644 25.5361 188.212Z" fill="#8E8E8E"/>
<path d="M4.376 238.6H5.336V247H4.232V239.8L2.444 240.328L2.168 239.368L4.376 238.6ZM12.4453 245.968C11.8773 246.76 11.0813 247.156 10.0573 247.156C9.03334 247.156 8.23734 246.76 7.66934 245.968C7.10134 245.176 6.81734 244.12 6.81734 242.8C6.81734 241.48 7.10134 240.424 7.66934 239.632C8.23734 238.84 9.03334 238.444 10.0573 238.444C11.0813 238.444 11.8773 238.84 12.4453 239.632C13.0133 240.424 13.2973 241.48 13.2973 242.8C13.2973 244.12 13.0133 245.176 12.4453 245.968ZM8.48534 245.212C8.85334 245.78 9.37734 246.064 10.0573 246.064C10.7373 246.064 11.2613 245.78 11.6293 245.212C12.0053 244.644 12.1933 243.84 12.1933 242.8C12.1933 241.76 12.0053 240.956 11.6293 240.388C11.2613 239.812 10.7373 239.524 10.0573 239.524C9.37734 239.524 8.85334 239.808 8.48534 240.376C8.11734 240.944 7.93334 241.752 7.93334 242.8C7.93334 243.84 8.11734 244.644 8.48534 245.212ZM20.0039 245.968C19.4359 246.76 18.6399 247.156 17.6159 247.156C16.5919 247.156 15.7959 246.76 15.2279 245.968C14.6599 245.176 14.3759 244.12 14.3759 242.8C14.3759 241.48 14.6599 240.424 15.2279 239.632C15.7959 238.84 16.5919 238.444 17.6159 238.444C18.6399 238.444 19.4359 238.84 20.0039 239.632C20.5719 240.424 20.8559 241.48 20.8559 242.8C20.8559 244.12 20.5719 245.176 20.0039 245.968ZM16.0439 245.212C16.4119 245.78 16.9359 246.064 17.6159 246.064C18.2959 246.064 18.8199 245.78 19.1879 245.212C19.5639 244.644 19.7519 243.84 19.7519 242.8C19.7519 241.76 19.5639 240.956 19.1879 240.388C18.8199 239.812 18.2959 239.524 17.6159 239.524C16.9359 239.524 16.4119 239.808 16.0439 240.376C15.6759 240.944 15.4919 241.752 15.4919 242.8C15.4919 243.84 15.6759 244.644 16.0439 245.212ZM27.5625 245.968C26.9945 246.76 26.1985 247.156 25.1745 247.156C24.1505 247.156 23.3545 246.76 22.7865 245.968C22.2185 245.176 21.9345 244.12 21.9345 242.8C21.9345 241.48 22.2185 240.424 22.7865 239.632C23.3545 238.84 24.1505 238.444 25.1745 238.444C26.1985 238.444 26.9945 238.84 27.5625 239.632C28.1305 240.424 28.4145 241.48 28.4145 242.8C28.4145 244.12 28.1305 245.176 27.5625 245.968ZM23.6025 245.212C23.9705 245.78 24.4945 246.064 25.1745 246.064C25.8545 246.064 26.3785 245.78 26.7465 245.212C27.1225 244.644 27.3105 243.84 27.3105 242.8C27.3105 241.76 27.1225 240.956 26.7465 240.388C26.3785 239.812 25.8545 239.524 25.1745 239.524C24.4945 239.524 23.9705 239.808 23.6025 240.376C23.2345 240.944 23.0505 241.752 23.0505 242.8C23.0505 243.84 23.2345 244.644 23.6025 245.212Z" fill="#8E8E8E"/>
<path d="M5.54672 304.156C7.63472 304.156 8.78672 302.392 8.78672 299.8C8.78672 297.208 7.63472 295.444 5.54672 295.444C3.47072 295.444 2.30672 297.208 2.30672 299.8C2.30672 302.392 3.47072 304.156 5.54672 304.156ZM5.54672 303.064C4.19072 303.064 3.42272 301.888 3.42272 299.8C3.42272 297.712 4.19072 296.524 5.54672 296.524C6.90272 296.524 7.68272 297.712 7.68272 299.8C7.68272 301.888 6.90272 303.064 5.54672 303.064Z" fill="#8E8E8E"/>
<path d="M622.048 52L621.46 50.236H617.554L616.966 52H614.88L618.31 42.2H620.704L624.148 52H622.048ZM618.17 48.43H620.858L619.514 44.426L618.17 48.43ZM629.09 44.804C630.032 44.804 630.835 45.1633 631.498 45.882C632.17 46.5913 632.506 47.464 632.506 48.5C632.506 49.536 632.17 50.4133 631.498 51.132C630.835 51.8413 630.032 52.196 629.09 52.196C628.11 52.196 627.354 51.8553 626.822 51.174V54.8H625.016V45H626.822V45.826C627.354 45.1447 628.11 44.804 629.09 44.804ZM627.368 49.928C627.732 50.292 628.194 50.474 628.754 50.474C629.314 50.474 629.776 50.292 630.14 49.928C630.513 49.5547 630.7 49.0787 630.7 48.5C630.7 47.9213 630.513 47.45 630.14 47.086C629.776 46.7127 629.314 46.526 628.754 46.526C628.194 46.526 627.732 46.7127 627.368 47.086C627.004 47.45 626.822 47.9213 626.822 48.5C626.822 49.0787 627.004 49.5547 627.368 49.928ZM635.585 46.204C635.753 45.756 636.029 45.42 636.411 45.196C636.803 44.972 637.237 44.86 637.713 44.86V46.876C637.163 46.8107 636.668 46.9227 636.229 47.212C635.8 47.5013 635.585 47.982 635.585 48.654V52H633.779V45H635.585V46.204ZM639.666 44.16C639.367 44.16 639.106 44.0527 638.882 43.838C638.667 43.614 638.56 43.3527 638.56 43.054C638.56 42.7553 638.667 42.494 638.882 42.27C639.106 42.046 639.367 41.934 639.666 41.934C639.974 41.934 640.235 42.046 640.45 42.27C640.674 42.494 640.786 42.7553 640.786 43.054C640.786 43.3527 640.674 43.614 640.45 43.838C640.235 44.0527 639.974 44.16 639.666 44.16ZM638.77 52V45H640.576V52H638.77ZM642.229 52V41.78H644.035V52H642.229ZM648.74 52V50.558L652.086 47.114C652.832 46.33 653.206 45.6767 653.206 45.154C653.206 44.7713 653.084 44.4633 652.842 44.23C652.608 43.9967 652.305 43.88 651.932 43.88C651.194 43.88 650.648 44.2627 650.294 45.028L648.67 44.076C648.978 43.404 649.421 42.8907 650 42.536C650.578 42.1813 651.213 42.004 651.904 42.004C652.79 42.004 653.551 42.284 654.186 42.844C654.82 43.3947 655.138 44.1413 655.138 45.084C655.138 46.1013 654.601 47.1467 653.528 48.22L651.61 50.138H655.292V52H648.74ZM660.072 52.196C658.85 52.196 657.888 51.734 657.188 50.81C656.498 49.8767 656.152 48.64 656.152 47.1C656.152 45.56 656.498 44.328 657.188 43.404C657.888 42.4707 658.85 42.004 660.072 42.004C661.304 42.004 662.266 42.4707 662.956 43.404C663.647 44.328 663.992 45.56 663.992 47.1C663.992 48.64 663.647 49.8767 662.956 50.81C662.266 51.734 661.304 52.196 660.072 52.196ZM658.588 49.494C658.924 50.0353 659.419 50.306 660.072 50.306C660.726 50.306 661.22 50.0307 661.556 49.48C661.902 48.9293 662.074 48.136 662.074 47.1C662.074 46.0547 661.902 45.2567 661.556 44.706C661.22 44.1553 660.726 43.88 660.072 43.88C659.419 43.88 658.924 44.1553 658.588 44.706C658.252 45.2567 658.084 46.0547 658.084 47.1C658.084 48.1453 658.252 48.9433 658.588 49.494ZM664.613 52V50.558L667.959 47.114C668.705 46.33 669.079 45.6767 669.079 45.154C669.079 44.7713 668.957 44.4633 668.715 44.23C668.481 43.9967 668.178 43.88 667.805 43.88C667.067 43.88 666.521 44.2627 666.167 45.028L664.543 44.076C664.851 43.404 665.294 42.8907 665.873 42.536C666.451 42.1813 667.086 42.004 667.777 42.004C668.663 42.004 669.424 42.284 670.059 42.844C670.693 43.3947 671.011 44.1413 671.011 45.084C671.011 46.1013 670.474 47.1467 669.401 48.22L667.483 50.138H671.165V52H664.613ZM674.197 42.2H675.877V52H673.945V44.244L672.097 44.762L671.621 43.11L674.197 42.2ZM681.291 48.64V46.904H686.541V48.64H681.291ZM695.206 52.196C694.235 52.196 693.418 51.9813 692.756 51.552C692.093 51.1133 691.626 50.5207 691.356 49.774L693.008 48.808C693.39 49.8067 694.142 50.306 695.262 50.306C695.803 50.306 696.2 50.208 696.452 50.012C696.704 49.816 696.83 49.5687 696.83 49.27C696.83 48.9247 696.676 48.6587 696.368 48.472C696.06 48.276 695.509 48.066 694.716 47.842C694.277 47.7113 693.904 47.5807 693.596 47.45C693.297 47.3193 692.994 47.1467 692.686 46.932C692.387 46.708 692.158 46.428 692 46.092C691.841 45.756 691.762 45.364 691.762 44.916C691.762 44.0293 692.074 43.3247 692.7 42.802C693.334 42.27 694.095 42.004 694.982 42.004C695.775 42.004 696.47 42.2 697.068 42.592C697.674 42.9747 698.146 43.5113 698.482 44.202L696.858 45.14C696.466 44.3 695.84 43.88 694.982 43.88C694.58 43.88 694.263 43.9733 694.03 44.16C693.806 44.3373 693.694 44.5707 693.694 44.86C693.694 45.168 693.82 45.42 694.072 45.616C694.333 45.8027 694.828 46.008 695.556 46.232C695.854 46.3253 696.078 46.4 696.228 46.456C696.386 46.5027 696.596 46.582 696.858 46.694C697.128 46.7967 697.334 46.8947 697.474 46.988C697.623 47.0813 697.791 47.2073 697.978 47.366C698.164 47.5247 698.304 47.688 698.398 47.856C698.5 48.024 698.584 48.2293 698.65 48.472C698.724 48.7053 698.762 48.962 698.762 49.242C698.762 50.1473 698.43 50.866 697.768 51.398C697.114 51.93 696.26 52.196 695.206 52.196ZM701.655 49.242C701.898 50.1193 702.556 50.558 703.629 50.558C704.32 50.558 704.842 50.3247 705.197 49.858L706.653 50.698C705.962 51.6967 704.945 52.196 703.601 52.196C702.444 52.196 701.515 51.846 700.815 51.146C700.115 50.446 699.765 49.564 699.765 48.5C699.765 47.4453 700.11 46.568 700.801 45.868C701.492 45.1587 702.378 44.804 703.461 44.804C704.488 44.804 705.332 45.1587 705.995 45.868C706.667 46.5773 707.003 47.4547 707.003 48.5C707.003 48.7333 706.98 48.9807 706.933 49.242H701.655ZM701.627 47.842H705.197C705.094 47.366 704.88 47.0113 704.553 46.778C704.236 46.5447 703.872 46.428 703.461 46.428C702.976 46.428 702.574 46.554 702.257 46.806C701.94 47.0487 701.73 47.394 701.627 47.842ZM712.338 44.804C713.281 44.804 714.083 45.1633 714.746 45.882C715.418 46.5913 715.754 47.464 715.754 48.5C715.754 49.536 715.418 50.4133 714.746 51.132C714.083 51.8413 713.281 52.196 712.338 52.196C711.358 52.196 710.602 51.8553 710.07 51.174V54.8H708.264V45H710.07V45.826C710.602 45.1447 711.358 44.804 712.338 44.804ZM710.616 49.928C710.98 50.292 711.442 50.474 712.002 50.474C712.562 50.474 713.024 50.292 713.388 49.928C713.761 49.5547 713.948 49.0787 713.948 48.5C713.948 47.9213 713.761 47.45 713.388 47.086C713.024 46.7127 712.562 46.526 712.002 46.526C711.442 46.526 710.98 46.7127 710.616 47.086C710.252 47.45 710.07 47.9213 710.07 48.5C710.07 49.0787 710.252 49.5547 710.616 49.928ZM720.881 46.736H719.299V49.648C719.299 49.8907 719.36 50.068 719.481 50.18C719.602 50.292 719.78 50.3573 720.013 50.376C720.246 50.3853 720.536 50.3807 720.881 50.362V52C719.64 52.14 718.762 52.0233 718.249 51.65C717.745 51.2767 717.493 50.6093 717.493 49.648V46.736H716.275V45H717.493V43.586L719.299 43.04V45H720.881V46.736ZM723.462 49.242C723.704 50.1193 724.362 50.558 725.436 50.558C726.126 50.558 726.649 50.3247 727.004 49.858L728.46 50.698C727.769 51.6967 726.752 52.196 725.408 52.196C724.25 52.196 723.322 51.846 722.622 51.146C721.922 50.446 721.572 49.564 721.572 48.5C721.572 47.4453 721.917 46.568 722.608 45.868C723.298 45.1587 724.185 44.804 725.268 44.804C726.294 44.804 727.139 45.1587 727.802 45.868C728.474 46.5773 728.81 47.4547 728.81 48.5C728.81 48.7333 728.786 48.9807 728.74 49.242H723.462ZM723.434 47.842H727.004C726.901 47.366 726.686 47.0113 726.36 46.778C726.042 46.5447 725.678 46.428 725.268 46.428C724.782 46.428 724.381 46.554 724.064 46.806C723.746 47.0487 723.536 47.394 723.434 47.842ZM737.813 44.804C738.615 44.804 739.255 45.0653 739.731 45.588C740.216 46.1107 740.459 46.8107 740.459 47.688V52H738.653V47.814C738.653 47.394 738.55 47.0673 738.345 46.834C738.139 46.6007 737.85 46.484 737.477 46.484C737.066 46.484 736.744 46.6193 736.511 46.89C736.287 47.1607 736.175 47.5527 736.175 48.066V52H734.369V47.814C734.369 47.394 734.266 47.0673 734.061 46.834C733.855 46.6007 733.566 46.484 733.193 46.484C732.791 46.484 732.469 46.6193 732.227 46.89C731.993 47.1607 731.877 47.5527 731.877 48.066V52H730.071V45H731.877V45.742C732.297 45.1167 732.945 44.804 733.823 44.804C734.681 44.804 735.316 45.14 735.727 45.812C736.193 45.14 736.889 44.804 737.813 44.804ZM746.066 44.804C747.009 44.804 747.812 45.1633 748.474 45.882C749.146 46.5913 749.482 47.464 749.482 48.5C749.482 49.536 749.146 50.4133 748.474 51.132C747.812 51.8413 747.009 52.196 746.066 52.196C745.086 52.196 744.33 51.8553 743.798 51.174V52H741.992V42.2H743.798V45.826C744.33 45.1447 745.086 44.804 746.066 44.804ZM744.344 49.928C744.708 50.292 745.17 50.474 745.73 50.474C746.29 50.474 746.752 50.292 747.116 49.928C747.49 49.5547 747.676 49.0787 747.676 48.5C747.676 47.9213 747.49 47.45 747.116 47.086C746.752 46.7127 746.29 46.526 745.73 46.526C745.17 46.526 744.708 46.7127 744.344 47.086C743.98 47.45 743.798 47.9213 743.798 48.5C743.798 49.0787 743.98 49.5547 744.344 49.928ZM752.282 49.242C752.525 50.1193 753.183 50.558 754.256 50.558C754.947 50.558 755.469 50.3247 755.824 49.858L757.28 50.698C756.589 51.6967 755.572 52.196 754.228 52.196C753.071 52.196 752.142 51.846 751.442 51.146C750.742 50.446 750.392 49.564 750.392 48.5C750.392 47.4453 750.737 46.568 751.428 45.868C752.119 45.1587 753.005 44.804 754.088 44.804C755.115 44.804 755.959 45.1587 756.622 45.868C757.294 46.5773 757.63 47.4547 757.63 48.5C757.63 48.7333 757.607 48.9807 757.56 49.242H752.282ZM752.254 47.842H755.824C755.721 47.366 755.507 47.0113 755.18 46.778C754.863 46.5447 754.499 46.428 754.088 46.428C753.603 46.428 753.201 46.554 752.884 46.806C752.567 47.0487 752.357 47.394 752.254 47.842ZM760.697 46.204C760.865 45.756 761.14 45.42 761.523 45.196C761.915 44.972 762.349 44.86 762.825 44.86V46.876C762.274 46.8107 761.779 46.9227 761.341 47.212C760.911 47.5013 760.697 47.982 760.697 48.654V52H758.891V45H760.697V46.204ZM766.933 52V50.558L770.279 47.114C771.026 46.33 771.399 45.6767 771.399 45.154C771.399 44.7713 771.278 44.4633 771.035 44.23C770.802 43.9967 770.498 43.88 770.125 43.88C769.388 43.88 768.842 44.2627 768.487 45.028L766.863 44.076C767.171 43.404 767.614 42.8907 768.193 42.536C768.772 42.1813 769.406 42.004 770.097 42.004C770.984 42.004 771.744 42.284 772.379 42.844C773.014 43.3947 773.331 44.1413 773.331 45.084C773.331 46.1013 772.794 47.1467 771.721 48.22L769.803 50.138H773.485V52H766.933ZM778.266 52.196C777.043 52.196 776.082 51.734 775.382 50.81C774.691 49.8767 774.346 48.64 774.346 47.1C774.346 45.56 774.691 44.328 775.382 43.404C776.082 42.4707 777.043 42.004 778.266 42.004C779.498 42.004 780.459 42.4707 781.15 43.404C781.841 44.328 782.186 45.56 782.186 47.1C782.186 48.64 781.841 49.8767 781.15 50.81C780.459 51.734 779.498 52.196 778.266 52.196ZM776.782 49.494C777.118 50.0353 777.613 50.306 778.266 50.306C778.919 50.306 779.414 50.0307 779.75 49.48C780.095 48.9293 780.268 48.136 780.268 47.1C780.268 46.0547 780.095 45.2567 779.75 44.706C779.414 44.1553 778.919 43.88 778.266 43.88C777.613 43.88 777.118 44.1553 776.782 44.706C776.446 45.2567 776.278 46.0547 776.278 47.1C776.278 48.1453 776.446 48.9433 776.782 49.494ZM782.806 52V50.558L786.152 47.114C786.899 46.33 787.272 45.6767 787.272 45.154C787.272 44.7713 787.151 44.4633 786.908 44.23C786.675 43.9967 786.371 43.88 785.998 43.88C785.261 43.88 784.715 44.2627 784.36 45.028L782.736 44.076C783.044 43.404 783.487 42.8907 784.066 42.536C784.645 42.1813 785.279 42.004 785.97 42.004C786.857 42.004 787.617 42.284 788.252 42.844C788.887 43.3947 789.204 44.1413 789.204 45.084C789.204 46.1013 788.667 47.1467 787.594 48.22L785.676 50.138H789.358V52H782.806ZM792.391 42.2H794.071V52H792.139V44.244L790.291 44.762L789.815 43.11L792.391 42.2Z" fill="black"/>
<line opacity="0.1" x1="42.0193" y1="118" x2="42.0193" y2="304" stroke="black"/>
<line opacity="0.1" x1="167.46" y1="118" x2="167.46" y2="304" stroke="black"/>
<line opacity="0.1" x1="543.784" y1="118" x2="543.784" y2="304" stroke="black"/>
<line opacity="0.1" x1="669.225" y1="118" x2="669.225" y2="304" stroke="black"/>
<line opacity="0.1" x1="794.666" y1="118" x2="794.666" y2="304" stroke="black"/>
<path d="M27.9703 54.768H32.5203V56H26.6683V46.2H32.4503V47.432H27.9703V50.442H32.1003V51.66H27.9703V54.768ZM40.0421 56H38.6141L36.6541 53.354L34.6801 56H33.2521L35.9401 52.402L33.4061 49H34.8481L36.6541 51.436L38.4601 49H39.8881L37.3681 52.388L40.0421 56ZM45.0352 48.818C46.0152 48.818 46.8505 49.1773 47.5412 49.896C48.2319 50.6053 48.5772 51.4733 48.5772 52.5C48.5772 53.5267 48.2319 54.3993 47.5412 55.118C46.8505 55.8273 46.0152 56.182 45.0352 56.182C43.8779 56.182 42.9959 55.72 42.3892 54.796V58.8H41.1712V49H42.3892V50.204C42.9959 49.28 43.8779 48.818 45.0352 48.818ZM44.8812 55.006C45.5812 55.006 46.1692 54.768 46.6452 54.292C47.1212 53.8067 47.3592 53.2093 47.3592 52.5C47.3592 51.7907 47.1212 51.198 46.6452 50.722C46.1692 50.2367 45.5812 49.994 44.8812 49.994C44.1719 49.994 43.5792 50.2367 43.1032 50.722C42.6272 51.198 42.3892 51.7907 42.3892 52.5C42.3892 53.2093 42.6272 53.8067 43.1032 54.292C43.5792 54.768 44.1719 55.006 44.8812 55.006ZM50.8846 53.06C51.0059 53.6853 51.2906 54.1707 51.7386 54.516C52.1959 54.8613 52.7559 55.034 53.4186 55.034C54.3426 55.034 55.0146 54.6933 55.4346 54.012L56.4706 54.6C55.7892 55.6547 54.7626 56.182 53.3906 56.182C52.2799 56.182 51.3746 55.8367 50.6746 55.146C49.9839 54.446 49.6386 53.564 49.6386 52.5C49.6386 51.4453 49.9792 50.568 50.6606 49.868C51.3419 49.168 52.2239 48.818 53.3066 48.818C54.3332 48.818 55.1686 49.182 55.8126 49.91C56.4659 50.6287 56.7926 51.4967 56.7926 52.514C56.7926 52.6913 56.7786 52.8733 56.7506 53.06H50.8846ZM53.3066 49.966C52.6532 49.966 52.1119 50.1527 51.6826 50.526C51.2532 50.89 50.9872 51.38 50.8846 51.996H55.5606C55.4579 51.3333 55.1966 50.8293 54.7766 50.484C54.3566 50.1387 53.8666 49.966 53.3066 49.966ZM61.6787 48.818C62.5 48.818 63.158 49.0793 63.6527 49.602C64.1473 50.1153 64.3947 50.8153 64.3947 51.702V56H63.1767V51.772C63.1767 51.2027 63.0227 50.764 62.7147 50.456C62.4067 50.1387 61.982 49.98 61.4407 49.98C60.834 49.98 60.344 50.1713 59.9707 50.554C59.5973 50.9273 59.4107 51.506 59.4107 52.29V56H58.1927V49H59.4107V50.008C59.9053 49.2147 60.6613 48.818 61.6787 48.818ZM67.145 50.89C67.145 51.1607 67.2804 51.38 67.551 51.548C67.8217 51.7067 68.1484 51.8373 68.531 51.94C68.9137 52.0333 69.2964 52.1453 69.679 52.276C70.0617 52.3973 70.3884 52.612 70.659 52.92C70.9297 53.2187 71.065 53.606 71.065 54.082C71.065 54.7167 70.8177 55.2253 70.323 55.608C69.8377 55.9907 69.2124 56.182 68.447 56.182C67.7657 56.182 67.1824 56.0327 66.697 55.734C66.2117 55.4353 65.8664 55.0387 65.661 54.544L66.711 53.942C66.823 54.278 67.033 54.544 67.341 54.74C67.649 54.936 68.0177 55.034 68.447 55.034C68.8484 55.034 69.1797 54.9593 69.441 54.81C69.7024 54.6513 69.833 54.4087 69.833 54.082C69.833 53.8113 69.6977 53.5967 69.427 53.438C69.1564 53.27 68.8297 53.1393 68.447 53.046C68.0644 52.9433 67.6817 52.8267 67.299 52.696C66.9164 52.5653 66.5897 52.3507 66.319 52.052C66.0484 51.7533 65.913 51.3707 65.913 50.904C65.913 50.2973 66.1464 49.798 66.613 49.406C67.089 49.014 67.6817 48.818 68.391 48.818C68.9604 48.818 69.4644 48.9487 69.903 49.21C70.351 49.462 70.687 49.8167 70.911 50.274L69.889 50.848C69.637 50.2507 69.1377 49.952 68.391 49.952C68.0457 49.952 67.7517 50.036 67.509 50.204C67.2664 50.3627 67.145 50.5913 67.145 50.89ZM73.1697 53.06C73.2911 53.6853 73.5757 54.1707 74.0237 54.516C74.4811 54.8613 75.0411 55.034 75.7037 55.034C76.6277 55.034 77.2997 54.6933 77.7197 54.012L78.7557 54.6C78.0744 55.6547 77.0477 56.182 75.6757 56.182C74.5651 56.182 73.6597 55.8367 72.9597 55.146C72.2691 54.446 71.9237 53.564 71.9237 52.5C71.9237 51.4453 72.2644 50.568 72.9457 49.868C73.6271 49.168 74.5091 48.818 75.5917 48.818C76.6184 48.818 77.4537 49.182 78.0977 49.91C78.7511 50.6287 79.0777 51.4967 79.0777 52.514C79.0777 52.6913 79.0637 52.8733 79.0357 53.06H73.1697ZM75.5917 49.966C74.9384 49.966 74.3971 50.1527 73.9677 50.526C73.5384 50.89 73.2724 51.38 73.1697 51.996H77.8457C77.7431 51.3333 77.4817 50.8293 77.0617 50.484C76.6417 50.1387 76.1517 49.966 75.5917 49.966Z" fill="black"/>
<rect x="7.95044" y="46" width="10.6007" height="12" rx="5.30033" fill="#017EFA"/>
<rect x="0.5" y="40.5" width="104.123" height="23" rx="6.5" stroke="black" stroke-opacity="0.09"/>
<path d="M141.509 46.2H142.811V56H141.509V46.2ZM148.273 48.818C149.094 48.818 149.752 49.0793 150.247 49.602C150.742 50.1153 150.989 50.8153 150.989 51.702V56H149.771V51.772C149.771 51.2027 149.617 50.764 149.309 50.456C149.001 50.1387 148.576 49.98 148.035 49.98C147.428 49.98 146.938 50.1713 146.565 50.554C146.192 50.9273 146.005 51.506 146.005 52.29V56H144.787V49H146.005V50.008C146.5 49.2147 147.256 48.818 148.273 48.818ZM155.979 56.182C154.925 56.182 154.047 55.832 153.347 55.132C152.647 54.4227 152.297 53.5453 152.297 52.5C152.297 51.4547 152.647 50.582 153.347 49.882C154.047 49.1727 154.925 48.818 155.979 48.818C156.67 48.818 157.291 48.986 157.841 49.322C158.392 49.6487 158.803 50.092 159.073 50.652L158.051 51.24C157.874 50.8667 157.599 50.568 157.225 50.344C156.861 50.12 156.446 50.008 155.979 50.008C155.279 50.008 154.691 50.246 154.215 50.722C153.749 51.198 153.515 51.7907 153.515 52.5C153.515 53.2 153.749 53.788 154.215 54.264C154.691 54.74 155.279 54.978 155.979 54.978C156.446 54.978 156.866 54.8707 157.239 54.656C157.613 54.432 157.897 54.1333 158.093 53.76L159.129 54.362C158.831 54.9127 158.401 55.356 157.841 55.692C157.281 56.0187 156.661 56.182 155.979 56.182ZM166.144 55.118C165.426 55.8273 164.553 56.182 163.526 56.182C162.5 56.182 161.627 55.8273 160.908 55.118C160.199 54.4087 159.844 53.536 159.844 52.5C159.844 51.464 160.199 50.5913 160.908 49.882C161.627 49.1727 162.5 48.818 163.526 48.818C164.553 48.818 165.426 49.1727 166.144 49.882C166.863 50.5913 167.222 51.464 167.222 52.5C167.222 53.536 166.863 54.4087 166.144 55.118ZM163.526 54.992C164.226 54.992 164.814 54.754 165.29 54.278C165.766 53.802 166.004 53.2093 166.004 52.5C166.004 51.7907 165.766 51.198 165.29 50.722C164.814 50.246 164.226 50.008 163.526 50.008C162.836 50.008 162.252 50.246 161.776 50.722C161.3 51.198 161.062 51.7907 161.062 52.5C161.062 53.2093 161.3 53.802 161.776 54.278C162.252 54.754 162.836 54.992 163.526 54.992ZM176.218 48.818C177.002 48.818 177.637 49.0747 178.122 49.588C178.607 50.092 178.85 50.778 178.85 51.646V56H177.632V51.688C177.632 51.1467 177.492 50.7267 177.212 50.428C176.932 50.1293 176.559 49.98 176.092 49.98C175.569 49.98 175.149 50.1573 174.832 50.512C174.524 50.8573 174.37 51.3893 174.37 52.108V56H173.152V51.688C173.152 51.1467 173.017 50.7267 172.746 50.428C172.485 50.1293 172.125 49.98 171.668 49.98C171.155 49.98 170.725 50.1573 170.38 50.512C170.044 50.8667 169.876 51.3987 169.876 52.108V56H168.658V49H169.876V49.938C170.352 49.1913 171.047 48.818 171.962 48.818C172.905 48.818 173.591 49.2147 174.02 50.008C174.505 49.2147 175.238 48.818 176.218 48.818ZM181.393 53.06C181.514 53.6853 181.799 54.1707 182.247 54.516C182.704 54.8613 183.264 55.034 183.927 55.034C184.851 55.034 185.523 54.6933 185.943 54.012L186.979 54.6C186.298 55.6547 185.271 56.182 183.899 56.182C182.788 56.182 181.883 55.8367 181.183 55.146C180.492 54.446 180.147 53.564 180.147 52.5C180.147 51.4453 180.488 50.568 181.169 49.868C181.85 49.168 182.732 48.818 183.815 48.818C184.842 48.818 185.677 49.182 186.321 49.91C186.974 50.6287 187.301 51.4967 187.301 52.514C187.301 52.6913 187.287 52.8733 187.259 53.06H181.393ZM183.815 49.966C183.162 49.966 182.62 50.1527 182.191 50.526C181.762 50.89 181.496 51.38 181.393 51.996H186.069C185.966 51.3333 185.705 50.8293 185.285 50.484C184.865 50.1387 184.375 49.966 183.815 49.966Z" fill="black"/>
<rect x="122.791" y="46" width="10.6007" height="12" rx="5.30033" fill="#51CBFF"/>
<rect x="115.34" y="40.5" width="116.491" height="23" rx="6.5" stroke="black" stroke-opacity="0.09"/>
<path opacity="0.4" d="M65.3707 294C65.3707 291.791 67.1616 290 69.3707 290H99.3564C101.566 290 103.356 291.791 103.356 294V305H65.3707V294Z" fill="#017EFA"/>
<path opacity="0.4" d="M106.89 294C106.89 291.791 108.681 290 110.89 290H140.876C143.085 290 144.876 291.791 144.876 294V305H106.89V294Z" fill="#51CBFF"/>
<path opacity="0.4" d="M193.462 253C193.462 250.791 195.253 249 197.462 249H227.448C229.657 249 231.448 250.791 231.448 253V305H193.462V253Z" fill="#017EFA"/>
<path opacity="0.4" d="M441.694 224C441.694 221.791 443.485 220 445.694 220H475.68C477.889 220 479.68 221.791 479.68 224V305H441.694V224Z" fill="#017EFA"/>
<path opacity="0.4" d="M567.135 246C567.135 243.791 568.926 242 571.135 242H601.121C603.33 242 605.121 243.791 605.121 246V305H567.135V246Z" fill="#017EFA"/>
<path opacity="0.4" d="M695.227 264C695.227 261.791 697.017 260 699.227 260H729.212C731.421 260 733.212 261.791 733.212 264V305H695.227V264Z" fill="#017EFA"/>
<path opacity="0.4" d="M234.981 272C234.981 269.791 236.772 268 238.981 268H268.967C271.176 268 272.967 269.791 272.967 272V305H234.981V272Z" fill="#51CBFF"/>
<path opacity="0.4" d="M483.213 215C483.213 212.791 485.004 211 487.213 211H517.199C519.408 211 521.199 212.791 521.199 215V305H483.213V215Z" fill="#51CBFF"/>
<path opacity="0.4" d="M608.655 239C608.655 236.791 610.445 235 612.655 235H642.64C644.849 235 646.64 236.791 646.64 239V305H608.655V239Z" fill="#51CBFF"/>
<path opacity="0.4" d="M736.746 174C736.746 171.791 738.537 170 740.746 170H770.732C772.941 170 774.732 171.791 774.732 174V305H736.746V174Z" fill="#51CBFF"/>
<path d="M313.603 224C313.603 221.791 315.394 220 317.603 220H347.589C349.798 220 351.589 221.791 351.589 224V305H313.603V224Z" fill="#017EFA"/>
<path d="M355.122 191C355.122 188.791 356.913 187 359.122 187H389.108C391.317 187 393.108 188.791 393.108 191V305H355.122V191Z" fill="#51CBFF"/>
<path d="M819.293 41.293L815 45.586L810.707 41.293L809.293 42.707L815 48.414L820.707 42.707L819.293 41.293Z" fill="#017EFA"/>
<defs>
<filter id="filter0_d_13_38" x="272.402" y="102" width="165.441" height="278" filterUnits="userSpaceOnUse" color-interpolation-filters="sRGB">
<feFlood flood-opacity="0" result="BackgroundImageFix"/>
<feColorMatrix in="SourceAlpha" type="matrix" values="0 0 0 0 0 0 0 0 0 0 0 0 0 0 0 0 0 0 127 0" result="hardAlpha"/>
<feOffset dy="4"/>
<feGaussianBlur stdDeviation="10"/>
<feColorMatrix type="matrix" values="0 0 0 0 0.890556 0 0 0 0 0.897623 0 0 0 0 0.954167 0 0 0 1 0"/>
<feBlend mode="normal" in2="BackgroundImageFix" result="effect1_dropShadow_13_38"/>
<feBlend mode="normal" in="SourceGraphic" in2="effect1_dropShadow_13_38" result="shape"/>
</filter>
</defs>
</svg>
