<svg width="113" height="24" viewBox="0 0 113 24" fill="none" xmlns="http://www.w3.org/2000/svg">
<path d="M38.198 14.698C37.218 15.6873 36.0187 16.182 34.6 16.182C33.1813 16.182 31.982 15.6873 31.002 14.698C30.022 13.7087 29.532 12.5093 29.532 11.1C29.532 9.68133 30.022 8.482 31.002 7.502C31.982 6.51267 33.1813 6.018 34.6 6.018C36.0187 6.018 37.218 6.51267 38.198 7.502C39.1873 8.482 39.682 9.68133 39.682 11.1C39.682 12.5093 39.1873 13.7087 38.198 14.698ZM31.898 13.816C32.626 14.544 33.5267 14.908 34.6 14.908C35.6733 14.908 36.5693 14.544 37.288 13.816C38.016 13.0787 38.38 12.1733 38.38 11.1C38.38 10.0173 38.016 9.112 37.288 8.384C36.5693 7.64667 35.6733 7.278 34.6 7.278C33.5267 7.278 32.626 7.64667 31.898 8.384C31.1793 9.112 30.82 10.0173 30.82 11.1C30.82 12.1733 31.1793 13.0787 31.898 13.816ZM44.9293 10.176H43.0673V13.97C43.0673 14.3153 43.1326 14.5627 43.2633 14.712C43.4033 14.852 43.6133 14.9267 43.8933 14.936C44.1733 14.936 44.5186 14.9267 44.9293 14.908V16C43.8653 16.14 43.0859 16.056 42.5913 15.748C42.0966 15.4307 41.8493 14.838 41.8493 13.97V10.176H40.4633V9H41.8493V7.404L43.0673 7.04V9H44.9293V10.176ZM49.8573 8.818C50.6786 8.818 51.3366 9.07933 51.8313 9.602C52.3259 10.1153 52.5733 10.8153 52.5733 11.702V16H51.3553V11.772C51.3553 11.2027 51.2013 10.764 50.8933 10.456C50.5853 10.1387 50.1606 9.98 49.6193 9.98C49.0126 9.98 48.5226 10.1713 48.1493 10.554C47.7759 10.9273 47.5893 11.506 47.5893 12.29V16H46.3713V6.2H47.5893V10.008C48.0839 9.21467 48.8399 8.818 49.8573 8.818ZM55.1276 13.06C55.2489 13.6853 55.5336 14.1707 55.9816 14.516C56.4389 14.8613 56.9989 15.034 57.6616 15.034C58.5856 15.034 59.2576 14.6933 59.6776 14.012L60.7136 14.6C60.0323 15.6547 59.0056 16.182 57.6336 16.182C56.5229 16.182 55.6176 15.8367 54.9176 15.146C54.2269 14.446 53.8816 13.564 53.8816 12.5C53.8816 11.4453 54.2223 10.568 54.9036 9.868C55.5849 9.168 56.4669 8.818 57.5496 8.818C58.5763 8.818 59.4116 9.182 60.0556 9.91C60.7089 10.6287 61.0356 11.4967 61.0356 12.514C61.0356 12.6913 61.0216 12.8733 60.9936 13.06H55.1276ZM57.5496 9.966C56.8963 9.966 56.3549 10.1527 55.9256 10.526C55.4963 10.89 55.2303 11.38 55.1276 11.996H59.8036C59.7009 11.3333 59.4396 10.8293 59.0196 10.484C58.5996 10.1387 58.1096 9.966 57.5496 9.966ZM63.6537 10.176C64.0551 9.308 64.7831 8.874 65.8377 8.874V10.148C65.2404 10.12 64.7271 10.2787 64.2977 10.624C63.8684 10.9693 63.6537 11.5247 63.6537 12.29V16H62.4357V9H63.6537V10.176Z" fill="black"/>
<rect x="9" y="6" width="12" height="12" rx="6" fill="#B6E9FF"/>
<rect x="0.5" y="0.5" width="112" height="23" rx="6.5" stroke="black" stroke-opacity="0.09"/>
</svg>
