<svg width="90" height="90" viewBox="0 0 90 90" fill="none" xmlns="http://www.w3.org/2000/svg">
<g filter="url(#filter0_d_2_3265)">
<rect x="20" y="10" width="50" height="50" rx="15" fill="#EDE7F2"/>
</g>
<path d="M41.4484 26.7858C42.0202 26.6787 42.5934 26.965 42.8429 27.4811C42.9049 27.5746 42.9553 27.6751 42.9913 27.7809C43.1498 30.227 43.3192 32.632 43.4777 35.0367C43.4741 35.2867 43.5133 35.5359 43.5939 35.7731C43.7835 36.2397 44.2554 36.5362 44.7667 36.5094L52.5314 36.0114L52.5841 36.0319C52.9176 36.0373 53.2361 36.1726 53.4679 36.4078C53.6997 36.6431 53.8261 36.9596 53.8204 37.2867C53.5144 41.7456 50.2457 45.4713 45.797 46.4313C41.3482 47.3911 36.7872 45.3548 34.6027 41.4332C33.9604 40.3038 33.554 39.0595 33.4083 37.774C33.3519 37.3933 33.3269 37.0084 33.3341 36.6237C33.3488 31.8822 36.7249 27.7887 41.4484 26.7858ZM46.0656 23.3346C51.3981 23.4942 55.8554 27.3649 56.6632 32.5387C56.6683 32.5696 56.6683 32.6016 56.6632 32.6324C56.6806 32.8772 56.5973 33.1186 56.4327 33.3033C56.2682 33.4881 56.0357 33.6008 55.7863 33.6168L46.8263 34.2076C46.5301 34.2339 46.2359 34.1364 46.0167 33.9391C45.7978 33.7418 45.6738 33.4632 45.6749 33.1715L45.0724 24.3707V24.2262C45.0834 23.9787 45.1947 23.745 45.381 23.5778C45.5672 23.4107 45.8135 23.3234 46.0656 23.3346Z" fill="#75578E"/>
<defs>
<filter id="filter0_d_2_3265" x="0" y="0" width="90" height="90" filterUnits="userSpaceOnUse" color-interpolation-filters="sRGB">
<feFlood flood-opacity="0" result="BackgroundImageFix"/>
<feColorMatrix in="SourceAlpha" type="matrix" values="0 0 0 0 0 0 0 0 0 0 0 0 0 0 0 0 0 0 127 0" result="hardAlpha"/>
<feOffset dy="10"/>
<feGaussianBlur stdDeviation="10"/>
<feColorMatrix type="matrix" values="0 0 0 0 0.0235294 0 0 0 0 0.301961 0 0 0 0 0.227451 0 0 0 0.03 0"/>
<feBlend mode="normal" in2="BackgroundImageFix" result="effect1_dropShadow_2_3265"/>
<feBlend mode="normal" in="SourceGraphic" in2="effect1_dropShadow_2_3265" result="shape"/>
</filter>
</defs>
</svg>
