<svg width="311" height="138" viewBox="0 0 311 138" fill="none" xmlns="http://www.w3.org/2000/svg">
<rect width="311" height="138" rx="8" fill="#081A51"/>
<path d="M20.112 30.208C19.3013 30.208 18.5867 30.0373 17.968 29.696C17.3493 29.3547 16.896 28.8587 16.608 28.208L17.872 27.472C18.2027 28.3253 18.9493 28.752 20.112 28.752C20.8267 28.752 21.3867 28.5813 21.792 28.24C22.1973 27.8987 22.4 27.392 22.4 26.72V18.8H23.872V26.72C23.872 27.84 23.5147 28.704 22.8 29.312C22.096 29.9093 21.2 30.208 20.112 30.208ZM32.5238 22H33.9158V30H32.5238V28.624C31.8304 29.68 30.8224 30.208 29.4998 30.208C28.3798 30.208 27.4251 29.8027 26.6358 28.992C25.8464 28.1707 25.4518 27.1733 25.4518 26C25.4518 24.8267 25.8464 23.8347 26.6358 23.024C27.4251 22.2027 28.3798 21.792 29.4998 21.792C30.8224 21.792 31.8304 22.32 32.5238 23.376V22ZM29.6758 28.864C30.4864 28.864 31.1638 28.592 31.7078 28.048C32.2518 27.4933 32.5238 26.8107 32.5238 26C32.5238 25.1893 32.2518 24.512 31.7078 23.968C31.1638 23.4133 30.4864 23.136 29.6758 23.136C28.8758 23.136 28.2038 23.4133 27.6598 23.968C27.1158 24.512 26.8438 25.1893 26.8438 26C26.8438 26.8107 27.1158 27.4933 27.6598 28.048C28.2038 28.592 28.8758 28.864 29.6758 28.864ZM40.0088 21.792C40.9474 21.792 41.6994 22.0907 42.2648 22.688C42.8301 23.2747 43.1128 24.0747 43.1128 25.088V30H41.7208V25.168C41.7208 24.5173 41.5448 24.016 41.1928 23.664C40.8408 23.3013 40.3554 23.12 39.7368 23.12C39.0434 23.12 38.4834 23.3387 38.0568 23.776C37.6301 24.2027 37.4168 24.864 37.4168 25.76V30H36.0247V22H37.4168V23.152C37.9821 22.2453 38.8461 21.792 40.0088 21.792ZM50.576 22H51.968V30H50.576V28.848C50.0107 29.7547 49.1467 30.208 47.984 30.208C47.0453 30.208 46.2933 29.9147 45.728 29.328C45.1627 28.7307 44.88 27.9253 44.88 26.912V22H46.272V26.832C46.272 27.4827 46.448 27.9893 46.8 28.352C47.152 28.704 47.6373 28.88 48.256 28.88C48.9493 28.88 49.5093 28.6667 49.936 28.24C50.3627 27.8027 50.576 27.136 50.576 26.24V22ZM60.7113 22H62.1033V30H60.7113V28.624C60.0179 29.68 59.0099 30.208 57.6873 30.208C56.5673 30.208 55.6126 29.8027 54.8233 28.992C54.0339 28.1707 53.6393 27.1733 53.6393 26C53.6393 24.8267 54.0339 23.8347 54.8233 23.024C55.6126 22.2027 56.5673 21.792 57.6873 21.792C59.0099 21.792 60.0179 22.32 60.7113 23.376V22ZM57.8633 28.864C58.6739 28.864 59.3513 28.592 59.8953 28.048C60.4393 27.4933 60.7113 26.8107 60.7113 26C60.7113 25.1893 60.4393 24.512 59.8953 23.968C59.3513 23.4133 58.6739 23.136 57.8633 23.136C57.0633 23.136 56.3913 23.4133 55.8473 23.968C55.3033 24.512 55.0312 25.1893 55.0312 26C55.0312 26.8107 55.3033 27.4933 55.8473 28.048C56.3913 28.592 57.0633 28.864 57.8633 28.864ZM65.6043 23.344C66.0629 22.352 66.8949 21.856 68.1003 21.856V23.312C67.4176 23.28 66.8309 23.4613 66.3403 23.856C65.8496 24.2507 65.6043 24.8853 65.6043 25.76V30H64.2122V22H65.6043V23.344ZM75.2181 22H76.7061L73.4421 30.496C73.1008 31.4027 72.6208 32.0907 72.0021 32.56C71.3941 33.04 70.6901 33.2533 69.8901 33.2V31.904C70.8715 31.9787 71.5915 31.4347 72.0501 30.272L72.1941 29.968L68.7061 22H70.1941L72.9141 28.272L75.2181 22ZM81.3885 30V28.784L85.3405 24.752C86.3965 23.696 86.9245 22.7893 86.9245 22.032C86.9245 21.4027 86.7325 20.912 86.3485 20.56C85.9645 20.208 85.4952 20.032 84.9405 20.032C83.8845 20.032 83.1165 20.5333 82.6365 21.536L81.3885 20.8C81.7405 20.0747 82.2258 19.5253 82.8445 19.152C83.4738 18.7787 84.1672 18.592 84.9245 18.592C85.8632 18.592 86.6792 18.9013 87.3725 19.52C88.0658 20.1387 88.4125 20.9707 88.4125 22.016C88.4125 23.1467 87.7458 24.3787 86.4125 25.712L83.5485 28.56H88.6205V30H81.3885ZM97.3177 28.624C96.5604 29.68 95.4991 30.208 94.1338 30.208C92.7684 30.208 91.7071 29.68 90.9498 28.624C90.1924 27.568 89.8138 26.16 89.8138 24.4C89.8138 22.64 90.1924 21.232 90.9498 20.176C91.7071 19.12 92.7684 18.592 94.1338 18.592C95.4991 18.592 96.5604 19.12 97.3177 20.176C98.0751 21.232 98.4538 22.64 98.4538 24.4C98.4538 26.16 98.0751 27.568 97.3177 28.624ZM92.0378 27.616C92.5284 28.3733 93.2271 28.752 94.1338 28.752C95.0404 28.752 95.7391 28.3733 96.2298 27.616C96.7311 26.8587 96.9818 25.7867 96.9818 24.4C96.9818 23.0133 96.7311 21.9413 96.2298 21.184C95.7391 20.416 95.0404 20.032 94.1338 20.032C93.2271 20.032 92.5284 20.4107 92.0378 21.168C91.5471 21.9253 91.3018 23.0027 91.3018 24.4C91.3018 25.7867 91.5471 26.8587 92.0378 27.616ZM99.5448 30V28.784L103.497 24.752C104.553 23.696 105.081 22.7893 105.081 22.032C105.081 21.4027 104.889 20.912 104.505 20.56C104.121 20.208 103.651 20.032 103.097 20.032C102.041 20.032 101.273 20.5333 100.793 21.536L99.5448 20.8C99.8968 20.0747 100.382 19.5253 101.001 19.152C101.63 18.7787 102.323 18.592 103.081 18.592C104.019 18.592 104.835 18.9013 105.529 19.52C106.222 20.1387 106.569 20.9707 106.569 22.016C106.569 23.1467 105.902 24.3787 104.569 25.712L101.705 28.56H106.777V30H99.5448ZM111.429 22.672C112.549 22.672 113.472 23.024 114.197 23.728C114.922 24.4213 115.285 25.3227 115.285 26.432C115.285 27.5413 114.922 28.448 114.197 29.152C113.472 29.856 112.549 30.208 111.429 30.208C110.298 30.208 109.37 29.856 108.645 29.152C107.93 28.448 107.573 27.5413 107.573 26.432C107.573 25.568 107.797 24.8213 108.245 24.192L111.845 18.8H113.541L110.901 22.704C111.136 22.6827 111.312 22.672 111.429 22.672ZM109.701 28.144C110.149 28.5707 110.725 28.784 111.429 28.784C112.133 28.784 112.704 28.5707 113.141 28.144C113.589 27.7067 113.813 27.136 113.813 26.432C113.813 25.728 113.589 25.1627 113.141 24.736C112.704 24.3093 112.133 24.096 111.429 24.096C110.714 24.096 110.138 24.3093 109.701 24.736C109.264 25.1627 109.045 25.728 109.045 26.432C109.045 27.136 109.264 27.7067 109.701 28.144ZM124.55 30.208C123.505 30.208 122.609 29.9627 121.862 29.472C121.126 28.9813 120.609 28.3093 120.31 27.456L121.59 26.72C122.028 28.0747 123.025 28.752 124.582 28.752C125.35 28.752 125.937 28.5973 126.342 28.288C126.748 27.968 126.95 27.5467 126.95 27.024C126.95 26.4907 126.748 26.0907 126.342 25.824C125.937 25.5573 125.26 25.2747 124.31 24.976C123.841 24.8267 123.484 24.7093 123.238 24.624C122.993 24.528 122.684 24.3893 122.31 24.208C121.948 24.016 121.676 23.824 121.494 23.632C121.313 23.4293 121.148 23.168 120.998 22.848C120.86 22.528 120.79 22.1653 120.79 21.76C120.79 20.7893 121.132 20.0213 121.814 19.456C122.497 18.88 123.329 18.592 124.31 18.592C125.196 18.592 125.964 18.816 126.614 19.264C127.276 19.712 127.772 20.304 128.102 21.04L126.854 21.76C126.374 20.608 125.526 20.032 124.31 20.032C123.702 20.032 123.212 20.1813 122.838 20.48C122.465 20.7787 122.278 21.184 122.278 21.696C122.278 22.1867 122.454 22.56 122.806 22.816C123.158 23.072 123.766 23.3387 124.63 23.616C124.94 23.712 125.158 23.7813 125.286 23.824C125.414 23.8667 125.612 23.9413 125.878 24.048C126.156 24.1547 126.358 24.24 126.486 24.304C126.614 24.368 126.785 24.4587 126.998 24.576C127.222 24.6933 127.388 24.8053 127.494 24.912C127.601 25.0187 127.724 25.152 127.862 25.312C128.012 25.4613 128.118 25.616 128.182 25.776C128.246 25.936 128.3 26.1227 128.342 26.336C128.396 26.5387 128.422 26.7573 128.422 26.992C128.422 27.9733 128.065 28.7573 127.35 29.344C126.636 29.92 125.702 30.208 124.55 30.208ZM135.56 22H136.952V30H135.56V28.848C134.995 29.7547 134.131 30.208 132.968 30.208C132.03 30.208 131.278 29.9147 130.712 29.328C130.147 28.7307 129.864 27.9253 129.864 26.912V22H131.256V26.832C131.256 27.4827 131.432 27.9893 131.784 28.352C132.136 28.704 132.622 28.88 133.24 28.88C133.934 28.88 134.494 28.6667 134.92 28.24C135.347 27.8027 135.56 27.136 135.56 26.24V22ZM147.712 21.792C148.608 21.792 149.333 22.0853 149.888 22.672C150.442 23.248 150.72 24.032 150.72 25.024V30H149.328V25.072C149.328 24.4533 149.168 23.9733 148.848 23.632C148.528 23.2907 148.101 23.12 147.568 23.12C146.97 23.12 146.49 23.3227 146.128 23.728C145.776 24.1227 145.6 24.7307 145.6 25.552V30H144.208V25.072C144.208 24.4533 144.053 23.9733 143.744 23.632C143.445 23.2907 143.034 23.12 142.512 23.12C141.925 23.12 141.434 23.3227 141.04 23.728C140.656 24.1333 140.464 24.7413 140.464 25.552V30H139.072V22H140.464V23.072C141.008 22.2187 141.802 21.792 142.848 21.792C143.925 21.792 144.709 22.2453 145.2 23.152C145.754 22.2453 146.592 21.792 147.712 21.792ZM161.29 21.792C162.186 21.792 162.911 22.0853 163.466 22.672C164.02 23.248 164.298 24.032 164.298 25.024V30H162.906V25.072C162.906 24.4533 162.746 23.9733 162.426 23.632C162.106 23.2907 161.679 23.12 161.146 23.12C160.548 23.12 160.068 23.3227 159.706 23.728C159.354 24.1227 159.178 24.7307 159.178 25.552V30H157.786V25.072C157.786 24.4533 157.631 23.9733 157.322 23.632C157.023 23.2907 156.612 23.12 156.09 23.12C155.503 23.12 155.012 23.3227 154.618 23.728C154.234 24.1333 154.042 24.7413 154.042 25.552V30H152.65V22H154.042V23.072C154.586 22.2187 155.38 21.792 156.426 21.792C157.503 21.792 158.287 22.2453 158.778 23.152C159.332 22.2453 160.17 21.792 161.29 21.792ZM172.852 22H174.244V30H172.852V28.624C172.159 29.68 171.151 30.208 169.828 30.208C168.708 30.208 167.753 29.8027 166.964 28.992C166.175 28.1707 165.78 27.1733 165.78 26C165.78 24.8267 166.175 23.8347 166.964 23.024C167.753 22.2027 168.708 21.792 169.828 21.792C171.151 21.792 172.159 22.32 172.852 23.376V22ZM170.004 28.864C170.815 28.864 171.492 28.592 172.036 28.048C172.58 27.4933 172.852 26.8107 172.852 26C172.852 25.1893 172.58 24.512 172.036 23.968C171.492 23.4133 170.815 23.136 170.004 23.136C169.204 23.136 168.532 23.4133 167.988 23.968C167.444 24.512 167.172 25.1893 167.172 26C167.172 26.8107 167.444 27.4933 167.988 28.048C168.532 28.592 169.204 28.864 170.004 28.864ZM177.745 23.344C178.204 22.352 179.036 21.856 180.241 21.856V23.312C179.558 23.28 178.972 23.4613 178.481 23.856C177.99 24.2507 177.745 24.8853 177.745 25.76V30H176.353V22H177.745V23.344ZM187.359 22H188.847L185.583 30.496C185.241 31.4027 184.761 32.0907 184.143 32.56C183.535 33.04 182.831 33.2533 182.031 33.2V31.904C183.012 31.9787 183.732 31.4347 184.191 30.272L184.335 29.968L180.847 22H182.335L185.055 28.272L187.359 22Z" fill="white"/>
<path opacity="0.7" d="M49.368 46.8V48.208H46.056V58H44.584V48.208H41.288V46.8H49.368ZM55.9955 56.992C55.1742 57.8027 54.1768 58.208 53.0035 58.208C51.8302 58.208 50.8328 57.8027 50.0115 56.992C49.2008 56.1813 48.7955 55.184 48.7955 54C48.7955 52.816 49.2008 51.8187 50.0115 51.008C50.8328 50.1973 51.8302 49.792 53.0035 49.792C54.1768 49.792 55.1742 50.1973 55.9955 51.008C56.8168 51.8187 57.2275 52.816 57.2275 54C57.2275 55.184 56.8168 56.1813 55.9955 56.992ZM53.0035 56.848C53.8035 56.848 54.4755 56.576 55.0195 56.032C55.5635 55.488 55.8355 54.8107 55.8355 54C55.8355 53.1893 55.5635 52.512 55.0195 51.968C54.4755 51.424 53.8035 51.152 53.0035 51.152C52.2142 51.152 51.5475 51.424 51.0035 51.968C50.4595 52.512 50.1875 53.1893 50.1875 54C50.1875 54.8107 50.4595 55.488 51.0035 56.032C51.5475 56.576 52.2142 56.848 53.0035 56.848ZM63.0486 51.344H60.9206V55.68C60.9206 56.0747 60.9953 56.3573 61.1446 56.528C61.3046 56.688 61.5446 56.7733 61.8646 56.784C62.1846 56.784 62.5793 56.7733 63.0486 56.752V58C61.8326 58.16 60.942 58.064 60.3766 57.712C59.8113 57.3493 59.5286 56.672 59.5286 55.68V51.344H57.9446V50H59.5286V48.176L60.9206 47.76V50H63.0486V51.344ZM70.9144 50H72.3064V58H70.9144V56.624C70.221 57.68 69.213 58.208 67.8904 58.208C66.7704 58.208 65.8157 57.8027 65.0264 56.992C64.237 56.1707 63.8424 55.1733 63.8424 54C63.8424 52.8267 64.237 51.8347 65.0264 51.024C65.8157 50.2027 66.7704 49.792 67.8904 49.792C69.213 49.792 70.221 50.32 70.9144 51.376V50ZM68.0664 56.864C68.877 56.864 69.5544 56.592 70.0984 56.048C70.6424 55.4933 70.9144 54.8107 70.9144 54C70.9144 53.1893 70.6424 52.512 70.0984 51.968C69.5544 51.4133 68.877 51.136 68.0664 51.136C67.2664 51.136 66.5944 51.4133 66.0504 51.968C65.5064 52.512 65.2344 53.1893 65.2344 54C65.2344 54.8107 65.5064 55.4933 66.0504 56.048C66.5944 56.592 67.2664 56.864 68.0664 56.864ZM74.4154 58V46.32H75.8074V58H74.4154ZM83.563 56.592H88.763V58H82.075V46.8H88.683V48.208H83.563V51.648H88.283V53.04H83.563V56.592ZM97.3594 58H95.7274L93.4874 54.976L91.2314 58H89.5994L92.6714 53.888L89.7754 50H91.4234L93.4874 52.784L95.5514 50H97.1834L94.3034 53.872L97.3594 58ZM103.066 49.792C104.186 49.792 105.14 50.2027 105.93 51.024C106.719 51.8347 107.114 52.8267 107.114 54C107.114 55.1733 106.719 56.1707 105.93 56.992C105.14 57.8027 104.186 58.208 103.066 58.208C101.743 58.208 100.735 57.68 100.042 56.624V61.2H98.6497V50H100.042V51.376C100.735 50.32 101.743 49.792 103.066 49.792ZM102.89 56.864C103.69 56.864 104.362 56.592 104.906 56.048C105.45 55.4933 105.722 54.8107 105.722 54C105.722 53.1893 105.45 52.512 104.906 51.968C104.362 51.4133 103.69 51.136 102.89 51.136C102.079 51.136 101.402 51.4133 100.858 51.968C100.314 52.512 100.042 53.1893 100.042 54C100.042 54.8107 100.314 55.4933 100.858 56.048C101.402 56.592 102.079 56.864 102.89 56.864ZM109.751 54.64C109.889 55.3547 110.215 55.9093 110.727 56.304C111.249 56.6987 111.889 56.896 112.647 56.896C113.703 56.896 114.471 56.5067 114.951 55.728L116.135 56.4C115.356 57.6053 114.183 58.208 112.615 58.208C111.345 58.208 110.311 57.8133 109.511 57.024C108.721 56.224 108.327 55.216 108.327 54C108.327 52.7947 108.716 51.792 109.495 50.992C110.273 50.192 111.281 49.792 112.519 49.792C113.692 49.792 114.647 50.208 115.383 51.04C116.129 51.8613 116.503 52.8533 116.503 54.016C116.503 54.2187 116.487 54.4267 116.455 54.64H109.751ZM112.519 51.104C111.772 51.104 111.153 51.3173 110.663 51.744C110.172 52.16 109.868 52.72 109.751 53.424H115.095C114.977 52.6667 114.679 52.0907 114.199 51.696C113.719 51.3013 113.159 51.104 112.519 51.104ZM122.087 49.792C123.026 49.792 123.778 50.0907 124.343 50.688C124.908 51.2747 125.191 52.0747 125.191 53.088V58H123.799V53.168C123.799 52.5173 123.623 52.016 123.271 51.664C122.919 51.3013 122.434 51.12 121.815 51.12C121.122 51.12 120.562 51.3387 120.135 51.776C119.708 52.2027 119.495 52.864 119.495 53.76V58H118.103V50H119.495V51.152C120.06 50.2453 120.924 49.792 122.087 49.792ZM128.334 52.16C128.334 52.4693 128.489 52.72 128.798 52.912C129.107 53.0933 129.481 53.2427 129.918 53.36C130.355 53.4667 130.793 53.5947 131.23 53.744C131.667 53.8827 132.041 54.128 132.35 54.48C132.659 54.8213 132.814 55.264 132.814 55.808C132.814 56.5333 132.531 57.1147 131.966 57.552C131.411 57.9893 130.697 58.208 129.822 58.208C129.043 58.208 128.377 58.0373 127.822 57.696C127.267 57.3547 126.873 56.9013 126.638 56.336L127.838 55.648C127.966 56.032 128.206 56.336 128.558 56.56C128.91 56.784 129.331 56.896 129.822 56.896C130.281 56.896 130.659 56.8107 130.958 56.64C131.257 56.4587 131.406 56.1813 131.406 55.808C131.406 55.4987 131.251 55.2533 130.942 55.072C130.633 54.88 130.259 54.7307 129.822 54.624C129.385 54.5067 128.947 54.3733 128.51 54.224C128.073 54.0747 127.699 53.8293 127.39 53.488C127.081 53.1467 126.926 52.7093 126.926 52.176C126.926 51.4827 127.193 50.912 127.726 50.464C128.27 50.016 128.947 49.792 129.758 49.792C130.409 49.792 130.985 49.9413 131.486 50.24C131.998 50.528 132.382 50.9333 132.638 51.456L131.47 52.112C131.182 51.4293 130.611 51.088 129.758 51.088C129.363 51.088 129.027 51.184 128.75 51.376C128.473 51.5573 128.334 51.8187 128.334 52.16ZM135.22 54.64C135.358 55.3547 135.684 55.9093 136.196 56.304C136.718 56.6987 137.358 56.896 138.116 56.896C139.172 56.896 139.94 56.5067 140.42 55.728L141.604 56.4C140.825 57.6053 139.652 58.208 138.084 58.208C136.814 58.208 135.78 57.8133 134.98 57.024C134.19 56.224 133.796 55.216 133.796 54C133.796 52.7947 134.185 51.792 134.964 50.992C135.742 50.192 136.75 49.792 137.988 49.792C139.161 49.792 140.116 50.208 140.852 51.04C141.598 51.8613 141.972 52.8533 141.972 54.016C141.972 54.2187 141.956 54.4267 141.924 54.64H135.22ZM137.988 51.104C137.241 51.104 136.622 51.3173 136.132 51.744C135.641 52.16 135.337 52.72 135.22 53.424H140.564C140.446 52.6667 140.148 52.0907 139.668 51.696C139.188 51.3013 138.628 51.104 137.988 51.104ZM144.459 52.16C144.459 52.4693 144.614 52.72 144.923 52.912C145.232 53.0933 145.606 53.2427 146.043 53.36C146.48 53.4667 146.918 53.5947 147.355 53.744C147.792 53.8827 148.166 54.128 148.475 54.48C148.784 54.8213 148.939 55.264 148.939 55.808C148.939 56.5333 148.656 57.1147 148.091 57.552C147.536 57.9893 146.822 58.208 145.947 58.208C145.168 58.208 144.502 58.0373 143.947 57.696C143.392 57.3547 142.998 56.9013 142.763 56.336L143.963 55.648C144.091 56.032 144.331 56.336 144.683 56.56C145.035 56.784 145.456 56.896 145.947 56.896C146.406 56.896 146.784 56.8107 147.083 56.64C147.382 56.4587 147.531 56.1813 147.531 55.808C147.531 55.4987 147.376 55.2533 147.067 55.072C146.758 54.88 146.384 54.7307 145.947 54.624C145.51 54.5067 145.072 54.3733 144.635 54.224C144.198 54.0747 143.824 53.8293 143.515 53.488C143.206 53.1467 143.051 52.7093 143.051 52.176C143.051 51.4827 143.318 50.912 143.851 50.464C144.395 50.016 145.072 49.792 145.883 49.792C146.534 49.792 147.11 49.9413 147.611 50.24C148.123 50.528 148.507 50.9333 148.763 51.456L147.595 52.112C147.307 51.4293 146.736 51.088 145.883 51.088C145.488 51.088 145.152 51.184 144.875 51.376C144.598 51.5573 144.459 51.8187 144.459 52.16Z" fill="white"/>
<circle cx="22" cy="54" r="4" fill="#017EFA"/>
<path d="M239.542 51.8H241.462V63H239.254V54.136L237.142 54.728L236.598 52.84L239.542 51.8ZM251.665 59.048V61.096H250.465V63H248.241V61.096H242.945V59.048L246.673 51.8H249.041L245.329 59.048H248.241V56.392H250.465V59.048H251.665ZM259.024 57.176C260.058 57.7947 260.576 58.696 260.576 59.88C260.576 60.9147 260.213 61.7307 259.488 62.328C258.773 62.9253 257.797 63.224 256.56 63.224C255.312 63.224 254.33 62.9253 253.616 62.328C252.901 61.7307 252.544 60.9147 252.544 59.88C252.544 58.696 253.056 57.7947 254.08 57.176C253.301 56.6107 252.912 55.8373 252.912 54.856C252.912 53.8213 253.258 53.016 253.952 52.44C254.656 51.864 255.525 51.576 256.56 51.576C257.594 51.576 258.458 51.864 259.152 52.44C259.845 53.016 260.192 53.8213 260.192 54.856C260.192 55.848 259.802 56.6213 259.024 57.176ZM257.6 54.008C257.333 53.7733 256.986 53.656 256.56 53.656C256.133 53.656 255.786 53.7733 255.52 54.008C255.253 54.2427 255.12 54.5627 255.12 54.968C255.12 55.3733 255.253 55.6987 255.52 55.944C255.786 56.1787 256.133 56.296 256.56 56.296C256.986 56.296 257.333 56.1787 257.6 55.944C257.866 55.6987 258 55.3733 258 54.968C258 54.5627 257.866 54.2427 257.6 54.008ZM255.232 60.744C255.573 61.0107 256.016 61.144 256.56 61.144C257.104 61.144 257.541 61.0107 257.872 60.744C258.213 60.4667 258.384 60.0827 258.384 59.592C258.384 59.112 258.213 58.7387 257.872 58.472C257.541 58.1947 257.104 58.056 256.56 58.056C256.016 58.056 255.573 58.1947 255.232 58.472C254.901 58.7387 254.736 59.112 254.736 59.592C254.736 60.0827 254.901 60.4667 255.232 60.744ZM266.149 63.224C264.752 63.224 263.653 62.696 262.853 61.64C262.064 60.5733 261.669 59.16 261.669 57.4C261.669 55.64 262.064 54.232 262.853 53.176C263.653 52.1093 264.752 51.576 266.149 51.576C267.557 51.576 268.656 52.1093 269.445 53.176C270.235 54.232 270.629 55.64 270.629 57.4C270.629 59.16 270.235 60.5733 269.445 61.64C268.656 62.696 267.557 63.224 266.149 63.224ZM264.453 60.136C264.837 60.7547 265.403 61.064 266.149 61.064C266.896 61.064 267.461 60.7493 267.845 60.12C268.24 59.4907 268.437 58.584 268.437 57.4C268.437 56.2053 268.24 55.2933 267.845 54.664C267.461 54.0347 266.896 53.72 266.149 53.72C265.403 53.72 264.837 54.0347 264.453 54.664C264.069 55.2933 263.877 56.2053 263.877 57.4C263.877 58.5947 264.069 59.5067 264.453 60.136ZM283.635 51.8V53.912H280.612V63H278.404V53.912H275.396V51.8H283.635ZM291.348 51.8H293.556V63H291.876L287.076 56.152V63H284.868V51.8H286.548L291.348 58.632V51.8ZM300.082 51.8C301.618 51.8 302.898 52.3387 303.922 53.416C304.956 54.4933 305.474 55.8213 305.474 57.4C305.474 58.9787 304.956 60.3067 303.922 61.384C302.898 62.4613 301.618 63 300.082 63H295.634V51.8H300.082ZM300.082 60.888C301.052 60.888 301.842 60.568 302.45 59.928C303.058 59.2773 303.362 58.4347 303.362 57.4C303.362 56.3653 303.058 55.528 302.45 54.888C301.842 54.2373 301.052 53.912 300.082 53.912H297.842V60.888H300.082Z" fill="white"/>
<path d="M244.698 86V84.352L248.522 80.416C249.375 79.52 249.802 78.7733 249.802 78.176C249.802 77.7387 249.663 77.3867 249.386 77.12C249.119 76.8533 248.772 76.72 248.346 76.72C247.503 76.72 246.879 77.1573 246.474 78.032L244.618 76.944C244.97 76.176 245.476 75.5893 246.138 75.184C246.799 74.7787 247.524 74.576 248.314 74.576C249.327 74.576 250.196 74.896 250.922 75.536C251.647 76.1653 252.01 77.0187 252.01 78.096C252.01 79.2587 251.396 80.4533 250.17 81.68L247.978 83.872H252.186V86H244.698ZM253.198 86V84.352L257.022 80.416C257.875 79.52 258.302 78.7733 258.302 78.176C258.302 77.7387 258.163 77.3867 257.886 77.12C257.619 76.8533 257.272 76.72 256.846 76.72C256.003 76.72 255.379 77.1573 254.974 78.032L253.118 76.944C253.47 76.176 253.976 75.5893 254.638 75.184C255.299 74.7787 256.024 74.576 256.814 74.576C257.827 74.576 258.696 74.896 259.422 75.536C260.147 76.1653 260.51 77.0187 260.51 78.096C260.51 79.2587 259.896 80.4533 258.67 81.68L256.478 83.872H260.686V86H253.198ZM266.149 86.224C264.752 86.224 263.653 85.696 262.853 84.64C262.064 83.5733 261.669 82.16 261.669 80.4C261.669 78.64 262.064 77.232 262.853 76.176C263.653 75.1093 264.752 74.576 266.149 74.576C267.557 74.576 268.656 75.1093 269.445 76.176C270.235 77.232 270.629 78.64 270.629 80.4C270.629 82.16 270.235 83.5733 269.445 84.64C268.656 85.696 267.557 86.224 266.149 86.224ZM264.453 83.136C264.837 83.7547 265.403 84.064 266.149 84.064C266.896 84.064 267.461 83.7493 267.845 83.12C268.24 82.4907 268.437 81.584 268.437 80.4C268.437 79.2053 268.24 78.2933 267.845 77.664C267.461 77.0347 266.896 76.72 266.149 76.72C265.403 76.72 264.837 77.0347 264.453 77.664C264.069 78.2933 263.877 79.2053 263.877 80.4C263.877 81.5947 264.069 82.5067 264.453 83.136ZM283.635 74.8V76.912H280.612V86H278.404V76.912H275.396V74.8H283.635ZM291.348 74.8H293.556V86H291.876L287.076 79.152V86H284.868V74.8H286.548L291.348 81.632V74.8ZM300.082 74.8C301.618 74.8 302.898 75.3387 303.922 76.416C304.956 77.4933 305.474 78.8213 305.474 80.4C305.474 81.9787 304.956 83.3067 303.922 84.384C302.898 85.4613 301.618 86 300.082 86H295.634V74.8H300.082ZM300.082 83.888C301.052 83.888 301.842 83.568 302.45 82.928C303.058 82.2773 303.362 81.4347 303.362 80.4C303.362 79.3653 303.058 78.528 302.45 77.888C301.842 77.2373 301.052 76.912 300.082 76.912H297.842V83.888H300.082Z" fill="white"/>
<path opacity="0.7" d="M47.464 87.208C45.768 87.208 44.3653 86.648 43.256 85.528C42.1573 84.408 41.608 83.032 41.608 81.4C41.608 79.768 42.1573 78.392 43.256 77.272C44.3653 76.152 45.768 75.592 47.464 75.592C48.488 75.592 49.4267 75.8373 50.28 76.328C51.144 76.8187 51.816 77.48 52.296 78.312L51 79.064C50.68 78.4453 50.2 77.9547 49.56 77.592C48.9307 77.2187 48.232 77.032 47.464 77.032C46.1733 77.032 45.1173 77.448 44.296 78.28C43.4853 79.112 43.08 80.152 43.08 81.4C43.08 82.6373 43.4853 83.672 44.296 84.504C45.1173 85.336 46.1733 85.752 47.464 85.752C48.232 85.752 48.9307 85.5707 49.56 85.208C50.2 84.8347 50.68 84.344 51 83.736L52.296 84.472C51.8267 85.304 51.16 85.9707 50.296 86.472C49.432 86.9627 48.488 87.208 47.464 87.208ZM60.558 85.992C59.7367 86.8027 58.7393 87.208 57.566 87.208C56.3927 87.208 55.3953 86.8027 54.574 85.992C53.7633 85.1813 53.358 84.184 53.358 83C53.358 81.816 53.7633 80.8187 54.574 80.008C55.3953 79.1973 56.3927 78.792 57.566 78.792C58.7393 78.792 59.7367 79.1973 60.558 80.008C61.3793 80.8187 61.79 81.816 61.79 83C61.79 84.184 61.3793 85.1813 60.558 85.992ZM57.566 85.848C58.366 85.848 59.038 85.576 59.582 85.032C60.126 84.488 60.398 83.8107 60.398 83C60.398 82.1893 60.126 81.512 59.582 80.968C59.038 80.424 58.366 80.152 57.566 80.152C56.7767 80.152 56.11 80.424 55.566 80.968C55.022 81.512 54.75 82.1893 54.75 83C54.75 83.8107 55.022 84.488 55.566 85.032C56.11 85.576 56.7767 85.848 57.566 85.848ZM72.071 78.792C72.967 78.792 73.6923 79.0853 74.247 79.672C74.8017 80.248 75.079 81.032 75.079 82.024V87H73.687V82.072C73.687 81.4533 73.527 80.9733 73.207 80.632C72.887 80.2907 72.4603 80.12 71.927 80.12C71.3297 80.12 70.8497 80.3227 70.487 80.728C70.135 81.1227 69.959 81.7307 69.959 82.552V87H68.567V82.072C68.567 81.4533 68.4123 80.9733 68.103 80.632C67.8043 80.2907 67.3937 80.12 66.871 80.12C66.2843 80.12 65.7937 80.3227 65.399 80.728C65.015 81.1333 64.823 81.7413 64.823 82.552V87H63.431V79H64.823V80.072C65.367 79.2187 66.1617 78.792 67.207 78.792C68.2843 78.792 69.0683 79.2453 69.559 80.152C70.1137 79.2453 70.951 78.792 72.071 78.792ZM81.4251 78.792C82.5451 78.792 83.4998 79.2027 84.2891 80.024C85.0785 80.8347 85.4731 81.8267 85.4731 83C85.4731 84.1733 85.0785 85.1707 84.2891 85.992C83.4998 86.8027 82.5451 87.208 81.4251 87.208C80.1025 87.208 79.0945 86.68 78.4011 85.624V90.2H77.0091V79H78.4011V80.376C79.0945 79.32 80.1025 78.792 81.4251 78.792ZM81.2491 85.864C82.0491 85.864 82.7211 85.592 83.2651 85.048C83.8091 84.4933 84.0811 83.8107 84.0811 83C84.0811 82.1893 83.8091 81.512 83.2651 80.968C82.7211 80.4133 82.0491 80.136 81.2491 80.136C80.4385 80.136 79.7611 80.4133 79.2171 80.968C78.6731 81.512 78.4011 82.1893 78.4011 83C78.4011 83.8107 78.6731 84.4933 79.2171 85.048C79.7611 85.592 80.4385 85.864 81.2491 85.864ZM93.7581 79H95.1501V87H93.7581V85.624C93.0648 86.68 92.0568 87.208 90.7341 87.208C89.6141 87.208 88.6595 86.8027 87.8701 85.992C87.0808 85.1707 86.6861 84.1733 86.6861 83C86.6861 81.8267 87.0808 80.8347 87.8701 80.024C88.6595 79.2027 89.6141 78.792 90.7341 78.792C92.0568 78.792 93.0648 79.32 93.7581 80.376V79ZM90.9101 85.864C91.7208 85.864 92.3981 85.592 92.9421 85.048C93.4861 84.4933 93.7581 83.8107 93.7581 83C93.7581 82.1893 93.4861 81.512 92.9421 80.968C92.3981 80.4133 91.7208 80.136 90.9101 80.136C90.1101 80.136 89.4381 80.4133 88.8941 80.968C88.3501 81.512 88.0781 82.1893 88.0781 83C88.0781 83.8107 88.3501 84.4933 88.8941 85.048C89.4381 85.592 90.1101 85.864 90.9101 85.864ZM98.6511 80.344C99.1098 79.352 99.9418 78.856 101.147 78.856V80.312C100.464 80.28 99.8778 80.4613 99.3871 80.856C98.8965 81.2507 98.6511 81.8853 98.6511 82.76V87H97.2591V79H98.6511V80.344ZM103.048 83.64C103.186 84.3547 103.512 84.9093 104.024 85.304C104.546 85.6987 105.186 85.896 105.944 85.896C107 85.896 107.768 85.5067 108.248 84.728L109.432 85.4C108.653 86.6053 107.48 87.208 105.912 87.208C104.642 87.208 103.608 86.8133 102.808 86.024C102.018 85.224 101.624 84.216 101.624 83C101.624 81.7947 102.013 80.792 102.792 79.992C103.57 79.192 104.578 78.792 105.816 78.792C106.989 78.792 107.944 79.208 108.68 80.04C109.426 80.8613 109.8 81.8533 109.8 83.016C109.8 83.2187 109.784 83.4267 109.752 83.64H103.048ZM105.816 80.104C105.069 80.104 104.45 80.3173 103.96 80.744C103.469 81.16 103.165 81.72 103.048 82.424H108.392C108.274 81.6667 107.976 81.0907 107.496 80.696C107.016 80.3013 106.456 80.104 105.816 80.104ZM118.008 75.8H119.4V87H118.008V85.624C117.315 86.68 116.307 87.208 114.984 87.208C113.864 87.208 112.909 86.8027 112.12 85.992C111.331 85.1707 110.936 84.1733 110.936 83C110.936 81.8267 111.331 80.8347 112.12 80.024C112.909 79.2027 113.864 78.792 114.984 78.792C116.307 78.792 117.315 79.32 118.008 80.376V75.8ZM115.16 85.864C115.971 85.864 116.648 85.592 117.192 85.048C117.736 84.4933 118.008 83.8107 118.008 83C118.008 82.1893 117.736 81.512 117.192 80.968C116.648 80.4133 115.971 80.136 115.16 80.136C114.36 80.136 113.688 80.4133 113.144 80.968C112.6 81.512 112.328 82.1893 112.328 83C112.328 83.8107 112.6 84.4933 113.144 85.048C113.688 85.592 114.36 85.864 115.16 85.864ZM129.861 80.344H127.733V84.68C127.733 85.0747 127.808 85.3573 127.957 85.528C128.117 85.688 128.357 85.7733 128.677 85.784C128.997 85.784 129.392 85.7733 129.861 85.752V87C128.645 87.16 127.754 87.064 127.189 86.712C126.624 86.3493 126.341 85.672 126.341 84.68V80.344H124.757V79H126.341V77.176L127.733 76.76V79H129.861V80.344ZM137.855 85.992C137.034 86.8027 136.036 87.208 134.863 87.208C133.69 87.208 132.692 86.8027 131.871 85.992C131.06 85.1813 130.655 84.184 130.655 83C130.655 81.816 131.06 80.8187 131.871 80.008C132.692 79.1973 133.69 78.792 134.863 78.792C136.036 78.792 137.034 79.1973 137.855 80.008C138.676 80.8187 139.087 81.816 139.087 83C139.087 84.184 138.676 85.1813 137.855 85.992ZM134.863 85.848C135.663 85.848 136.335 85.576 136.879 85.032C137.423 84.488 137.695 83.8107 137.695 83C137.695 82.1893 137.423 81.512 136.879 80.968C136.335 80.424 135.663 80.152 134.863 80.152C134.074 80.152 133.407 80.424 132.863 80.968C132.319 81.512 132.047 82.1893 132.047 83C132.047 83.8107 132.319 84.488 132.863 85.032C133.407 85.576 134.074 85.848 134.863 85.848ZM146.36 85.592H151.192V87H144.872V75.8H146.36V85.592ZM158.852 79H160.244V87H158.852V85.624C158.159 86.68 157.151 87.208 155.828 87.208C154.708 87.208 153.753 86.8027 152.964 85.992C152.175 85.1707 151.78 84.1733 151.78 83C151.78 81.8267 152.175 80.8347 152.964 80.024C153.753 79.2027 154.708 78.792 155.828 78.792C157.151 78.792 158.159 79.32 158.852 80.376V79ZM156.004 85.864C156.815 85.864 157.492 85.592 158.036 85.048C158.58 84.4933 158.852 83.8107 158.852 83C158.852 82.1893 158.58 81.512 158.036 80.968C157.492 80.4133 156.815 80.136 156.004 80.136C155.204 80.136 154.532 80.4133 153.988 80.968C153.444 81.512 153.172 82.1893 153.172 83C153.172 83.8107 153.444 84.4933 153.988 85.048C154.532 85.592 155.204 85.864 156.004 85.864ZM163.537 81.16C163.537 81.4693 163.692 81.72 164.001 81.912C164.311 82.0933 164.684 82.2427 165.121 82.36C165.559 82.4667 165.996 82.5947 166.433 82.744C166.871 82.8827 167.244 83.128 167.553 83.48C167.863 83.8213 168.017 84.264 168.017 84.808C168.017 85.5333 167.735 86.1147 167.169 86.552C166.615 86.9893 165.9 87.208 165.025 87.208C164.247 87.208 163.58 87.0373 163.025 86.696C162.471 86.3547 162.076 85.9013 161.841 85.336L163.041 84.648C163.169 85.032 163.409 85.336 163.761 85.56C164.113 85.784 164.535 85.896 165.025 85.896C165.484 85.896 165.863 85.8107 166.161 85.64C166.46 85.4587 166.609 85.1813 166.609 84.808C166.609 84.4987 166.455 84.2533 166.145 84.072C165.836 83.88 165.463 83.7307 165.025 83.624C164.588 83.5067 164.151 83.3733 163.713 83.224C163.276 83.0747 162.903 82.8293 162.593 82.488C162.284 82.1467 162.129 81.7093 162.129 81.176C162.129 80.4827 162.396 79.912 162.929 79.464C163.473 79.016 164.151 78.792 164.961 78.792C165.612 78.792 166.188 78.9413 166.689 79.24C167.201 79.528 167.585 79.9333 167.841 80.456L166.673 81.112C166.385 80.4293 165.815 80.088 164.961 80.088C164.567 80.088 164.231 80.184 163.953 80.376C163.676 80.5573 163.537 80.8187 163.537 81.16ZM173.705 80.344H171.577V84.68C171.577 85.0747 171.652 85.3573 171.801 85.528C171.961 85.688 172.201 85.7733 172.521 85.784C172.841 85.784 173.236 85.7733 173.705 85.752V87C172.489 87.16 171.598 87.064 171.033 86.712C170.468 86.3493 170.185 85.672 170.185 84.68V80.344H168.601V79H170.185V77.176L171.577 76.76V79H173.705V80.344ZM190.024 75.8V87H188.552V78.248L184.888 84.344H184.696L181.032 78.264V87H179.544V75.8H181.224L184.792 81.72L188.344 75.8H190.024ZM199.027 85.992C198.205 86.8027 197.208 87.208 196.035 87.208C194.861 87.208 193.864 86.8027 193.043 85.992C192.232 85.1813 191.827 84.184 191.827 83C191.827 81.816 192.232 80.8187 193.043 80.008C193.864 79.1973 194.861 78.792 196.035 78.792C197.208 78.792 198.205 79.1973 199.027 80.008C199.848 80.8187 200.259 81.816 200.259 83C200.259 84.184 199.848 85.1813 199.027 85.992ZM196.035 85.848C196.835 85.848 197.507 85.576 198.051 85.032C198.595 84.488 198.867 83.8107 198.867 83C198.867 82.1893 198.595 81.512 198.051 80.968C197.507 80.424 196.835 80.152 196.035 80.152C195.245 80.152 194.579 80.424 194.035 80.968C193.491 81.512 193.219 82.1893 193.219 83C193.219 83.8107 193.491 84.488 194.035 85.032C194.579 85.576 195.245 85.848 196.035 85.848ZM205.884 78.792C206.822 78.792 207.574 79.0907 208.14 79.688C208.705 80.2747 208.988 81.0747 208.988 82.088V87H207.596V82.168C207.596 81.5173 207.42 81.016 207.068 80.664C206.716 80.3013 206.23 80.12 205.612 80.12C204.918 80.12 204.358 80.3387 203.932 80.776C203.505 81.2027 203.292 81.864 203.292 82.76V87H201.9V79H203.292V80.152C203.857 79.2453 204.721 78.792 205.884 78.792ZM215.283 80.344H213.155V84.68C213.155 85.0747 213.23 85.3573 213.379 85.528C213.539 85.688 213.779 85.7733 214.099 85.784C214.419 85.784 214.814 85.7733 215.283 85.752V87C214.067 87.16 213.176 87.064 212.611 86.712C212.046 86.3493 211.763 85.672 211.763 84.68V80.344H210.179V79H211.763V77.176L213.155 76.76V79H215.283V80.344ZM220.915 78.792C221.854 78.792 222.606 79.0907 223.171 79.688C223.736 80.2747 224.019 81.0747 224.019 82.088V87H222.627V82.168C222.627 81.5173 222.451 81.016 222.099 80.664C221.747 80.3013 221.262 80.12 220.643 80.12C219.95 80.12 219.39 80.3387 218.963 80.776C218.536 81.2027 218.323 81.864 218.323 82.76V87H216.931V75.8H218.323V80.152C218.888 79.2453 219.752 78.792 220.915 78.792Z" fill="white"/>
<circle cx="22" cy="81" r="4" fill="#30D987"/>
<path d="M246.748 104.432C247.91 104.464 248.854 104.843 249.58 105.568C250.305 106.283 250.668 107.2 250.668 108.32C250.668 109.461 250.289 110.4 249.532 111.136C248.774 111.861 247.798 112.224 246.604 112.224C245.409 112.224 244.433 111.861 243.676 111.136C242.929 110.411 242.556 109.472 242.556 108.32C242.556 107.467 242.774 106.715 243.212 106.064L246.7 100.8H249.228L246.748 104.432ZM245.276 109.648C245.628 109.979 246.07 110.144 246.604 110.144C247.137 110.144 247.58 109.979 247.932 109.648C248.294 109.317 248.476 108.875 248.476 108.32C248.476 107.776 248.294 107.339 247.932 107.008C247.58 106.677 247.137 106.512 246.604 106.512C246.07 106.512 245.628 106.677 245.276 107.008C244.924 107.328 244.748 107.765 244.748 108.32C244.748 108.875 244.924 109.317 245.276 109.648ZM256.071 112.224C254.674 112.224 253.575 111.696 252.775 110.64C251.986 109.573 251.591 108.16 251.591 106.4C251.591 104.64 251.986 103.232 252.775 102.176C253.575 101.109 254.674 100.576 256.071 100.576C257.479 100.576 258.578 101.109 259.367 102.176C260.157 103.232 260.551 104.64 260.551 106.4C260.551 108.16 260.157 109.573 259.367 110.64C258.578 111.696 257.479 112.224 256.071 112.224ZM254.375 109.136C254.759 109.755 255.325 110.064 256.071 110.064C256.818 110.064 257.383 109.749 257.767 109.12C258.162 108.491 258.359 107.584 258.359 106.4C258.359 105.205 258.162 104.293 257.767 103.664C257.383 103.035 256.818 102.72 256.071 102.72C255.325 102.72 254.759 103.035 254.375 103.664C253.991 104.293 253.799 105.205 253.799 106.4C253.799 107.595 253.991 108.507 254.375 109.136ZM266.149 112.224C264.752 112.224 263.653 111.696 262.853 110.64C262.064 109.573 261.669 108.16 261.669 106.4C261.669 104.64 262.064 103.232 262.853 102.176C263.653 101.109 264.752 100.576 266.149 100.576C267.557 100.576 268.656 101.109 269.445 102.176C270.235 103.232 270.629 104.64 270.629 106.4C270.629 108.16 270.235 109.573 269.445 110.64C268.656 111.696 267.557 112.224 266.149 112.224ZM264.453 109.136C264.837 109.755 265.403 110.064 266.149 110.064C266.896 110.064 267.461 109.749 267.845 109.12C268.24 108.491 268.437 107.584 268.437 106.4C268.437 105.205 268.24 104.293 267.845 103.664C267.461 103.035 266.896 102.72 266.149 102.72C265.403 102.72 264.837 103.035 264.453 103.664C264.069 104.293 263.877 105.205 263.877 106.4C263.877 107.595 264.069 108.507 264.453 109.136ZM283.635 100.8V102.912H280.612V112H278.404V102.912H275.396V100.8H283.635ZM291.348 100.8H293.556V112H291.876L287.076 105.152V112H284.868V100.8H286.548L291.348 107.632V100.8ZM300.082 100.8C301.618 100.8 302.898 101.339 303.922 102.416C304.956 103.493 305.474 104.821 305.474 106.4C305.474 107.979 304.956 109.307 303.922 110.384C302.898 111.461 301.618 112 300.082 112H295.634V100.8H300.082ZM300.082 109.888C301.052 109.888 301.842 109.568 302.45 108.928C303.058 108.277 303.362 107.435 303.362 106.4C303.362 105.365 303.058 104.528 302.45 103.888C301.842 103.237 301.052 102.912 300.082 102.912H297.842V109.888H300.082Z" fill="white"/>
<path opacity="0.7" d="M49.368 100.8V102.208H46.056V112H44.584V102.208H41.288V100.8H49.368ZM55.9955 110.992C55.1742 111.803 54.1768 112.208 53.0035 112.208C51.8302 112.208 50.8328 111.803 50.0115 110.992C49.2008 110.181 48.7955 109.184 48.7955 108C48.7955 106.816 49.2008 105.819 50.0115 105.008C50.8328 104.197 51.8302 103.792 53.0035 103.792C54.1768 103.792 55.1742 104.197 55.9955 105.008C56.8168 105.819 57.2275 106.816 57.2275 108C57.2275 109.184 56.8168 110.181 55.9955 110.992ZM53.0035 110.848C53.8035 110.848 54.4755 110.576 55.0195 110.032C55.5635 109.488 55.8355 108.811 55.8355 108C55.8355 107.189 55.5635 106.512 55.0195 105.968C54.4755 105.424 53.8035 105.152 53.0035 105.152C52.2142 105.152 51.5475 105.424 51.0035 105.968C50.4595 106.512 50.1875 107.189 50.1875 108C50.1875 108.811 50.4595 109.488 51.0035 110.032C51.5475 110.576 52.2142 110.848 53.0035 110.848ZM63.2845 103.792C64.4045 103.792 65.3592 104.203 66.1485 105.024C66.9378 105.835 67.3325 106.827 67.3325 108C67.3325 109.173 66.9378 110.171 66.1485 110.992C65.3592 111.803 64.4045 112.208 63.2845 112.208C61.9618 112.208 60.9538 111.68 60.2605 110.624V115.2H58.8685V104H60.2605V105.376C60.9538 104.32 61.9618 103.792 63.2845 103.792ZM63.1085 110.864C63.9085 110.864 64.5805 110.592 65.1245 110.048C65.6685 109.493 65.9405 108.811 65.9405 108C65.9405 107.189 65.6685 106.512 65.1245 105.968C64.5805 105.413 63.9085 105.136 63.1085 105.136C62.2978 105.136 61.6205 105.413 61.0765 105.968C60.5325 106.512 60.2605 107.189 60.2605 108C60.2605 108.811 60.5325 109.493 61.0765 110.048C61.6205 110.592 62.2978 110.864 63.1085 110.864ZM78.4015 112.208C76.7055 112.208 75.3028 111.648 74.1935 110.528C73.0948 109.408 72.5455 108.032 72.5455 106.4C72.5455 104.768 73.0948 103.392 74.1935 102.272C75.3028 101.152 76.7055 100.592 78.4015 100.592C79.4255 100.592 80.3642 100.837 81.2175 101.328C82.0815 101.819 82.7535 102.48 83.2335 103.312L81.9375 104.064C81.6175 103.445 81.1375 102.955 80.4975 102.592C79.8682 102.219 79.1695 102.032 78.4015 102.032C77.1108 102.032 76.0548 102.448 75.2335 103.28C74.4228 104.112 74.0175 105.152 74.0175 106.4C74.0175 107.637 74.4228 108.672 75.2335 109.504C76.0548 110.336 77.1108 110.752 78.4015 110.752C79.1695 110.752 79.8682 110.571 80.4975 110.208C81.1375 109.835 81.6175 109.344 81.9375 108.736L83.2335 109.472C82.7642 110.304 82.0975 110.971 81.2335 111.472C80.3695 111.963 79.4255 112.208 78.4015 112.208ZM91.3675 104H92.7595V112H91.3675V110.624C90.6742 111.68 89.6662 112.208 88.3435 112.208C87.2235 112.208 86.2688 111.803 85.4795 110.992C84.6902 110.171 84.2955 109.173 84.2955 108C84.2955 106.827 84.6902 105.835 85.4795 105.024C86.2688 104.203 87.2235 103.792 88.3435 103.792C89.6662 103.792 90.6742 104.32 91.3675 105.376V104ZM88.5195 110.864C89.3302 110.864 90.0075 110.592 90.5515 110.048C91.0955 109.493 91.3675 108.811 91.3675 108C91.3675 107.189 91.0955 106.512 90.5515 105.968C90.0075 105.413 89.3302 105.136 88.5195 105.136C87.7195 105.136 87.0475 105.413 86.5035 105.968C85.9595 106.512 85.6875 107.189 85.6875 108C85.6875 108.811 85.9595 109.493 86.5035 110.048C87.0475 110.592 87.7195 110.864 88.5195 110.864ZM99.2205 105.344H97.0925V109.68C97.0925 110.075 97.1672 110.357 97.3165 110.528C97.4765 110.688 97.7165 110.773 98.0365 110.784C98.3565 110.784 98.7512 110.773 99.2205 110.752V112C98.0045 112.16 97.1138 112.064 96.5485 111.712C95.9832 111.349 95.7005 110.672 95.7005 109.68V105.344H94.1165V104H95.7005V102.176L97.0925 101.76V104H99.2205V105.344ZM101.438 108.64C101.577 109.355 101.902 109.909 102.414 110.304C102.937 110.699 103.577 110.896 104.334 110.896C105.39 110.896 106.158 110.507 106.638 109.728L107.822 110.4C107.044 111.605 105.87 112.208 104.302 112.208C103.033 112.208 101.998 111.813 101.198 111.024C100.409 110.224 100.014 109.216 100.014 108C100.014 106.795 100.404 105.792 101.182 104.992C101.961 104.192 102.969 103.792 104.206 103.792C105.38 103.792 106.334 104.208 107.07 105.04C107.817 105.861 108.19 106.853 108.19 108.016C108.19 108.219 108.174 108.427 108.142 108.64H101.438ZM104.206 105.104C103.46 105.104 102.841 105.317 102.35 105.744C101.86 106.16 101.556 106.72 101.438 107.424H106.782C106.665 106.667 106.366 106.091 105.886 105.696C105.406 105.301 104.846 105.104 104.206 105.104ZM116.415 104H117.791V111.664C117.791 112.848 117.391 113.765 116.591 114.416C115.791 115.077 114.831 115.408 113.711 115.408C112.815 115.408 112.041 115.237 111.391 114.896C110.74 114.565 110.249 114.085 109.919 113.456L111.135 112.768C111.572 113.664 112.441 114.112 113.743 114.112C114.575 114.112 115.225 113.893 115.695 113.456C116.175 113.019 116.415 112.421 116.415 111.664V110.528C115.711 111.595 114.708 112.128 113.407 112.128C112.265 112.128 111.3 111.723 110.511 110.912C109.721 110.101 109.327 109.115 109.327 107.952C109.327 106.789 109.721 105.808 110.511 105.008C111.3 104.197 112.265 103.792 113.407 103.792C114.719 103.792 115.721 104.32 116.415 105.376V104ZM111.535 109.984C112.079 110.528 112.756 110.8 113.567 110.8C114.377 110.8 115.055 110.528 115.599 109.984C116.143 109.44 116.415 108.763 116.415 107.952C116.415 107.152 116.143 106.48 115.599 105.936C115.055 105.392 114.377 105.12 113.567 105.12C112.756 105.12 112.079 105.392 111.535 105.936C110.991 106.48 110.719 107.152 110.719 107.952C110.719 108.763 110.991 109.44 111.535 109.984ZM126.652 110.992C125.83 111.803 124.833 112.208 123.66 112.208C122.486 112.208 121.489 111.803 120.668 110.992C119.857 110.181 119.452 109.184 119.452 108C119.452 106.816 119.857 105.819 120.668 105.008C121.489 104.197 122.486 103.792 123.66 103.792C124.833 103.792 125.83 104.197 126.652 105.008C127.473 105.819 127.884 106.816 127.884 108C127.884 109.184 127.473 110.181 126.652 110.992ZM123.66 110.848C124.46 110.848 125.132 110.576 125.676 110.032C126.22 109.488 126.492 108.811 126.492 108C126.492 107.189 126.22 106.512 125.676 105.968C125.132 105.424 124.46 105.152 123.66 105.152C122.87 105.152 122.204 105.424 121.66 105.968C121.116 106.512 120.844 107.189 120.844 108C120.844 108.811 121.116 109.488 121.66 110.032C122.204 110.576 122.87 110.848 123.66 110.848ZM130.917 105.344C131.375 104.352 132.207 103.856 133.413 103.856V105.312C132.73 105.28 132.143 105.461 131.653 105.856C131.162 106.251 130.917 106.885 130.917 107.76V112H129.525V104H130.917V105.344ZM140.531 104H142.019L138.755 112.496C138.413 113.403 137.933 114.091 137.315 114.56C136.707 115.04 136.003 115.253 135.203 115.2V113.904C136.184 113.979 136.904 113.435 137.363 112.272L137.507 111.968L134.019 104H135.507L138.227 110.272L140.531 104Z" fill="white"/>
<circle cx="22" cy="108" r="4" fill="#FD1F9B"/>
</svg>
