<svg width="206" height="50" viewBox="0 0 206 50" fill="none" xmlns="http://www.w3.org/2000/svg">
<g clip-path="url(#clip0_2_3133)">
<path d="M8.68 31.196C7.31733 31.196 6.08533 30.9627 4.984 30.496C3.90133 30.0293 3.04267 29.3573 2.408 28.48C1.77333 27.6027 1.44667 26.5667 1.428 25.372H5.628C5.684 26.1747 5.964 26.8093 6.468 27.276C6.99067 27.7427 7.7 27.976 8.596 27.976C9.51067 27.976 10.2293 27.7613 10.752 27.332C11.2747 26.884 11.536 26.3053 11.536 25.596C11.536 25.0173 11.3587 24.5413 11.004 24.168C10.6493 23.7947 10.2013 23.5053 9.66 23.3C9.13733 23.076 8.40933 22.8333 7.476 22.572C6.20667 22.1987 5.17067 21.8347 4.368 21.48C3.584 21.1067 2.90267 20.556 2.324 19.828C1.764 19.0813 1.484 18.092 1.484 16.86C1.484 15.7027 1.77333 14.6947 2.352 13.836C2.93067 12.9773 3.74267 12.324 4.788 11.876C5.83333 11.4093 7.028 11.176 8.372 11.176C10.388 11.176 12.0213 11.6707 13.272 12.66C14.5413 13.6307 15.2413 14.9933 15.372 16.748H11.06C11.0227 16.076 10.7333 15.5253 10.192 15.096C9.66933 14.648 8.96933 14.424 8.092 14.424C7.32667 14.424 6.71067 14.62 6.244 15.012C5.796 15.404 5.572 15.9733 5.572 16.72C5.572 17.2427 5.74 17.6813 6.076 18.036C6.43067 18.372 6.86 18.652 7.364 18.876C7.88667 19.0813 8.61467 19.324 9.548 19.604C10.8173 19.9773 11.8533 20.3507 12.656 20.724C13.4587 21.0973 14.1493 21.6573 14.728 22.404C15.3067 23.1507 15.596 24.1307 15.596 25.344C15.596 26.3893 15.3253 27.36 14.784 28.256C14.2427 29.152 13.4493 29.8707 12.404 30.412C11.3587 30.9347 10.1173 31.196 8.68 31.196ZM22.9145 17.728C23.4185 17.0187 24.1092 16.4307 24.9865 15.964C25.8825 15.4787 26.8998 15.236 28.0385 15.236C29.3638 15.236 30.5585 15.5627 31.6225 16.216C32.7052 16.8693 33.5545 17.8027 34.1705 19.016C34.8052 20.2107 35.1225 21.6013 35.1225 23.188C35.1225 24.7747 34.8052 26.184 34.1705 27.416C33.5545 28.6293 32.7052 29.572 31.6225 30.244C30.5585 30.916 29.3638 31.252 28.0385 31.252C26.8998 31.252 25.8918 31.0187 25.0145 30.552C24.1558 30.0853 23.4558 29.4973 22.9145 28.788V38.392H18.9945V15.488H22.9145V17.728ZM31.1185 23.188C31.1185 22.2547 30.9225 21.452 30.5305 20.78C30.1572 20.0893 29.6532 19.5667 29.0185 19.212C28.4025 18.8573 27.7305 18.68 27.0025 18.68C26.2932 18.68 25.6212 18.8667 24.9865 19.24C24.3705 19.5947 23.8665 20.1173 23.4745 20.808C23.1012 21.4987 22.9145 22.3107 22.9145 23.244C22.9145 24.1773 23.1012 24.9893 23.4745 25.68C23.8665 26.3707 24.3705 26.9027 24.9865 27.276C25.6212 27.6307 26.2932 27.808 27.0025 27.808C27.7305 27.808 28.4025 27.6213 29.0185 27.248C29.6532 26.8747 30.1572 26.3427 30.5305 25.652C30.9225 24.9613 31.1185 24.14 31.1185 23.188ZM52.3911 22.908C52.3911 23.468 52.3537 23.972 52.2791 24.42H40.9391C41.0324 25.54 41.4244 26.4173 42.1151 27.052C42.8057 27.6867 43.6551 28.004 44.6631 28.004C46.1191 28.004 47.1551 27.3787 47.7711 26.128H51.9991C51.5511 27.6213 50.6924 28.8533 49.4231 29.824C48.1537 30.776 46.5951 31.252 44.7471 31.252C43.2537 31.252 41.9097 30.9253 40.7151 30.272C39.5391 29.6 38.6151 28.6573 37.9431 27.444C37.2897 26.2307 36.9631 24.8307 36.9631 23.244C36.9631 21.6387 37.2897 20.2293 37.9431 19.016C38.5964 17.8027 39.5111 16.8693 40.6871 16.216C41.8631 15.5627 43.2164 15.236 44.7471 15.236C46.2217 15.236 47.5377 15.5533 48.6951 16.188C49.8711 16.8227 50.7764 17.728 51.4111 18.904C52.0644 20.0613 52.3911 21.396 52.3911 22.908ZM48.3311 21.788C48.3124 20.78 47.9484 19.9773 47.2391 19.38C46.5297 18.764 45.6617 18.456 44.6351 18.456C43.6644 18.456 42.8431 18.7547 42.1711 19.352C41.5177 19.9307 41.1164 20.7427 40.9671 21.788H48.3311ZM63.8483 15.264C65.6963 15.264 67.1896 15.852 68.3283 17.028C69.467 18.1853 70.0363 19.8093 70.0363 21.9V31H66.1163V22.432C66.1163 21.2 65.8083 20.2573 65.1923 19.604C64.5763 18.932 63.7363 18.596 62.6723 18.596C61.5896 18.596 60.731 18.932 60.0963 19.604C59.4803 20.2573 59.1723 21.2 59.1723 22.432V31H55.2523V15.488H59.1723V17.42C59.695 16.748 60.3576 16.2253 61.1603 15.852C61.9816 15.46 62.8776 15.264 63.8483 15.264ZM72.756 23.188C72.756 21.62 73.064 20.2293 73.68 19.016C74.3147 17.8027 75.1734 16.8693 76.256 16.216C77.3387 15.5627 78.5427 15.236 79.868 15.236C80.876 15.236 81.8374 15.46 82.752 15.908C83.6667 16.3373 84.3947 16.916 84.936 17.644V10.28H88.912V31H84.936V28.704C84.4507 29.4693 83.7694 30.0853 82.892 30.552C82.0147 31.0187 80.9974 31.252 79.84 31.252C78.5334 31.252 77.3387 30.916 76.256 30.244C75.1734 29.572 74.3147 28.6293 73.68 27.416C73.064 26.184 72.756 24.7747 72.756 23.188ZM84.964 23.244C84.964 22.292 84.7774 21.48 84.404 20.808C84.0307 20.1173 83.5267 19.5947 82.892 19.24C82.2574 18.8667 81.576 18.68 80.848 18.68C80.12 18.68 79.448 18.8573 78.832 19.212C78.216 19.5667 77.712 20.0893 77.32 20.78C76.9467 21.452 76.76 22.2547 76.76 23.188C76.76 24.1213 76.9467 24.9427 77.32 25.652C77.712 26.3427 78.216 26.8747 78.832 27.248C79.4667 27.6213 80.1387 27.808 80.848 27.808C81.576 27.808 82.2574 27.6307 82.892 27.276C83.5267 26.9027 84.0307 26.38 84.404 25.708C84.7774 25.0173 84.964 24.196 84.964 23.244ZM104.809 11.456V14.62H96.6606V19.632H102.905V22.74H96.6606V31H92.7406V11.456H104.809ZM111.508 10.28V31H107.588V10.28H111.508ZM122.269 31.252C120.776 31.252 119.432 30.9253 118.237 30.272C117.043 29.6 116.1 28.6573 115.409 27.444C114.737 26.2307 114.401 24.8307 114.401 23.244C114.401 21.6573 114.747 20.2573 115.437 19.044C116.147 17.8307 117.108 16.8973 118.321 16.244C119.535 15.572 120.888 15.236 122.381 15.236C123.875 15.236 125.228 15.572 126.441 16.244C127.655 16.8973 128.607 17.8307 129.297 19.044C130.007 20.2573 130.361 21.6573 130.361 23.244C130.361 24.8307 129.997 26.2307 129.269 27.444C128.56 28.6573 127.589 29.6 126.357 30.272C125.144 30.9253 123.781 31.252 122.269 31.252ZM122.269 27.836C122.979 27.836 123.641 27.668 124.257 27.332C124.892 26.9773 125.396 26.4547 125.769 25.764C126.143 25.0733 126.329 24.2333 126.329 23.244C126.329 21.7693 125.937 20.64 125.153 19.856C124.388 19.0533 123.445 18.652 122.325 18.652C121.205 18.652 120.263 19.0533 119.497 19.856C118.751 20.64 118.377 21.7693 118.377 23.244C118.377 24.7187 118.741 25.8573 119.469 26.66C120.216 27.444 121.149 27.836 122.269 27.836ZM154.741 15.488L150.205 31H145.977L143.149 20.164L140.321 31H136.065L131.501 15.488H135.477L138.221 27.304L141.189 15.488H145.333L148.245 27.276L150.989 15.488H154.741Z" fill="white"/>
</g>
<defs>
<clipPath id="clip0_2_3133">
<rect width="205.199" height="49.1707" fill="white"/>
</clipPath>
</defs>
</svg>
