<svg width="215" height="42" viewBox="0 0 215 42" fill="none" xmlns="http://www.w3.org/2000/svg">
<path d="M68.68 31.196C67.3173 31.196 66.0853 30.9627 64.984 30.496C63.9013 30.0293 63.0427 29.3573 62.408 28.48C61.7733 27.6027 61.4467 26.5667 61.428 25.372H65.628C65.684 26.1747 65.964 26.8093 66.468 27.276C66.9907 27.7427 67.7 27.976 68.596 27.976C69.5107 27.976 70.2293 27.7613 70.752 27.332C71.2747 26.884 71.536 26.3053 71.536 25.596C71.536 25.0173 71.3587 24.5413 71.004 24.168C70.6493 23.7947 70.2013 23.5053 69.66 23.3C69.1373 23.076 68.4093 22.8333 67.476 22.572C66.2067 22.1987 65.1707 21.8347 64.368 21.48C63.584 21.1067 62.9027 20.556 62.324 19.828C61.764 19.0813 61.484 18.092 61.484 16.86C61.484 15.7027 61.7733 14.6947 62.352 13.836C62.9307 12.9773 63.7427 12.324 64.788 11.876C65.8333 11.4093 67.028 11.176 68.372 11.176C70.388 11.176 72.0213 11.6707 73.272 12.66C74.5413 13.6307 75.2413 14.9933 75.372 16.748H71.06C71.0227 16.076 70.7333 15.5253 70.192 15.096C69.6693 14.648 68.9693 14.424 68.092 14.424C67.3267 14.424 66.7107 14.62 66.244 15.012C65.796 15.404 65.572 15.9733 65.572 16.72C65.572 17.2427 65.74 17.6813 66.076 18.036C66.4307 18.372 66.86 18.652 67.364 18.876C67.8867 19.0813 68.6147 19.324 69.548 19.604C70.8173 19.9773 71.8533 20.3507 72.656 20.724C73.4587 21.0973 74.1493 21.6573 74.728 22.404C75.3067 23.1507 75.596 24.1307 75.596 25.344C75.596 26.3893 75.3253 27.36 74.784 28.256C74.2427 29.152 73.4493 29.8707 72.404 30.412C71.3587 30.9347 70.1173 31.196 68.68 31.196ZM82.9145 17.728C83.4185 17.0187 84.1092 16.4307 84.9865 15.964C85.8825 15.4787 86.8998 15.236 88.0385 15.236C89.3638 15.236 90.5585 15.5627 91.6225 16.216C92.7052 16.8693 93.5545 17.8027 94.1705 19.016C94.8052 20.2107 95.1225 21.6013 95.1225 23.188C95.1225 24.7747 94.8052 26.184 94.1705 27.416C93.5545 28.6293 92.7052 29.572 91.6225 30.244C90.5585 30.916 89.3638 31.252 88.0385 31.252C86.8998 31.252 85.8918 31.0187 85.0145 30.552C84.1558 30.0853 83.4558 29.4973 82.9145 28.788V38.392H78.9945V15.488H82.9145V17.728ZM91.1185 23.188C91.1185 22.2547 90.9225 21.452 90.5305 20.78C90.1572 20.0893 89.6532 19.5667 89.0185 19.212C88.4025 18.8573 87.7305 18.68 87.0025 18.68C86.2932 18.68 85.6212 18.8667 84.9865 19.24C84.3705 19.5947 83.8665 20.1173 83.4745 20.808C83.1012 21.4987 82.9145 22.3107 82.9145 23.244C82.9145 24.1773 83.1012 24.9893 83.4745 25.68C83.8665 26.3707 84.3705 26.9027 84.9865 27.276C85.6212 27.6307 86.2932 27.808 87.0025 27.808C87.7305 27.808 88.4025 27.6213 89.0185 27.248C89.6532 26.8747 90.1572 26.3427 90.5305 25.652C90.9225 24.9613 91.1185 24.14 91.1185 23.188ZM112.391 22.908C112.391 23.468 112.354 23.972 112.279 24.42H100.939C101.032 25.54 101.424 26.4173 102.115 27.052C102.806 27.6867 103.655 28.004 104.663 28.004C106.119 28.004 107.155 27.3787 107.771 26.128H111.999C111.551 27.6213 110.692 28.8533 109.423 29.824C108.154 30.776 106.595 31.252 104.747 31.252C103.254 31.252 101.91 30.9253 100.715 30.272C99.5391 29.6 98.6151 28.6573 97.9431 27.444C97.2897 26.2307 96.9631 24.8307 96.9631 23.244C96.9631 21.6387 97.2897 20.2293 97.9431 19.016C98.5964 17.8027 99.5111 16.8693 100.687 16.216C101.863 15.5627 103.216 15.236 104.747 15.236C106.222 15.236 107.538 15.5533 108.695 16.188C109.871 16.8227 110.776 17.728 111.411 18.904C112.064 20.0613 112.391 21.396 112.391 22.908ZM108.331 21.788C108.312 20.78 107.948 19.9773 107.239 19.38C106.53 18.764 105.662 18.456 104.635 18.456C103.664 18.456 102.843 18.7547 102.171 19.352C101.518 19.9307 101.116 20.7427 100.967 21.788H108.331ZM123.848 15.264C125.696 15.264 127.19 15.852 128.328 17.028C129.467 18.1853 130.036 19.8093 130.036 21.9V31H126.116V22.432C126.116 21.2 125.808 20.2573 125.192 19.604C124.576 18.932 123.736 18.596 122.672 18.596C121.59 18.596 120.731 18.932 120.096 19.604C119.48 20.2573 119.172 21.2 119.172 22.432V31H115.252V15.488H119.172V17.42C119.695 16.748 120.358 16.2253 121.16 15.852C121.982 15.46 122.878 15.264 123.848 15.264ZM132.756 23.188C132.756 21.62 133.064 20.2293 133.68 19.016C134.315 17.8027 135.173 16.8693 136.256 16.216C137.339 15.5627 138.543 15.236 139.868 15.236C140.876 15.236 141.837 15.46 142.752 15.908C143.667 16.3373 144.395 16.916 144.936 17.644V10.28H148.912V31H144.936V28.704C144.451 29.4693 143.769 30.0853 142.892 30.552C142.015 31.0187 140.997 31.252 139.84 31.252C138.533 31.252 137.339 30.916 136.256 30.244C135.173 29.572 134.315 28.6293 133.68 27.416C133.064 26.184 132.756 24.7747 132.756 23.188ZM144.964 23.244C144.964 22.292 144.777 21.48 144.404 20.808C144.031 20.1173 143.527 19.5947 142.892 19.24C142.257 18.8667 141.576 18.68 140.848 18.68C140.12 18.68 139.448 18.8573 138.832 19.212C138.216 19.5667 137.712 20.0893 137.32 20.78C136.947 21.452 136.76 22.2547 136.76 23.188C136.76 24.1213 136.947 24.9427 137.32 25.652C137.712 26.3427 138.216 26.8747 138.832 27.248C139.467 27.6213 140.139 27.808 140.848 27.808C141.576 27.808 142.257 27.6307 142.892 27.276C143.527 26.9027 144.031 26.38 144.404 25.708C144.777 25.0173 144.964 24.196 144.964 23.244ZM164.809 11.456V14.62H156.661V19.632H162.905V22.74H156.661V31H152.741V11.456H164.809ZM171.508 10.28V31H167.588V10.28H171.508ZM182.269 31.252C180.776 31.252 179.432 30.9253 178.237 30.272C177.043 29.6 176.1 28.6573 175.409 27.444C174.737 26.2307 174.401 24.8307 174.401 23.244C174.401 21.6573 174.747 20.2573 175.437 19.044C176.147 17.8307 177.108 16.8973 178.321 16.244C179.535 15.572 180.888 15.236 182.381 15.236C183.875 15.236 185.228 15.572 186.441 16.244C187.655 16.8973 188.607 17.8307 189.297 19.044C190.007 20.2573 190.361 21.6573 190.361 23.244C190.361 24.8307 189.997 26.2307 189.269 27.444C188.56 28.6573 187.589 29.6 186.357 30.272C185.144 30.9253 183.781 31.252 182.269 31.252ZM182.269 27.836C182.979 27.836 183.641 27.668 184.257 27.332C184.892 26.9773 185.396 26.4547 185.769 25.764C186.143 25.0733 186.329 24.2333 186.329 23.244C186.329 21.7693 185.937 20.64 185.153 19.856C184.388 19.0533 183.445 18.652 182.325 18.652C181.205 18.652 180.263 19.0533 179.497 19.856C178.751 20.64 178.377 21.7693 178.377 23.244C178.377 24.7187 178.741 25.8573 179.469 26.66C180.216 27.444 181.149 27.836 182.269 27.836ZM214.741 15.488L210.205 31H205.977L203.149 20.164L200.321 31H196.065L191.501 15.488H195.477L198.221 27.304L201.189 15.488H205.333L208.245 27.276L210.989 15.488H214.741Z" fill="#070F18"/>
<rect y="4" width="48" height="34" rx="10" fill="#F5F6FB"/>
<circle cx="15" cy="21" r="6" fill="#207DFF"/>
<circle cx="33" cy="21" r="6" fill="#51A690"/>
</svg>
