<svg width="70" height="316" viewBox="0 0 70 316" fill="none" xmlns="http://www.w3.org/2000/svg">
<g filter="url(#filter0_d_2_3341)">
<path d="M4.2399 306.35C3.88102 306.77 3.9304 307.401 4.3502 307.76C4.76999 308.119 5.40123 308.07 5.7601 307.65L5 307L4.2399 306.35ZM56.9282 0.181314C56.476 -0.135735 55.8524 -0.0261607 55.5354 0.426054L50.3687 7.79532C50.0517 8.24754 50.1613 8.87115 50.6135 9.1882C51.0657 9.50525 51.6893 9.39567 52.0064 8.94346L56.5989 2.393L63.1494 6.98554C63.6016 7.30259 64.2252 7.19302 64.5422 6.7408C64.8593 6.28859 64.7497 5.66497 64.2975 5.34792L56.9282 0.181314ZM5 307C5.7601 307.65 5.76081 307.649 5.76185 307.648C5.76264 307.647 5.76402 307.645 5.76559 307.643C5.76875 307.64 5.77322 307.635 5.779 307.628C5.79055 307.614 5.80733 307.594 5.82923 307.568C5.87303 307.516 5.93732 307.439 6.0213 307.337C6.18926 307.132 6.43598 306.829 6.75503 306.425C7.39313 305.618 8.32059 304.412 9.48601 302.806C11.8168 299.596 15.0996 294.79 18.9233 288.388C26.5705 275.584 36.3813 256.395 45.0657 230.822C62.4365 179.669 75.2916 102.999 57.3391 0.827065L56.3542 1.00012L55.3692 1.17318C73.2612 103.001 60.4392 179.331 43.1719 230.179C34.5371 255.605 24.7885 274.667 17.2062 287.362C13.415 293.71 10.1654 298.467 7.86761 301.631C6.7187 303.214 5.80775 304.398 5.18603 305.185C4.87517 305.578 4.63662 305.872 4.4768 306.066C4.39688 306.163 4.33665 306.235 4.2969 306.283C4.27703 306.306 4.26227 306.324 4.25274 306.335C4.24797 306.341 4.24451 306.345 4.24236 306.347C4.24129 306.349 4.24068 306.349 4.24014 306.35C4.23985 306.35 4.2399 306.35 5 307Z" fill="#070F18" fill-opacity="0.3"/>
</g>
<defs>
<filter id="filter0_d_2_3341" x="0" y="0" width="70" height="316" filterUnits="userSpaceOnUse" color-interpolation-filters="sRGB">
<feFlood flood-opacity="0" result="BackgroundImageFix"/>
<feColorMatrix in="SourceAlpha" type="matrix" values="0 0 0 0 0 0 0 0 0 0 0 0 0 0 0 0 0 0 127 0" result="hardAlpha"/>
<feOffset dy="4"/>
<feGaussianBlur stdDeviation="2"/>
<feComposite in2="hardAlpha" operator="out"/>
<feColorMatrix type="matrix" values="0 0 0 0 0 0 0 0 0 0 0 0 0 0 0 0 0 0 0.25 0"/>
<feBlend mode="normal" in2="BackgroundImageFix" result="effect1_dropShadow_2_3341"/>
<feBlend mode="normal" in="SourceGraphic" in2="effect1_dropShadow_2_3341" result="shape"/>
</filter>
</defs>
</svg>
