<svg width="148" height="917" viewBox="0 0 148 917" fill="none" xmlns="http://www.w3.org/2000/svg">
<g filter="url(#filter0_dd_2_2575)">
<path d="M118.649 1.22179C118.777 0.68408 118.445 0.148457 117.907 0.0254447C117.369 -0.0975682 116.829 0.238612 116.701 0.776323L117.675 0.999057L118.649 1.22179ZM90.7551 488.419L89.8797 487.942V487.942L90.7551 488.419ZM8.08959 907.747C8.3342 908.24 8.93452 908.438 9.43044 908.19L17.512 904.147C18.0079 903.899 18.2116 903.299 17.967 902.806C17.7224 902.313 17.1221 902.115 16.6262 902.363L9.44259 905.957L5.89939 898.82C5.65479 898.328 5.05447 898.129 4.55854 898.377C4.06263 898.626 3.85889 899.226 4.1035 899.719L8.08959 907.747ZM117.675 0.999057L116.701 0.776323C86.2772 128.819 48.4131 306.88 33.72 424.863C30.0466 454.361 27.8182 480.127 27.52 500.43C27.3708 510.581 27.7038 519.386 28.5852 526.619C29.4643 533.833 30.8979 539.565 32.9995 543.516C35.112 547.486 38.0065 549.825 41.7953 549.799C45.4605 549.773 49.639 547.519 54.3469 543.209C63.7986 534.557 76.0669 516.981 91.6304 488.897L90.7551 488.419L89.8797 487.942C74.3201 516.019 62.1859 533.333 52.9996 541.742C48.3886 545.963 44.6891 547.781 41.798 547.801C39.0305 547.82 36.6902 546.177 34.77 542.568C32.839 538.938 31.442 533.493 30.5731 526.362C29.7064 519.25 29.3738 510.542 29.5222 500.443C29.8189 480.244 32.0377 454.559 35.7072 425.093C50.386 307.225 88.2282 129.253 118.649 1.22179L117.675 0.999057ZM90.7551 488.419L91.6304 488.897C107.19 460.82 118.779 442.737 126.994 432.994C131.131 428.087 134.289 425.449 136.561 424.607C137.656 424.201 138.434 424.251 139.015 424.54C139.619 424.841 140.207 425.494 140.7 426.688C141.7 429.104 142.111 433.233 141.892 439.023C141.675 444.772 140.845 452.023 139.467 460.589C136.712 477.718 131.783 500.02 125.258 525.921C99.156 629.526 47.6023 790.374 8.03942 906.985L8.98754 907.298L9.93567 907.611C49.5005 790.994 101.077 630.081 127.2 526.393C133.731 500.471 138.676 478.103 141.444 460.89C142.828 452.284 143.671 444.945 143.893 439.082C144.113 433.261 143.729 428.756 142.552 425.913C141.958 424.476 141.112 423.344 139.92 422.751C138.705 422.147 137.323 422.198 135.876 422.735C133.064 423.779 129.612 426.798 125.466 431.716C117.114 441.622 105.443 459.857 89.8797 487.942L90.7551 488.419Z" fill="white" fill-opacity="0.4"/>
</g>
<defs>
<filter id="filter0_dd_2_2575" x="0" y="0" width="147.952" height="916.297" filterUnits="userSpaceOnUse" color-interpolation-filters="sRGB">
<feFlood flood-opacity="0" result="BackgroundImageFix"/>
<feColorMatrix in="SourceAlpha" type="matrix" values="0 0 0 0 0 0 0 0 0 0 0 0 0 0 0 0 0 0 127 0" result="hardAlpha"/>
<feOffset dy="4"/>
<feGaussianBlur stdDeviation="2"/>
<feComposite in2="hardAlpha" operator="out"/>
<feColorMatrix type="matrix" values="0 0 0 0 0 0 0 0 0 0 0 0 0 0 0 0 0 0 0.25 0"/>
<feBlend mode="normal" in2="BackgroundImageFix" result="effect1_dropShadow_2_2575"/>
<feColorMatrix in="SourceAlpha" type="matrix" values="0 0 0 0 0 0 0 0 0 0 0 0 0 0 0 0 0 0 127 0" result="hardAlpha"/>
<feOffset dy="4"/>
<feGaussianBlur stdDeviation="2"/>
<feComposite in2="hardAlpha" operator="out"/>
<feColorMatrix type="matrix" values="0 0 0 0 0 0 0 0 0 0 0 0 0 0 0 0 0 0 0.25 0"/>
<feBlend mode="normal" in2="effect1_dropShadow_2_2575" result="effect2_dropShadow_2_2575"/>
<feBlend mode="normal" in="SourceGraphic" in2="effect2_dropShadow_2_2575" result="shape"/>
</filter>
</defs>
</svg>
